<?xml version="1.0" encoding="utf-8"?>
<!-- Generator: Grasshopper 1.0.0, Redback Plugin. SVG Version: 6.00 Build 0) Made by Andrew Butler at Cox Architecture -->
<!DOCTYPE svg PUBLIC "-//W3C//DTD SVG 1.1//EN" "http://www.w3.org/Graphics/SVG/1.1/DTD/svg11.dtd">
<svg version="1.1" xmlns="http://www.w3.org/2000/svg" xmlns:xlink="http://www.w3.org/1999/xlink" x="0px" y="0px"
width="420.0mm" height="297.0mm" viewBox="0 0 420.0 297.0" xml:space="preserve">
<style type="text/css">
.curve{
fill:None;
stroke:#000;
stroke-width:0.05px;
stroke-linecap:round;
}
.thick-hatch{
stroke-width:0.1px;
}
.bold-hatch{
stroke-width:0.2px;
}
.thin-hatch{
stroke-width:0.025px;
}
.thick-road{
stroke-width:0.8px;
}
</style>
<polygon points="216.74,168.05 216.75,168.11 216.77,168.19 216.79,168.27 216.80,168.32 217.06,168.39 217.70,168.42 218.14,167.98 218.22,167.80 218.23,167.77 218.22,167.76 218.22,167.68 218.22,167.60 218.24,167.53 218.27,167.25 218.27,167.17 218.12,166.92 218.03,166.78 217.98,166.70 217.92,166.64 217.85,166.58 217.81,166.55 217.76,166.51 217.70,166.48 217.67,166.46 217.61,166.44 217.30,166.52 217.08,166.90 217.06,167.00 217.04,167.06 217.01,167.10 216.97,167.15 216.97,167.19 216.94,167.40 216.91,167.62 216.83,167.82" />
<polygon points="166.99,189.85 166.98,189.91 166.97,189.99 166.95,190.08 166.94,190.13 167.17,190.29 167.77,190.56 168.36,190.30 168.50,190.15 168.52,190.13 168.52,190.11 168.55,190.04 168.58,189.96 168.62,189.90 168.75,189.65 168.78,189.56 168.73,189.27 168.70,189.10 168.68,189.00 168.64,188.93 168.59,188.84 168.57,188.80 168.53,188.74 168.49,188.69 168.47,188.66 168.41,188.62 168.09,188.58 167.73,188.87 167.68,188.95 167.64,189.00 167.59,189.04 167.54,189.07 167.52,189.10 167.41,189.30 167.31,189.49 167.15,189.67" />
<polygon points="174.93,195.51 175.00,195.93 175.13,196.03 175.29,196.13 175.45,196.06 175.45,196.05 175.46,196.03 175.47,196.01 175.47,195.95 175.48,195.84 175.48,195.74 175.48,195.68 175.52,195.56 175.56,195.44 175.55,195.20 175.51,195.17 175.25,195.26 175.18,195.35 175.04,195.42 174.98,195.45" />
<polygon points="225.86,106.55 225.80,106.58 225.72,106.62 225.64,106.67 225.59,106.69 225.61,107.00 225.80,107.68 226.42,108.00 226.63,108.02 226.66,108.01 226.68,108.01 226.76,107.98 226.85,107.95 226.92,107.94 227.23,107.88 227.32,107.85 227.53,107.60 227.65,107.47 227.72,107.38 227.75,107.30 227.79,107.20 227.81,107.15 227.83,107.08 227.85,107.01 227.86,106.98 227.86,106.90 227.66,106.60 227.19,106.50 227.08,106.51 227.01,106.51 226.95,106.50 226.88,106.48 226.85,106.48 226.61,106.52 226.37,106.57 226.12,106.56" />
<polygon points="306.08,133.65 305.64,134.19 305.66,134.45 305.71,134.75 305.96,134.87 305.98,134.86 306.01,134.85 306.05,134.84 306.12,134.77 306.25,134.67 306.37,134.57 306.45,134.50 306.63,134.42 306.82,134.34 307.12,134.08 307.10,133.99 306.72,133.78 306.54,133.79 306.31,133.70 306.21,133.65" />
<polygon points="255.56,87.97 255.58,88.32 255.60,88.67 255.61,88.73 255.69,88.78 255.80,88.86 255.91,88.94 255.98,88.99 256.06,89.08 256.16,89.20 256.40,89.50 257.09,89.93 258.19,90.07 258.72,89.92 258.90,89.77 258.95,89.73 259.03,89.68 259.14,89.57 259.21,89.50 259.27,89.42 259.31,89.39 259.39,89.34 259.47,89.27 259.51,89.23 259.62,89.01 259.65,88.93 259.68,88.83 259.71,88.80 259.77,88.75 259.82,88.70 259.84,88.67 259.88,88.62 259.88,88.55 259.90,88.44 259.91,88.34 259.91,88.27 259.91,88.22 259.91,88.13 259.91,88.04 259.91,87.99 259.92,87.93 259.94,87.82 259.95,87.71 259.96,87.65 259.94,87.51 259.51,87.29 259.44,87.27 259.36,87.24 259.26,87.20 258.44,87.35 257.86,87.33 257.74,87.35 257.63,87.38 257.49,87.33 257.40,87.34 257.20,87.39 256.97,87.45 256.77,87.49 256.67,87.52 256.63,87.54 256.55,87.58 256.47,87.63 256.43,87.65 256.05,87.72 256.00,87.70 255.93,87.68 255.87,87.65 255.79,87.62 255.75,87.63 255.73,87.65 255.70,87.68 255.74,87.75 255.78,87.81 255.72,87.91 255.67,87.92 255.63,87.92" />
<polygon points="258.35,101.16 258.05,101.56 258.07,101.75 258.11,101.96 258.29,102.04 258.31,102.03 258.32,102.03 258.36,102.01 258.41,101.97 258.50,101.89 258.58,101.81 258.64,101.77 258.77,101.70 258.90,101.64 259.11,101.44 259.10,101.38 258.81,101.24 258.68,101.25 258.51,101.19 258.44,101.16" />
<polygon points="260.93,113.55 260.87,113.59 260.79,113.65 260.71,113.71 260.66,113.75 260.72,114.07 261.01,114.78 261.72,115.03 261.95,115.02 261.98,115.01 262.00,115.00 262.08,114.96 262.17,114.92 262.25,114.90 262.57,114.79 262.66,114.74 262.85,114.45 262.96,114.29 263.02,114.20 263.05,114.10 263.07,113.99 263.09,113.94 263.10,113.86 263.12,113.78 263.12,113.74 263.11,113.66 262.86,113.37 262.34,113.32 262.22,113.35 262.15,113.36 262.08,113.35 262.01,113.34 261.97,113.35 261.72,113.43 261.48,113.51 261.21,113.53" />
<polygon points="263.37,127.14 263.07,127.55 263.10,127.73 263.14,127.95 263.33,128.02 263.34,128.01 263.36,128.01 263.39,127.99 263.44,127.95 263.53,127.87 263.61,127.79 263.67,127.74 263.80,127.67 263.93,127.61 264.13,127.41 264.12,127.35 263.83,127.21 263.70,127.22 263.53,127.16 263.46,127.14" />
<polygon points="264.64,139.83 263.74,140.23 263.75,140.68 263.85,140.86 263.90,140.95 263.98,141.10 264.05,141.24 264.10,141.33 264.12,141.37 264.14,141.40 264.23,141.48 264.37,141.60 264.50,141.72 264.57,141.78 264.65,141.88 264.73,141.98 264.93,142.14 265.25,142.18 265.57,142.23 265.62,142.25 265.70,142.29 265.78,142.32 265.83,142.33 267.08,142.09 267.44,141.70 267.46,141.67 267.49,141.65 267.70,141.43 267.88,141.24 268.15,139.90 268.15,139.70 268.14,139.64 268.13,139.59 268.06,139.41 267.93,139.28 267.48,139.38 267.39,139.38 267.26,139.39 267.13,139.40 267.06,139.41 266.00,139.64 265.86,139.66 265.64,139.69 265.42,139.72 265.27,139.74 265.20,139.74 265.13,139.73 264.90,139.78" />
<polygon points="193.67,104.09 192.88,104.35 192.85,104.74 192.93,104.90 192.96,104.97 193.01,105.10 193.06,105.23 193.09,105.31 193.11,105.34 193.13,105.37 193.20,105.44 193.30,105.56 193.41,105.67 193.46,105.73 193.52,105.81 193.58,105.91 193.74,106.06 194.00,106.12 194.27,106.19 194.31,106.21 194.37,106.24 194.44,106.28 194.48,106.29 195.56,106.18 195.89,105.89 195.91,105.86 195.93,105.84 196.13,105.68 196.30,105.53 196.63,104.42 196.65,104.26 196.65,104.20 196.64,104.16 196.59,104.00 196.50,103.88 196.11,103.93 196.04,103.92 195.92,103.92 195.81,103.92 195.75,103.92 194.84,104.03 194.72,104.04 194.53,104.05 194.34,104.06 194.22,104.06 194.15,104.05 194.09,104.04 193.90,104.06" />
<polygon points="194.91,120.20 194.10,120.39 194.04,120.77 194.09,120.94 194.12,121.01 194.16,121.15 194.20,121.28 194.22,121.36 194.24,121.40 194.26,121.43 194.32,121.51 194.41,121.63 194.50,121.75 194.56,121.81 194.60,121.90 194.65,122.00 194.80,122.17 195.06,122.25 195.31,122.34 195.35,122.37 195.41,122.41 195.47,122.45 195.52,122.47 196.60,122.46 196.96,122.19 196.98,122.17 197.00,122.15 197.22,122.01 197.40,121.87 197.82,120.80 197.86,120.63 197.86,120.58 197.86,120.54 197.83,120.38 197.74,120.25 197.35,120.26 197.28,120.25 197.17,120.24 197.05,120.22 196.99,120.22 196.08,120.25 195.95,120.24 195.76,120.24 195.58,120.23 195.45,120.22 195.39,120.21 195.33,120.19 195.14,120.19" />
<polygon points="254.60,192.08 254.75,192.47 254.89,192.54 255.06,192.61 255.19,192.51 255.19,192.50 255.20,192.48 255.20,192.46 255.20,192.40 255.18,192.30 255.16,192.21 255.16,192.15 255.17,192.03 255.19,191.91 255.14,191.67 255.09,191.65 254.86,191.79 254.81,191.88 254.69,191.98 254.64,192.02" />
<polygon points="212.17,247.97 212.51,248.43 212.55,248.60 213.05,249.30 213.08,249.33 213.12,249.37 213.20,249.43 213.28,249.60 213.43,249.73 213.57,249.79 213.67,249.82 213.73,249.84 213.75,249.85 213.78,249.86 213.82,249.87 214.77,250.18 214.95,250.12 215.12,250.03 215.16,250.02 215.23,250.01 215.30,249.99 215.33,249.98 215.60,249.74 215.67,249.66 215.83,249.55 215.94,249.48 216.01,249.43 216.45,248.76 216.47,248.70 216.48,248.64 216.65,248.39 216.74,248.28 216.87,247.80 216.90,247.44 216.95,247.32 216.93,246.94 216.98,246.67 217.02,246.40 217.02,246.36 216.92,245.65 216.91,245.54 216.88,245.48 216.83,245.37 216.78,245.26 216.75,245.19 216.63,244.82 216.50,244.45 215.67,243.28 215.34,243.04 215.11,242.90 215.03,242.86 214.97,242.82 214.73,242.77 214.49,242.76 214.44,242.74 214.40,242.72 214.37,242.71 214.34,242.71 214.31,242.71 214.27,242.72 214.22,242.73 214.19,242.75 214.14,242.77 213.93,242.78 213.72,242.88 213.65,242.93 213.54,243.01 213.42,243.10 213.35,243.16 213.26,243.24 213.05,243.34 212.91,243.40 212.79,243.50 212.71,243.62 212.62,243.76 212.54,243.88 212.18,244.81 212.18,244.95 212.14,245.08 212.09,245.13 212.04,245.20 212.04,245.23 212.03,245.29 212.02,245.35 212.01,245.38 211.92,245.67 211.87,245.96 211.87,246.03 211.92,246.21 211.93,246.25 211.92,246.31 211.91,246.42 211.90,246.59 211.91,246.85 211.96,246.94 212.01,247.02 212.07,247.44 212.12,247.71 212.15,247.86" />
<polygon points="247.52,238.68 247.57,238.73 247.64,238.79 247.70,238.85 247.75,238.89 248.03,238.77 248.61,238.36 248.70,237.67 248.65,237.46 248.64,237.44 248.63,237.42 248.57,237.35 248.52,237.28 248.48,237.21 248.33,236.94 248.26,236.88 247.96,236.75 247.80,236.69 247.69,236.65 247.60,236.64 247.49,236.64 247.45,236.64 247.37,236.64 247.30,236.64 247.26,236.65 247.19,236.68 246.97,236.96 247.03,237.44 247.08,237.54 247.11,237.61 247.11,237.67 247.12,237.74 247.13,237.77 247.25,237.98 247.37,238.19 247.44,238.43" />
<polygon points="267.53,228.05 268.55,228.76 268.69,228.84 268.82,228.91 269.17,228.95 269.24,228.93 269.31,228.92 269.35,228.91 269.49,228.92 269.61,228.94 269.86,228.89 270.22,228.27 270.32,227.53 270.25,227.27 270.21,227.03 269.45,225.94 268.32,225.23 267.69,225.08 267.58,225.15 267.48,225.22 267.08,225.63 266.94,226.17 266.94,226.30 266.93,226.40 266.88,226.53 266.89,226.70 267.03,226.96 267.06,227.06 267.07,227.14 267.13,227.32 267.21,227.49 267.35,227.76 267.43,227.90 267.48,227.98" />
<polygon points="276.58,220.65 277.67,221.24 277.82,221.30 277.96,221.35 278.30,221.35 278.38,221.33 278.45,221.30 278.48,221.29 278.62,221.28 278.75,221.29 278.98,221.21 279.27,220.55 279.28,219.81 279.18,219.56 279.11,219.32 278.22,218.33 277.02,217.76 276.37,217.69 276.28,217.77 276.19,217.85 275.84,218.31 275.76,218.86 275.78,218.98 275.78,219.09 275.75,219.22 275.78,219.39 275.95,219.63 275.99,219.72 276.01,219.81 276.09,219.97 276.19,220.13 276.36,220.38 276.46,220.51 276.51,220.58" />
<polygon points="146.73,171.47 146.79,171.30 146.90,171.03 147.01,170.77 147.07,170.60 147.10,170.51 147.13,170.30 146.90,169.63 146.69,169.36 146.47,169.07 146.41,169.00 146.36,168.96 146.31,168.93 146.22,168.88 146.13,168.84 146.08,168.81 146.01,168.77 145.94,168.72 145.84,168.68 145.32,168.60 145.00,168.64 144.69,168.68 144.65,168.70 144.58,168.72 144.52,168.74 144.48,168.75 144.21,168.82 144.15,168.85 144.05,169.03 144.01,169.13 143.93,169.20 143.81,169.31 143.71,169.41 143.55,169.68 143.53,169.76 143.47,169.98 143.44,170.12 143.42,170.21 143.44,170.26 143.48,170.34 143.51,170.42 143.54,170.47 143.65,170.54 143.72,170.59 143.80,170.64 143.92,170.72 144.03,170.81 144.55,170.99 144.73,171.04 145.04,171.13 145.35,171.22 145.89,171.42 146.12,171.52 146.25,171.58 146.35,171.61" />
<polygon points="158.39,132.22 159.57,132.12 159.72,132.08 159.86,132.06 160.13,131.87 160.18,131.81 160.22,131.76 160.25,131.73 160.35,131.65 160.46,131.59 160.60,131.41 160.48,130.73 160.10,130.13 159.90,129.98 159.71,129.83 158.49,129.50 157.23,129.68 156.68,129.96 156.65,130.08 156.61,130.19 156.58,130.74 156.81,131.22 156.88,131.31 156.94,131.39 156.99,131.51 157.10,131.63 157.36,131.73 157.44,131.79 157.50,131.84 157.65,131.93 157.81,132.01 158.08,132.12 158.22,132.17 158.31,132.20" />
<polygon points="160.31,121.46 160.37,121.45 160.45,121.42 160.54,121.41 160.59,121.39 160.65,121.11 160.65,120.43 160.16,119.98 159.97,119.91 159.94,119.91 159.92,119.91 159.84,119.91 159.75,119.92 159.68,119.91 159.38,119.88 159.30,119.90 159.04,120.07 158.90,120.16 158.81,120.22 158.76,120.29 158.70,120.37 158.67,120.41 158.63,120.47 158.59,120.52 158.57,120.56 158.56,120.63 158.66,120.95 159.07,121.17 159.18,121.18 159.24,121.20 159.29,121.23 159.35,121.26 159.38,121.27 159.61,121.29 159.84,121.31 160.06,121.38" />
<polygon points="162.16,62.61 162.23,62.70 162.29,62.77 163.00,63.03 163.50,62.75 163.74,62.54 164.04,62.43 164.33,62.31 164.38,62.28 164.59,62.00 164.64,61.94 164.22,61.24 163.87,60.93 163.27,60.33 162.66,59.73 162.40,59.49 162.22,59.31 162.09,59.19 161.89,59.01 161.77,58.90 161.69,58.83 161.51,58.77 161.45,59.46 161.54,59.62 161.54,59.69 161.54,59.82 161.54,59.95 161.53,60.03 161.72,60.47 161.76,60.56 161.80,60.97 161.84,61.37 161.87,61.44 161.92,61.57 161.97,61.70 161.99,61.78 161.99,61.99 162.00,62.13 162.00,62.22 162.05,62.36 162.09,62.48 162.14,62.58 162.15,62.60" />
<polygon points="200.17,49.65 200.56,50.28 200.80,50.35 201.11,50.33 201.23,50.35 201.37,50.36 201.49,50.35 201.66,50.22 201.77,50.12 201.84,50.06 202.43,49.24 202.47,48.80 202.46,48.72 201.86,47.61 201.73,47.56 200.60,47.17 200.49,47.18 200.13,47.35 200.04,47.45 199.97,47.53 200.11,48.97 200.17,49.31 200.15,49.48" />
<polygon points="115.34,160.11 115.67,159.72 115.66,159.53 115.63,159.30 115.45,159.22 115.44,159.23 115.42,159.23 115.38,159.24 115.33,159.28 115.23,159.36 115.14,159.43 115.08,159.47 114.94,159.53 114.80,159.58 114.58,159.77 114.59,159.83 114.87,160.00 115.00,160.00 115.17,160.07 115.24,160.10" />
<polygon points="127.36,201.69 126.98,201.98 126.75,202.15 126.61,202.27 125.99,202.99 125.95,203.31 126.32,203.87 126.38,203.91 126.47,203.98 126.55,204.04 126.61,204.08 126.67,204.15 126.76,204.25 126.85,204.36 126.90,204.42 128.10,205.06 128.58,205.20 128.75,205.26 128.91,205.32 129.25,205.41 129.38,205.39 129.76,205.47 130.00,205.52 130.15,205.54 130.32,205.56 130.43,205.57 130.80,205.50 131.06,205.40 131.13,205.40 131.24,205.40 131.34,205.40 131.40,205.39 132.73,204.76 132.83,204.69 132.92,204.63 132.96,204.60 133.00,204.53 133.05,204.47 133.13,204.41 133.33,204.32 133.53,204.23 133.98,203.57 134.14,203.19 134.35,202.85 134.44,202.76 134.51,202.70 134.56,202.67 134.61,202.55 134.68,202.38 134.75,202.21 134.79,202.10 134.72,201.57 134.75,201.05 134.73,200.86 134.72,200.77 134.72,200.73 134.77,200.41 134.77,200.09 134.75,199.99 134.70,199.83 134.65,199.66 134.63,199.57 134.59,199.36 134.56,199.23 134.55,199.16 134.17,198.59 134.13,198.49 134.09,198.39 134.07,198.36 134.06,198.30 133.47,197.85 133.23,197.89 133.00,198.00 132.85,198.08 132.73,198.15 132.70,198.16 132.66,198.18 132.64,198.20 132.63,198.22 132.53,198.35 131.03,199.34 129.84,200.10 129.37,200.42 129.03,200.56 128.57,200.87 128.08,201.14 127.90,201.20 127.79,201.22 127.73,201.24 127.67,201.28" />
<polygon points="140.10,212.97 140.07,213.05 140.03,213.16 139.99,213.26 139.96,213.34 140.23,213.62 140.98,214.15 141.86,213.96 142.09,213.79 142.12,213.77 142.13,213.75 142.19,213.65 142.25,213.55 142.32,213.48 142.57,213.17 142.63,213.06 142.64,212.64 142.65,212.41 142.65,212.27 142.62,212.16 142.57,212.02 142.55,211.96 142.52,211.87 142.48,211.79 142.46,211.74 142.39,211.67 141.95,211.53 141.39,211.82 141.29,211.92 141.23,211.98 141.15,212.02 141.07,212.05 141.03,212.09 140.83,212.33 140.63,212.57 140.38,212.76" />
</svg>