<?xml version="1.0" encoding="utf-8"?>
<!-- Generator: Grasshopper 1.0.0, Redback Plugin. SVG Version: 6.00 Build 0) Made by Andrew Butler at Cox Architecture -->
<!DOCTYPE svg PUBLIC "-//W3C//DTD SVG 1.1//EN" "http://www.w3.org/Graphics/SVG/1.1/DTD/svg11.dtd">
<svg version="1.1" xmlns="http://www.w3.org/2000/svg" xmlns:xlink="http://www.w3.org/1999/xlink" x="0px" y="0px"
width="420.0mm" height="297.0mm" viewBox="0 0 420.0 297.0" xml:space="preserve">
<style type="text/css">
text{
font-size: 0.4mm;
font-family: "IM FELL DW Pica SC";
text-anchor: middle;
dominant-baseline: central;
}
</style>
<text  transform="matrix(0.9985345479 -0.0541179882267 0.0541179882267 0.9985345479 210.073891917 139.812541761)">FU01</text>
<text  transform="matrix(0.99818324482 0.0602512220726 -0.0602512220726 0.99818324482 204.110081830 148.141610697)">FU02</text>
<text  transform="matrix(0.999840212308 0.0178759573494 -0.0178759573494 0.999840212308 210.018704685 148.846157363)">FU03</text>
<text  transform="matrix(0.99944592935 -0.0332841449613 0.0332841449613 0.99944592935 215.958506292 149.826220810)">FU04</text>
<text  transform="matrix(0.998761504531 0.04975396534 -0.04975396534 0.998761504531 209.876203949 155.502732720)">FU05</text>
<text  transform="matrix(0.999572188298 0.029247912434 -0.029247912434 0.999572188298 197.665465220 159.245032369)">FU06</text>
<text  transform="matrix(0.997153525042 -0.0753979276719 0.0753979276719 0.997153525042 226.793496964 160.470903317)">FU07</text>
<text  transform="matrix(0.999814420438 0.0192645966379 -0.0192645966379 0.999814420438 185.427159021 164.752999394)">FU08</text>
<text  transform="matrix(0.999137999248 -0.0415121483236 0.0415121483236 0.999137999248 240.531221238 168.752736473)">FU09</text>
<text  transform="matrix(0.997172679112 0.0751441816345 -0.0751441816345 0.997172679112 195.900523606 172.333055541)">FU10</text>
<text  transform="matrix(0.998959747143 -0.0456006972361 0.0456006972361 0.998959747143 212.554365944 174.378464526)">FU11</text>
<text  transform="matrix(0.99818345235 -0.0602477838082 0.0602477838082 0.99818345235 224.110950343 183.836302606)">FU12</text>
<text  transform="matrix(0.999999986184 0.000166227520181 -0.000166227520181 0.999999986184 166.845377813 173.741181399)">FR01</text>
<text  transform="matrix(0.999848966072 0.0173794431528 -0.0173794431528 0.999848966072 151.616146388 180.557327279)">FR02</text>
<text  transform="matrix(0.996796660598 0.0799776057447 -0.0799776057447 0.996796660598 188.323750237 183.881342521)">FR03</text>
<text  transform="matrix(0.999974682598 0.00711576858572 -0.00711576858572 0.999974682598 148.220101516 191.719559842)">FR04</text>
<text  transform="matrix(0.999683754604 -0.0251473812099 0.0251473812099 0.999683754604 171.099187106 191.511480324)">FR05</text>
<text  transform="matrix(0.998087953491 -0.0618096844808 0.0618096844808 0.998087953491 205.580991440 189.769422739)">FR06</text>
<text  transform="matrix(0.996352039172 0.0853382331559 -0.0853382331559 0.996352039172 184.773123898 203.001042028)">FR07</text>
<text  transform="matrix(0.997272310953 -0.0738101470465 0.0738101470465 0.997272310953 215.780372175 201.423876006)">FR08</text>
<text  transform="matrix(0.997826842715 -0.0658907577484 0.0658907577484 0.997826842715 195.892487456 211.087544826)">FR09</text>
<text  transform="matrix(0.999518944539 0.0310141823605 -0.0310141823605 0.999518944539 226.661135711 210.395952983)">FR10</text>
<text  transform="matrix(0.999951925023 -0.0098054904548 0.0098054904548 0.999951925023 181.953516043 219.206763036)">FR11</text>
<text  transform="matrix(0.999733873198 -0.0230690871336 0.0230690871336 0.999733873198 213.555217759 217.077684576)">FR12</text>
<text  transform="matrix(0.997591289923 0.0693658292647 -0.0693658292647 0.997591289923 201.851577705 222.988356380)">FR13</text>
<text  transform="matrix(0.997200793591 0.0747701629027 -0.0747701629027 0.997200793591 196.850085466 235.422657167)">FR14</text>
<text  transform="matrix(0.998366948739 0.0571264882992 -0.0571264882992 0.998366948739 209.553245753 233.322669202)">FR15</text>
<text  transform="matrix(0.99652221527 -0.0833275133003 0.0833275133003 0.99652221527 233.393590500 88.5263001408)">CR01</text>
<text  transform="matrix(0.9977514654 -0.0670224834766 0.0670224834766 0.9977514654 240.276184643 99.4650293100)">CR02</text>
<text  transform="matrix(0.999184525756 0.0403767691829 -0.0403767691829 0.999184525756 215.343458109 102.769366773)">CR03</text>
<text  transform="matrix(0.999840349479 -0.0178682834568 0.0178682834568 0.999840349479 225.127704598 110.661781009)">CR04</text>
<text  transform="matrix(0.998474096364 0.0552220869721 -0.0552220869721 0.998474096364 237.868018850 111.604580504)">CR05</text>
<text  transform="matrix(0.999894328942 -0.0145372263059 0.0145372263059 0.999894328942 222.332686341 125.732050919)">CR06</text>
<text  transform="matrix(0.999892941221 0.0146323647025 -0.0146323647025 0.999892941221 228.384590207 140.945840866)">CR07</text>
<text  transform="matrix(0.996206287754 -0.0870231707017 0.0870231707017 0.996206287754 234.882989984 152.400039231)">CR08</text>
<text  transform="matrix(0.999172523072 -0.0406727075421 0.0406727075421 0.999172523072 289.136603660 80.3491387386)">FL01</text>
<text  transform="matrix(0.999773549469 -0.0212802674185 0.0212802674185 0.999773549469 279.449164008 87.7455678011)">FL02</text>
<text  transform="matrix(0.999851367601 -0.0172407281037 0.0172407281037 0.999851367601 298.447659603 90.9131722319)">FL03</text>
<text  transform="matrix(0.998363502265 0.0571866885255 -0.0571866885255 0.998363502265 286.553844398 100.971394650)">FL04</text>
<text  transform="matrix(0.996560755083 -0.0828653210237 0.0828653210237 0.996560755083 305.979356574 108.703698690)">FL05</text>
<text  transform="matrix(0.99667534644 -0.0814754797397 0.0814754797397 0.99667534644 288.611759166 116.269779717)">FL06</text>
<text  transform="matrix(0.99982889842 0.0184979427255 -0.0184979427255 0.99982889842 298.682260108 121.073062103)">FL07</text>
<text  transform="matrix(0.999958991395 0.00905624251078 -0.00905624251078 0.999958991395 311.209866999 133.549789992)">FL08</text>
<text  transform="matrix(0.999386283466 -0.0350293650983 0.0350293650983 0.999386283466 303.265915606 145.502821597)">FL09</text>
<text  transform="matrix(0.996478628829 -0.08384713643 0.08384713643 0.996478628829 314.700790245 153.225549952)">FL10</text>
<text  transform="matrix(0.999720754009 0.0236307851015 -0.0236307851015 0.999720754009 303.352836960 158.774562874)">FL11</text>
<text  transform="matrix(0.999513339077 -0.0311943104964 0.0311943104964 0.999513339077 293.014031538 169.404573345)">FL12</text>
<text  transform="matrix(0.998804039058 0.0488926534587 -0.0488926534587 0.998804039058 306.782922442 171.048829957)">FL13</text>
<text  transform="matrix(0.997512458137 0.0704903955205 -0.0704903955205 0.997512458137 291.777605005 184.272754898)">FL14</text>
<text  transform="matrix(0.999147582227 0.041280854278 -0.041280854278 0.999147582227 306.040268136 185.523226096)">FL15</text>
<text  transform="matrix(0.998794968203 0.0490776068394 -0.0490776068394 0.998794968203 247.050867744 76.0249397753)">PA01</text>
<text  transform="matrix(0.999886075956 -0.0150942077903 0.0150942077903 0.999886075956 262.716699666 79.3028519613)">PA02</text>
<text  transform="matrix(0.999852171896 -0.0171940208841 0.0171940208841 0.999852171896 256.969307435 95.9227433494)">PA03</text>
<text  transform="matrix(0.99999984683 -0.000553479869833 0.000553479869833 0.99999984683 273.644573370 106.127770815)">PA04</text>
<text  transform="matrix(0.997899976488 0.0647737363912 -0.0647737363912 0.997899976488 260.652781721 120.234008434)">PA05</text>
<text  transform="matrix(0.999997788977 0.00210286504589 -0.00210286504589 0.999997788977 247.024428117 126.277658824)">PA06</text>
<text  transform="matrix(0.9998525463 -0.0171722350741 0.0171722350741 0.9998525463 273.683445036 135.307946988)">PA07</text>
<text  transform="matrix(0.998927493784 -0.0463018591694 0.0463018591694 0.998927493784 293.477863758 134.602472968)">PA08</text>
<text  transform="matrix(0.999880722057 -0.0154447939143 0.0154447939143 0.999880722057 259.680251751 138.598539520)">PA09</text>
<text  transform="matrix(0.998066143205 0.062160870227 -0.062160870227 0.998066143205 241.911865783 142.985377516)">PA10</text>
<text  transform="matrix(0.99823865663 0.0593260853988 -0.0593260853988 0.99823865663 283.966678465 142.188554397)">PA11</text>
<text  transform="matrix(0.996856470312 -0.0792286412727 0.0792286412727 0.996856470312 268.451482631 148.976166441)">PA12</text>
<text  transform="matrix(0.99999956949 -0.000927911209299 0.000927911209299 0.99999956949 280.670058655 154.654260413)">PA13</text>
<text  transform="matrix(0.999985663981 0.00535460857008 -0.00535460857008 0.999985663981 257.240950162 159.369033438)">PA14</text>
<text  transform="matrix(0.999983076344 0.00581781971917 -0.00581781971917 0.999983076344 256.798116438 172.373665576)">PA15</text>
<text  transform="matrix(0.99990751809 -0.0135998260306 0.0135998260306 0.99990751809 271.796470065 175.828389333)">PA16</text>
<text  transform="matrix(0.999138172371 0.0415079813014 -0.0415079813014 0.999138172371 282.850892230 173.977437919)">PA17</text>
<text  transform="matrix(0.997351264452 0.0727355160554 -0.0727355160554 0.997351264452 280.122162683 188.600465072)">PA18</text>
<text  transform="matrix(0.999851270035 0.0172463854232 -0.0172463854232 0.999851270035 189.428648103 66.4861284206)">GI01</text>
<text  transform="matrix(0.999439577701 0.0334743263687 -0.0334743263687 0.999439577701 170.661386084 74.7074042352)">GI02</text>
<text  transform="matrix(0.998267734898 -0.0588347640624 0.0588347640624 0.998267734898 201.244956897 77.3545624420)">GI03</text>
<text  transform="matrix(0.996852805121 0.0792747432808 -0.0792747432808 0.996852805121 187.657291829 84.6554786602)">GI04</text>
<text  transform="matrix(0.9994944051 -0.031795191042 0.031795191042 0.9994944051 175.182724132 90.0220005377)">GI05</text>
<text  transform="matrix(0.996710268509 0.0810471507712 -0.0810471507712 0.996710268509 206.673357625 90.3450924511)">GI06</text>
<text  transform="matrix(0.996835349434 -0.079493937622 0.079493937622 0.996835349434 192.515584173 97.7210561137)">GI07</text>
<text  transform="matrix(0.999995998566 0.00282893141567 -0.00282893141567 0.999995998566 188.940042815 112.266274721)">GI08</text>
<text  transform="matrix(0.99786847285 -0.065257266962 0.065257266962 0.99786847285 206.737988142 111.574917569)">GI09</text>
<text  transform="matrix(0.99807641059 -0.0619957952026 0.0619957952026 0.99807641059 183.471859363 119.632644074)">GI10</text>
<text  transform="matrix(0.999651753965 -0.0263888384587 0.0263888384587 0.999651753965 197.773202404 124.067637108)">GI11</text>
<text  transform="matrix(0.999139916448 -0.0414659783499 0.0414659783499 0.999139916448 189.545512438 134.874155509)">GI12</text>
<text  transform="matrix(0.999823793986 0.0187718134044 -0.0187718134044 0.999823793986 260.131165563 184.709183770)">SH01</text>
<text  transform="matrix(0.996879464206 -0.0789387980906 0.0789387980906 0.996879464206 239.530938331 185.097820670)">SH02</text>
<text  transform="matrix(0.997775933877 -0.0666572259784 0.0666572259784 0.997775933877 248.805829056 195.902835941)">SH03</text>
<text  transform="matrix(0.999777426719 -0.0210973226434 0.0210973226434 0.999777426719 229.492798606 197.967870252)">SH04</text>
<text  transform="matrix(0.996915994705 0.0784761078356 -0.0784761078356 0.996915994705 272.203095535 197.483894544)">SH05</text>
<text  transform="matrix(0.996432673181 0.0843915150849 -0.0843915150849 0.996432673181 239.173290100 203.240394791)">SH06</text>
<text  transform="matrix(0.999890165026 -0.0148208597841 0.0148208597841 0.999890165026 262.932328216 208.772532989)">OV01</text>
<text  transform="matrix(0.997316060728 0.0732166307153 -0.0732166307153 0.997316060728 296.225291382 206.336192410)">OV02</text>
<text  transform="matrix(0.999312606931 0.0370717362415 -0.0370717362415 0.999312606931 280.751221002 210.456444742)">OV03</text>
<text  transform="matrix(0.999998059966 -0.00196978764655 0.00196978764655 0.999998059966 238.689649565 218.789059348)">OV04</text>
<text  transform="matrix(0.997968299315 0.0637124286366 -0.0637124286366 0.997968299315 271.366440533 220.536933668)">OV05</text>
<text  transform="matrix(0.998064343487 -0.0621897600899 0.0621897600899 0.998064343487 228.755384565 230.008626169)">OV06</text>
<text  transform="matrix(0.996349637932 0.0853662637893 -0.0853662637893 0.996349637932 257.821811900 231.720141559)">OV07</text>
<text  transform="matrix(0.996616630997 0.0821905762214 -0.0821905762214 0.996616630997 275.740977308 231.604295803)">OV08</text>
<text  transform="matrix(0.998484860186 -0.0550271203955 0.0550271203955 0.998484860186 242.513401176 234.718223646)">OV09</text>
<text  transform="matrix(0.996388627211 0.0849099732915 -0.0849099732915 0.996388627211 221.448982719 242.575692638)">OV10</text>
<text  transform="matrix(0.997699779871 -0.0677875301675 0.0677875301675 0.997699779871 242.056221414 248.511936074)">OV11</text>
<text  transform="matrix(0.996510499239 -0.0834675080896 0.0834675080896 0.996510499239 206.169449890 252.013601603)">OV12</text>
<text  transform="matrix(0.998923152869 0.0463954164023 -0.0463954164023 0.998923152869 192.390497567 253.482369227)">OV13</text>
<text  transform="matrix(0.999856843064 0.0169202062002 -0.0169202062002 0.999856843064 229.174041211 253.289851788)">OV14</text>
<text  transform="matrix(0.997594205122 0.0693238913181 -0.0693238913181 0.997594205122 160.362260170 83.7582648431)">RH01</text>
<text  transform="matrix(0.999860011433 -0.0167319316506 0.0167319316506 0.999860011433 155.498015051 96.3415162486)">RH02</text>
<text  transform="matrix(0.998454632062 -0.0555729045005 0.0555729045005 0.998454632062 146.066560872 104.486573013)">RH03</text>
<text  transform="matrix(0.998740337886 -0.0501770612771 0.0501770612771 0.998740337886 175.515297586 102.968289328)">RH04</text>
<text  transform="matrix(0.999916862119 0.0128945279264 -0.0128945279264 0.999916862119 161.238017904 108.165167148)">RH05</text>
<text  transform="matrix(0.998375610497 0.0569749099597 -0.0569749099597 0.998375610497 140.803031740 117.423920114)">RH06</text>
<text  transform="matrix(0.997511626988 -0.0705021561695 0.0705021561695 0.997511626988 162.783108977 120.443419497)">RH07</text>
<text  transform="matrix(0.999938788514 -0.0110643221679 0.0110643221679 0.999938788514 146.993161063 127.245931311)">RH08</text>
<text  transform="matrix(0.999966034566 -0.00824194842068 0.00824194842068 0.999966034566 166.623642077 134.531339792)">RH09</text>
<text  transform="matrix(0.999680571813 -0.025273589776 0.025273589776 0.999680571813 152.762201069 137.493297280)">RH10</text>
<text  transform="matrix(0.999802798199 -0.019858618107 0.019858618107 0.999802798199 178.743276929 143.299435468)">RH11</text>
<text  transform="matrix(0.999101086605 -0.042391257869 0.042391257869 0.999101086605 140.296473421 146.795539551)">RH12</text>
<text  transform="matrix(0.997733522543 0.067289062956 -0.067289062956 0.997733522543 166.203656524 148.706192070)">RH13</text>
<text  transform="matrix(0.998125784356 -0.0611957400855 0.0611957400855 0.998125784356 157.601433583 160.772244830)">RH14</text>
<text  transform="matrix(0.999039250901 -0.0438243671921 0.0438243671921 0.999039250901 133.640919060 162.362173746)">RH15</text>
<text  transform="matrix(0.998693887776 0.0510932336005 -0.0510932336005 0.998693887776 145.766592344 168.601627552)">RH16</text>
<text  transform="matrix(0.99721413332 0.0745920391708 -0.0745920391708 0.99721413332 185.291714506 48.5022911395)">AS01</text>
<text  transform="matrix(0.997749942184 -0.0670451554658 0.0670451554658 0.997749942184 207.958951542 46.1075241822)">AS02</text>
<text  transform="matrix(0.999901100549 0.0140637520433 -0.0140637520433 0.999901100549 224.018029684 54.2753297988)">AS03</text>
<text  transform="matrix(0.999963086366 0.0085922002113 -0.0085922002113 0.999963086366 172.550120287 57.2334072501)">AS04</text>
<text  transform="matrix(0.996300386147 -0.0859391678051 0.0859391678051 0.996300386147 257.168909383 58.5572457827)">AS05</text>
<text  transform="matrix(0.998460039069 0.0554756737965 -0.0554756737965 0.998460039069 156.243820438 62.4650127926)">AS06</text>
<text  transform="matrix(0.998671753094 -0.0515240678859 0.0515240678859 0.998671753094 205.499346503 64.3071276489)">AS07</text>
<text  transform="matrix(0.997685530668 -0.0679969256401 0.0679969256401 0.997685530668 241.822032666 61.0946899129)">AS08</text>
<text  transform="matrix(0.998376427878 0.0569605851228 -0.0569605851228 0.998376427878 272.699844659 65.1768246371)">AS09</text>
<text  transform="matrix(0.996482014495 -0.0838068898553 0.0838068898553 0.996482014495 234.287277819 74.4057558567)">AS10</text>
<text  transform="matrix(0.996708805896 0.081065135841 -0.081065135841 0.996708805896 219.842821414 77.8839055307)">AS11</text>
<text  transform="matrix(0.999640432838 -0.0268142692488 0.0268142692488 0.999640432838 140.076970972 68.6552586718)">MA01</text>
<text  transform="matrix(0.99880343006 0.0489050927881 -0.0489050927881 0.99880343006 132.093060626 88.8634853223)">MA02</text>
<text  transform="matrix(0.997012006254 -0.0772467435223 0.0772467435223 0.997012006254 144.599095006 88.3809178726)">MA03</text>
<text  transform="matrix(0.999862256793 -0.0165972118672 0.0165972118672 0.999862256793 117.829439486 99.9709907401)">MA04</text>
<text  transform="matrix(0.99762007168 -0.0689506532288 0.0689506532288 0.99762007168 127.947367839 111.670298652)">MA05</text>
<text  transform="matrix(0.999775686942 -0.0211796081057 0.0211796081057 0.999775686942 115.793097813 122.601001658)">MA06</text>
<text  transform="matrix(0.999034198365 0.0439393957363 -0.0439393957363 0.999034198365 133.424817834 130.852863178)">MA07</text>
<text  transform="matrix(0.999721746543 -0.0235887576745 0.0235887576745 0.999721746543 104.657353064 136.097621210)">MA08</text>
<text  transform="matrix(0.998660707085 -0.0517377243914 0.0517377243914 0.998660707085 120.407088606 139.902769317)">MA09</text>
<text  transform="matrix(0.997962472559 0.0638036312699 -0.0638036312699 0.997962472559 119.783964661 152.938883201)">MA10</text>
<text  transform="matrix(0.997497702902 0.070698887576 -0.070698887576 0.997497702902 107.805258482 157.572635058)">MA11</text>
<text  transform="matrix(0.998581345844 0.0532474950799 -0.0532474950799 0.998581345844 120.467757789 166.655004225)">MA12</text>
<text  transform="matrix(0.997841522591 -0.0656680728547 0.0656680728547 0.997841522591 133.544620687 176.235537436)">MA13</text>
<text  transform="matrix(0.997703392467 0.0677343388498 -0.0677343388498 0.997703392467 108.778425222 177.064143802)">MA14</text>
<text  transform="matrix(0.99651509865 0.0834125779654 -0.0834125779654 0.99651509865 122.173198768 189.880582107)">DR01</text>
<text  transform="matrix(0.999983513519 -0.00574218519206 0.00574218519206 0.999983513519 137.467887707 201.087208896)">DR02</text>
<text  transform="matrix(0.999689763273 -0.024907372538 0.024907372538 0.999689763273 152.892471476 201.539340833)">DR03</text>
<text  transform="matrix(0.997594427644 -0.0693206890729 0.0693206890729 0.997594427644 143.430372297 212.356055005)">DR04</text>
<text  transform="matrix(0.999821530434 0.0188919898272 -0.0188919898272 0.999821530434 169.417660963 210.620828492)">DR05</text>
<text  transform="matrix(0.999105344605 -0.0422907836512 0.0422907836512 0.999105344605 156.270951159 215.368315661)">DR06</text>
<text  transform="matrix(0.998234092416 0.0594028344381 -0.0594028344381 0.998234092416 132.157223139 219.945030140)">DR07</text>
<text  transform="matrix(0.999245226233 0.0388455641057 -0.0388455641057 0.999245226233 147.390125168 228.778244774)">DR08</text>
<text  transform="matrix(0.999821325552 -0.0189028297396 0.0189028297396 0.999821325552 172.297834616 233.553829947)">DR09</text>
<text  transform="matrix(0.997043460023 -0.0768396956346 0.0768396956346 0.997043460023 158.714590893 239.597521659)">DR10</text>
<text  transform="matrix(0.996259272079 0.0864144825668 -0.0864144825668 0.996259272079 185.037066478 240.050370432)">DR11</text>
<text  transform="matrix(0.999946309948 -0.0103622980901 0.0103622980901 0.999946309948 178.133314088 250.043888133)">DR12</text>
</svg>