<?xml version="1.0" encoding="utf-8"?>
<!-- Generator: Grasshopper 1.0.0, Redback Plugin. SVG Version: 6.00 Build 0) Made by Andrew Butler at Cox Architecture -->
<!DOCTYPE svg PUBLIC "-//W3C//DTD SVG 1.1//EN" "http://www.w3.org/Graphics/SVG/1.1/DTD/svg11.dtd">
<svg version="1.1" xmlns="http://www.w3.org/2000/svg" xmlns:xlink="http://www.w3.org/1999/xlink" x="0px" y="0px"
width="420.0mm" height="297.0mm" viewBox="0 0 420.0 297.0" xml:space="preserve">
<style type="text/css">
.curve{
fill:None;
stroke:#000;
stroke-width:0.05px;
stroke-linecap:round;
}
.thick-hatch{
stroke-width:0.1px;
}
.bold-hatch{
stroke-width:0.2px;
}
.thin-hatch{
stroke-width:0.025px;
}
.thick-road{
stroke-width:0.8px;
}
</style>
<polygon points="42.79,218.39 44.16,220.69 45.37,219.96 46.59,219.25 47.81,218.54 49.06,217.81 50.24,217.13 51.43,216.46 52.62,215.78 53.86,215.09 55.00,214.45 56.14,213.82 57.29,213.20 58.52,212.53 59.60,211.95 60.69,211.37 61.78,210.79 62.99,210.16 63.98,209.65 64.97,209.14 65.97,208.63 67.11,208.05 68.10,207.56 69.25,206.99 70.24,206.50 71.23,206.02 72.22,205.54 73.42,204.97 74.37,204.53 75.32,204.08 76.27,203.64 77.45,203.10 78.35,202.69 79.26,202.29 80.16,201.89 81.34,201.37 82.20,201.00 83.05,200.64 83.92,200.27 85.09,199.78 85.91,199.44 86.72,199.11 87.54,198.78 88.72,198.31 89.49,198.00 90.27,197.70 91.05,197.40 92.22,196.96 92.95,196.68 93.69,196.41 94.42,196.14 95.60,195.72 96.29,195.47 96.99,195.23 97.68,194.99 98.86,194.59 100.17,194.15 101.49,193.72 102.01,193.56 103.25,193.17 104.49,192.79 105.05,192.62 106.20,192.28 107.35,191.95 107.96,191.77 109.04,191.48 110.11,191.19 110.76,191.01 111.76,190.75 112.76,190.50 113.46,190.33 114.38,190.11 115.31,189.89 116.55,189.60 117.75,189.34 118.93,189.08 120.10,188.84 121.24,188.62 122.35,188.40 123.45,188.20 124.52,188.00 125.56,187.82 126.58,187.65 127.57,187.49 128.55,187.33 129.51,187.18 131.38,186.90 135.40,186.30 137.08,186.05 138.00,185.90 138.76,185.78 139.49,185.65 140.20,185.53 140.89,185.40 141.56,185.26 142.21,185.12 142.84,184.98 143.45,184.83 144.05,184.68 144.34,184.60 144.62,184.52 144.90,184.44 145.22,184.34 145.80,184.15 146.24,184.00 146.74,183.81 146.93,183.74 147.23,183.62 147.48,183.51 147.70,183.41 148.02,183.27 148.38,183.09 148.60,182.98 148.82,182.87 149.05,182.74 149.25,182.63 149.54,182.46 149.86,182.26 150.02,182.16 150.26,182.00 150.49,181.85 150.65,181.74 151.03,181.46 151.21,181.32 151.41,181.17 151.59,181.02 151.82,180.84 152.13,180.57 152.49,180.25 152.64,180.11 152.83,179.93 153.03,179.74 153.17,179.59 153.41,179.35 153.60,179.15 153.84,178.89 154.15,178.55 154.31,178.35 154.50,178.13 154.81,177.76 155.18,177.28 155.45,176.93 155.71,176.58 156.06,176.07 156.29,175.74 156.44,175.51 156.65,175.19 156.86,174.87 157.04,174.58 157.23,174.28 157.42,173.97 157.61,173.64 157.96,173.05 158.25,172.54 158.48,172.13 158.78,171.58 159.31,170.61 159.97,169.37 160.96,167.49 161.48,166.50 162.02,165.51 162.41,164.81 162.78,164.16 163.13,163.56 163.36,163.17 163.71,162.60 163.96,162.19 164.30,161.66 164.59,161.22 164.92,160.73 165.24,160.27 165.59,159.79 165.92,159.36 166.33,158.82 166.65,158.44 166.96,158.05 167.12,157.87 167.33,157.64 167.54,157.40 167.71,157.21 167.96,156.95 168.10,156.80 168.50,156.39 168.91,156.00 169.12,155.81 169.33,155.61 169.57,155.40 169.81,155.19 170.01,155.02 170.31,154.77 170.67,154.49 170.82,154.37 171.14,154.13 171.35,153.97 171.62,153.78 171.90,153.59 172.11,153.45 172.46,153.22 172.62,153.12 173.15,152.80 173.39,152.65 173.69,152.49 173.97,152.34 174.26,152.18 174.54,152.04 174.90,151.86 175.15,151.74 175.55,151.56 176.01,151.36 176.22,151.27 176.64,151.10 176.91,150.99 177.28,150.86 177.62,150.74 177.98,150.62 178.31,150.50 178.54,150.43 179.01,150.29 179.19,150.24 179.86,150.05 180.54,149.88 180.85,149.80 181.23,149.71 181.57,149.64 181.94,149.56 182.31,149.49 182.67,149.41 183.04,149.35 183.45,149.27 183.80,149.21 184.23,149.15 185.02,149.03 185.74,148.93 186.56,148.83 187.39,148.75 188.24,148.67 188.78,148.63 189.08,148.61 189.30,148.60 189.51,148.59 189.72,148.59 189.93,148.59 190.15,148.59 190.37,148.60 190.58,148.61 190.80,148.62 191.02,148.64 191.24,148.67 191.45,148.69 191.67,148.72 191.94,148.76 192.20,148.81 192.48,148.86 192.76,148.92 193.04,148.99 193.31,149.06 193.59,149.14 193.86,149.22 194.13,149.31 194.46,149.43 194.54,149.46 195.20,149.70 195.85,149.93 196.49,150.16 197.12,150.37 197.74,150.57 198.35,150.76 199.19,151.02 199.54,151.12 200.31,151.34 200.70,151.44 201.40,151.62 201.84,151.73 202.47,151.88 202.94,151.99 203.52,152.11 204.03,152.22 204.54,152.32 205.10,152.42 205.55,152.50 206.16,152.60 206.69,152.68 207.21,152.76 207.74,152.83 208.48,152.92 208.79,152.95 209.44,153.02 209.84,153.06 210.38,153.10 210.90,153.15 211.44,153.18 212.29,153.24 213.24,153.29 213.62,153.31 214.75,153.36 216.14,153.41 219.91,153.53 220.98,153.56 222.38,153.62 223.10,153.66 224.07,153.71 225.26,153.78 226.16,153.84 227.13,153.91 227.79,153.96 228.64,154.03 229.51,154.11 229.73,154.13 229.96,154.16 230.18,154.19 230.40,154.22 230.63,154.26 230.85,154.31 231.08,154.35 231.30,154.40 231.53,154.46 231.76,154.52 231.98,154.58 232.21,154.65 232.51,154.75 233.11,154.95 233.62,155.13 234.13,155.31 234.98,155.62 235.62,155.86 236.31,156.13 237.31,156.52 237.75,156.70 238.28,156.92 238.76,157.12 239.36,157.38 239.75,157.56 240.36,157.84 241.04,158.15 241.35,158.30 241.91,158.58 242.30,158.77 242.75,159.00 243.23,159.26 243.56,159.43 244.14,159.75 244.68,160.06 245.09,160.31 245.45,160.52 245.85,160.78 246.17,160.98 246.66,161.31 247.09,161.60 247.44,161.85 247.67,162.02 247.92,162.22 248.22,162.45 248.49,162.66 248.88,162.98 249.25,163.30 249.54,163.55 249.73,163.73 249.93,163.91 250.19,164.16 250.40,164.37 250.68,164.65 250.85,164.84 251.03,165.03 251.20,165.21 251.42,165.47 251.68,165.77 251.97,166.12 252.15,166.35 252.32,166.57 252.58,166.91 252.81,167.24 252.98,167.48 253.11,167.68 253.40,168.13 253.55,168.36 253.71,168.63 253.95,169.04 254.20,169.50 254.45,169.96 254.68,170.43 254.91,170.90 255.16,171.46 255.41,172.02 255.64,172.57 255.91,173.26 256.07,173.66 256.28,174.22 256.68,175.27 257.35,177.11 257.72,178.10 258.02,178.87 258.22,179.37 258.43,179.86 258.64,180.34 258.86,180.85 258.98,181.11 259.27,181.71 259.51,182.19 259.74,182.62 259.87,182.86 260.02,183.12 260.31,183.63 260.53,183.98 260.80,184.41 260.94,184.62 261.08,184.83 261.37,185.25 261.67,185.66 261.83,185.87 262.01,186.11 262.30,186.47 262.63,186.86 262.82,187.08 262.97,187.25 263.32,187.64 263.50,187.83 263.71,188.05 264.06,188.39 264.44,188.76 264.69,188.99 264.84,189.13 265.25,189.49 265.46,189.67 265.77,189.92 266.11,190.20 266.34,190.38 266.57,190.55 267.04,190.90 267.28,191.08 267.57,191.28 268.04,191.60 268.23,191.73 268.56,191.94 268.91,192.16 269.11,192.29 269.68,192.63 269.97,192.80 270.37,193.02 270.89,193.31 271.14,193.44 271.53,193.65 271.94,193.86 272.19,193.98 272.88,194.32 273.24,194.49 273.64,194.67 273.99,194.83 274.52,195.07 275.13,195.33 275.43,195.45 275.94,195.66 276.37,195.84 276.77,195.99 277.34,196.21 278.08,196.49 278.66,196.70 279.44,196.97 280.38,197.29 281.19,197.55 281.77,197.73 282.85,198.06 283.68,198.30 284.71,198.58 285.07,198.68 285.77,198.86 286.20,198.97 286.85,199.14 287.35,199.26 287.94,199.40 288.52,199.53 289.05,199.65 289.70,199.79 290.17,199.89 290.89,200.04 291.31,200.12 292.11,200.27 293.05,200.45 293.63,200.55 294.81,200.75 295.41,200.84 296.00,200.93 296.53,201.01 297.20,201.10 297.76,201.17 298.31,201.25 298.94,201.32 299.63,201.40 300.25,201.47 300.86,201.53 301.48,201.59 302.14,201.65 302.78,201.71 303.43,201.76 304.01,201.80 304.72,201.84 305.32,201.88 305.91,201.91 306.51,201.93 307.30,201.96 307.95,201.98 308.60,202.00 309.11,202.01 309.89,202.01 310.45,202.02 311.01,202.01 311.57,202.01 312.49,201.99 313.39,201.96 313.80,201.95 314.65,201.91 315.09,201.89 315.91,201.84 316.37,201.80 317.15,201.74 317.65,201.70 318.39,201.63 318.93,201.58 319.62,201.50 320.20,201.43 320.85,201.35 321.46,201.26 322.07,201.18 322.72,201.07 323.27,200.98 323.98,200.86 324.48,200.76 325.21,200.62 325.68,200.52 326.44,200.36 326.85,200.27 327.25,200.17 327.65,200.07 328.01,199.98 328.43,199.88 329.16,199.68 329.57,199.56 330.29,199.35 330.72,199.22 331.36,199.02 331.84,198.86 332.46,198.65 332.96,198.47 333.55,198.25 334.06,198.05 334.61,197.83 335.14,197.61 335.69,197.38 336.19,197.15 336.78,196.88 337.24,196.66 337.85,196.35 338.26,196.14 338.68,195.91 338.89,195.80 339.27,195.59 339.64,195.38 339.92,195.21 340.25,195.01 340.58,194.81 340.92,194.59 341.21,194.41 341.50,194.22 341.90,193.95 342.39,193.61 342.85,193.27 343.26,192.97 343.52,192.77 343.78,192.56 344.10,192.31 344.39,192.07 344.69,191.82 344.92,191.62 345.24,191.34 345.56,191.05 345.71,190.91 346.05,190.58 346.47,190.17 346.84,189.79 347.21,189.40 345.25,187.59 344.89,187.97 344.44,188.43 344.10,188.76 343.75,189.09 343.60,189.23 343.28,189.51 342.95,189.79 342.72,189.99 342.42,190.24 342.13,190.47 341.80,190.73 341.54,190.93 341.27,191.13 340.86,191.42 340.39,191.75 340.15,191.92 339.90,192.08 339.49,192.35 339.20,192.53 338.91,192.71 338.56,192.92 338.23,193.11 337.89,193.30 337.61,193.46 337.23,193.67 336.85,193.87 336.63,193.98 336.21,194.19 335.64,194.47 335.17,194.68 334.61,194.93 334.11,195.15 333.57,195.38 333.04,195.59 332.48,195.80 331.96,195.99 331.34,196.21 330.84,196.38 330.19,196.59 329.71,196.74 329.02,196.95 328.59,197.07 328.15,197.19 327.42,197.38 326.69,197.56 326.27,197.66 325.85,197.76 325.48,197.84 325.08,197.92 324.68,198.01 324.26,198.09 323.50,198.23 323.03,198.32 322.30,198.44 321.79,198.52 321.08,198.62 320.53,198.70 319.87,198.79 319.26,198.86 318.65,198.93 317.99,198.99 317.42,199.05 316.72,199.10 316.18,199.14 315.44,199.19 314.94,199.22 314.15,199.26 313.69,199.28 312.87,199.31 312.43,199.32 311.58,199.34 311.16,199.35 310.27,199.35 309.35,199.34 308.79,199.34 308.23,199.32 307.39,199.30 306.88,199.28 306.37,199.26 305.73,199.23 304.88,199.18 304.28,199.14 303.69,199.10 303.09,199.06 302.37,199.00 301.79,198.94 301.21,198.89 300.56,198.82 299.88,198.75 299.26,198.68 298.65,198.60 298.03,198.52 297.36,198.43 296.73,198.34 296.10,198.25 295.55,198.16 294.84,198.05 294.32,197.96 293.80,197.87 293.20,197.76 292.36,197.61 291.44,197.43 290.85,197.31 289.92,197.11 289.13,196.93 288.71,196.84 287.99,196.67 287.52,196.55 286.88,196.39 286.35,196.26 285.78,196.11 285.19,195.95 284.70,195.81 284.05,195.63 283.62,195.50 282.93,195.30 282.57,195.19 281.83,194.95 281.55,194.86 280.55,194.53 280.10,194.38 279.57,194.19 279.09,194.02 278.29,193.72 277.59,193.45 276.98,193.21 276.46,193.00 276.03,192.81 275.59,192.63 275.30,192.50 274.75,192.25 274.36,192.07 273.93,191.87 273.44,191.63 272.85,191.33 272.40,191.09 272.05,190.91 271.67,190.70 271.33,190.50 270.88,190.24 270.60,190.07 270.33,189.90 270.09,189.75 269.70,189.50 269.34,189.26 269.10,189.10 268.86,188.93 268.53,188.69 268.25,188.48 267.93,188.24 267.69,188.05 267.46,187.86 267.28,187.71 266.97,187.45 266.67,187.18 266.49,187.03 266.29,186.84 266.05,186.61 265.83,186.40 265.54,186.10 265.22,185.76 265.02,185.55 264.83,185.33 264.46,184.90 264.29,184.68 264.09,184.43 263.93,184.23 263.66,183.87 263.47,183.59 263.27,183.30 263.03,182.95 262.88,182.71 262.74,182.49 262.55,182.18 262.34,181.81 262.23,181.61 262.09,181.36 261.85,180.90 261.62,180.45 261.38,179.93 261.12,179.37 260.88,178.82 260.65,178.27 260.40,177.63 260.21,177.15 260.02,176.65 259.63,175.59 258.97,173.78 258.68,173.01 258.39,172.28 258.19,171.77 257.99,171.27 257.77,170.76 257.55,170.26 257.28,169.67 257.03,169.17 256.81,168.74 256.69,168.49 256.55,168.23 256.41,167.98 256.27,167.72 255.97,167.22 255.82,166.96 255.66,166.71 255.50,166.47 255.22,166.04 254.93,165.62 254.63,165.20 254.47,164.99 254.25,164.70 253.99,164.38 253.85,164.21 253.66,163.98 253.32,163.58 252.96,163.19 252.78,162.99 252.53,162.73 252.22,162.42 252.05,162.25 251.83,162.04 251.43,161.67 251.22,161.48 251.01,161.29 250.79,161.11 250.45,160.82 250.14,160.56 249.87,160.35 249.67,160.20 249.19,159.83 248.95,159.65 248.63,159.42 248.18,159.12 247.96,158.97 247.65,158.76 247.09,158.40 246.80,158.23 246.46,158.02 245.91,157.70 245.66,157.55 245.29,157.34 244.64,156.99 244.31,156.81 243.93,156.61 243.56,156.42 243.10,156.19 242.40,155.85 241.59,155.46 241.25,155.31 240.76,155.09 240.30,154.88 239.90,154.71 239.32,154.46 239.00,154.33 238.09,153.96 237.15,153.59 236.67,153.40 236.09,153.19 235.02,152.80 233.94,152.42 232.83,152.04 232.63,151.98 232.30,151.87 231.98,151.74 231.73,151.64 231.48,151.54 231.23,151.43 230.98,151.31 230.95,151.29 230.13,150.90 229.28,150.49 228.45,150.10 227.63,149.71 226.65,149.26 226.07,149.00 225.31,148.66 224.31,148.22 223.75,147.97 223.13,147.71 222.43,147.42 221.57,147.06 221.08,146.87 220.42,146.61 219.77,146.36 219.13,146.13 218.51,145.91 217.96,145.72 217.29,145.49 216.88,145.36 216.47,145.24 215.81,145.04 215.17,144.86 214.58,144.70 214.22,144.61 213.82,144.52 213.27,144.39 212.71,144.28 212.17,144.17 211.63,144.07 211.09,143.99 210.45,143.90 210.02,143.85 209.49,143.79 208.96,143.74 208.43,143.71 207.90,143.68 207.37,143.66 206.84,143.65 206.31,143.65 205.63,143.66 205.25,143.67 204.94,143.68 204.63,143.70 204.18,143.73 203.61,143.77 203.09,143.81 202.57,143.87 201.98,143.93 201.50,143.99 200.85,144.08 200.41,144.14 199.70,144.25 199.29,144.32 198.51,144.45 197.90,144.56 196.95,144.74 195.73,144.99 194.46,145.25 193.19,145.53 192.91,145.59 192.63,145.64 192.34,145.69 192.06,145.73 191.78,145.76 191.49,145.79 191.21,145.81 190.92,145.83 190.39,145.85 189.51,145.90 188.65,145.96 187.80,146.03 186.95,146.11 185.94,146.22 185.14,146.32 184.34,146.43 183.57,146.55 182.88,146.67 182.53,146.73 182.13,146.80 181.77,146.87 181.40,146.95 181.03,147.03 180.64,147.11 180.30,147.19 179.90,147.29 179.59,147.37 179.17,147.48 178.45,147.68 177.93,147.83 177.74,147.89 177.28,148.04 177.06,148.11 176.65,148.25 176.34,148.36 176.02,148.48 175.66,148.62 175.38,148.73 174.97,148.90 174.76,148.99 174.30,149.20 173.90,149.38 173.57,149.54 173.29,149.68 173.00,149.83 172.72,149.98 172.39,150.16 172.14,150.30 171.79,150.50 171.37,150.76 171.21,150.86 170.86,151.08 170.64,151.22 170.36,151.41 170.09,151.60 169.87,151.75 169.55,151.99 169.40,152.10 168.93,152.46 168.52,152.79 168.28,152.99 168.02,153.21 167.81,153.39 167.54,153.63 167.08,154.06 166.77,154.35 166.37,154.75 166.19,154.94 165.97,155.17 165.59,155.58 165.26,155.95 164.85,156.42 164.50,156.84 164.14,157.29 163.80,157.73 163.43,158.23 163.12,158.66 162.73,159.21 162.46,159.61 162.07,160.21 161.82,160.58 161.44,161.19 161.22,161.55 160.84,162.20 160.43,162.89 160.25,163.21 159.88,163.87 159.69,164.22 159.14,165.23 158.60,166.24 157.17,168.96 156.57,170.07 156.37,170.44 156.04,171.04 155.85,171.37 155.49,171.99 155.12,172.61 154.78,173.17 154.56,173.52 154.22,174.03 153.98,174.40 153.65,174.86 153.37,175.25 153.06,175.66 152.90,175.87 152.75,176.07 152.40,176.49 152.22,176.69 152.05,176.90 151.82,177.15 151.68,177.30 151.49,177.50 151.30,177.70 151.15,177.84 150.81,178.17 150.46,178.49 150.29,178.64 150.08,178.81 149.91,178.95 149.65,179.16 149.36,179.38 149.20,179.49 148.97,179.65 148.74,179.81 148.58,179.92 148.26,180.11 147.97,180.29 147.75,180.41 147.54,180.53 147.26,180.67 147.00,180.80 146.74,180.92 146.42,181.06 146.19,181.16 145.94,181.26 145.64,181.38 145.45,181.45 144.94,181.63 144.42,181.80 143.91,181.95 143.60,182.04 143.31,182.12 142.70,182.27 142.07,182.42 141.43,182.56 140.77,182.70 140.10,182.83 139.42,182.96 138.71,183.08 137.99,183.20 137.26,183.32 135.89,183.53 134.04,183.81 130.91,184.27 129.10,184.54 128.13,184.69 127.14,184.85 126.14,185.02 125.11,185.19 124.05,185.38 122.97,185.57 121.86,185.78 120.72,186.00 119.57,186.23 118.38,186.47 117.19,186.73 115.96,187.00 114.70,187.29 113.97,187.46 113.04,187.69 112.12,187.91 111.43,188.09 110.42,188.35 109.43,188.61 108.78,188.78 107.70,189.08 106.63,189.38 106.02,189.55 104.86,189.89 103.71,190.24 103.15,190.41 101.91,190.79 100.67,191.18 100.15,191.35 98.83,191.79 97.52,192.23 96.34,192.63 95.65,192.87 94.26,193.37 93.09,193.79 92.35,194.06 91.62,194.34 90.49,194.76 89.71,195.06 88.93,195.36 88.15,195.67 87.03,196.11 86.21,196.44 85.39,196.77 84.57,197.11 83.44,197.58 82.58,197.94 81.72,198.31 80.86,198.68 79.72,199.17 78.82,199.57 77.92,199.97 77.01,200.37 75.88,200.89 74.92,201.33 73.97,201.77 73.02,202.21 71.88,202.75 70.88,203.23 69.89,203.71 68.89,204.19 67.74,204.76 66.75,205.25 65.62,205.82 64.62,206.32 63.63,206.83 62.63,207.34 61.52,207.92 60.43,208.49 59.34,209.07 58.25,209.65 57.08,210.28 55.93,210.90 54.79,211.52 53.65,212.15 52.45,212.82 51.26,213.49 50.07,214.16 48.89,214.84 47.67,215.53 46.45,216.24 45.23,216.96 44.01,217.67" />
</svg>