<?xml version="1.0" encoding="utf-8"?>
<!-- Generator: Grasshopper 1.0.0, Redback Plugin. SVG Version: 6.00 Build 0) Made by Andrew Butler at Cox Architecture -->
<!DOCTYPE svg PUBLIC "-//W3C//DTD SVG 1.1//EN" "http://www.w3.org/Graphics/SVG/1.1/DTD/svg11.dtd">
<svg version="1.1" xmlns="http://www.w3.org/2000/svg" xmlns:xlink="http://www.w3.org/1999/xlink" x="0px" y="0px"
width="420.0mm" height="297.0mm" viewBox="0 0 420.0 297.0" xml:space="preserve">
<style type="text/css">
.curve{
fill:None;
stroke:#000;
stroke-width:0.05px;
stroke-linecap:round;
}
.thick-hatch{
stroke-width:0.1px;
}
.bold-hatch{
stroke-width:0.2px;
}
.thin-hatch{
stroke-width:0.025px;
}
.thick-road{
stroke-width:0.8px;
}
</style>
<polyline points="102.27,262.90 102.27,148.50 102.27,34.10" class="curve thick-hatch"/>
<polyline points="126.21,262.90 126.21,148.50 126.21,34.10" class="curve thick-hatch"/>
<polyline points="150.15,262.90 150.15,148.50 150.15,34.10" class="curve thick-hatch"/>
<polyline points="174.09,262.90 174.09,148.50 174.09,34.10" class="curve thick-hatch"/>
<polyline points="198.03,262.90 198.03,148.50 198.03,34.10" class="curve thick-hatch"/>
<polyline points="221.97,262.90 221.97,148.50 221.97,34.10" class="curve thick-hatch"/>
<polyline points="245.91,262.90 245.91,148.50 245.91,34.10" class="curve thick-hatch"/>
<polyline points="269.85,262.90 269.85,148.50 269.85,34.10" class="curve thick-hatch"/>
<polyline points="293.79,262.90 293.79,148.50 293.79,34.10" class="curve thick-hatch"/>
<polyline points="317.73,262.90 317.73,148.50 317.73,34.10" class="curve thick-hatch"/>
<polyline points="95.60,256.23 210.00,256.23 324.40,256.23" class="curve thick-hatch"/>
<polyline points="95.60,232.29 210.00,232.29 324.40,232.29" class="curve thick-hatch"/>
<polyline points="95.60,208.35 210.00,208.35 324.40,208.35" class="curve thick-hatch"/>
<polyline points="95.60,184.41 210.00,184.41 324.40,184.41" class="curve thick-hatch"/>
<polyline points="95.60,160.47 210.00,160.47 324.40,160.47" class="curve thick-hatch"/>
<polyline points="95.60,136.53 210.00,136.53 324.40,136.53" class="curve thick-hatch"/>
<polyline points="95.60,112.59 210.00,112.59 324.40,112.59" class="curve thick-hatch"/>
<polyline points="95.60,88.65 210.00,88.65 324.40,88.65" class="curve thick-hatch"/>
<polyline points="95.60,64.71 210.00,64.71 324.40,64.71" class="curve thick-hatch"/>
<polyline points="95.60,40.77 210.00,40.77 324.40,40.77" class="curve thick-hatch"/>
<polyline points="101.60,40.10 101.60,148.50 101.60,256.90" class="curve thick-hatch"/>
<polyline points="101.60,256.90 210.00,256.90 318.40,256.90" class="curve thick-hatch"/>
<polyline points="318.40,256.90 318.40,148.50 318.40,40.10" class="curve thick-hatch"/>
<polyline points="318.40,40.10 210.00,40.10 101.60,40.10" class="curve thick-hatch"/>
<polyline points="102.53,41.03 102.53,148.50 102.53,255.97" class="curve thick-hatch"/>
<polyline points="102.53,255.97 210.00,255.97 317.47,255.97" class="curve thick-hatch"/>
<polyline points="317.47,255.97 317.47,148.50 317.47,41.03" class="curve thick-hatch"/>
<polyline points="317.47,41.03 210.00,41.03 102.53,41.03" class="curve thick-hatch"/>
</svg>