<?xml version="1.0" encoding="utf-8"?>
<!-- Generator: Grasshopper 1.0.0, Redback Plugin. SVG Version: 6.00 Build 0) Made by Andrew Butler at Cox Architecture -->
<!DOCTYPE svg PUBLIC "-//W3C//DTD SVG 1.1//EN" "http://www.w3.org/Graphics/SVG/1.1/DTD/svg11.dtd">
<svg version="1.1" xmlns="http://www.w3.org/2000/svg" xmlns:xlink="http://www.w3.org/1999/xlink" x="0px" y="0px"
width="420.0mm" height="297.0mm" viewBox="0 0 420.0 297.0" xml:space="preserve">
<style type="text/css">
text{
font-size: 0.4mm;
font-family: "IM FELL DW Pica SC";
}
.left{
text-anchor:start;
}
.right{
text-anchor:end;
}
</style>
<text  transform="matrix(0.999978478836 0.00656062985591 -0.00656062985591 0.999978478836 102.266666667 42.3666666667)">AS01: Nam Penatibus Lobortis, D1</text>
<text  transform="matrix(0.999963963038 -0.00848955973445 0.00848955973445 0.999963963038 102.266666667 43.9666666667)">AS02: Eu Ex Purus, E1</text>
<text  transform="matrix(0.999998419598 -0.00177786448151 0.00177786448151 0.999998419598 102.266666667 45.5666666667)">AS03: Enim Fringilla Varius, F1</text>
<text  transform="matrix(0.999994288266 -0.00337985744078 0.00337985744078 0.999994288266 102.266666667 47.1666666667)">AS04: Laoreet Interdum Et, C1</text>
<text  transform="matrix(0.999969597083 -0.00779775034547 0.00779775034547 0.999969597083 102.266666667 48.7666666667)">AS05: Malesuada Non Gravida, G1</text>
<text  transform="matrix(0.999998288917 0.00184990916104 -0.00184990916104 0.999998288917 102.266666667 50.3666666667)">AS06: Mauris Felis Dolor, C1</text>
<text  transform="matrix(0.99999086227 -0.00427497082319 0.00427497082319 0.99999086227 102.266666667 51.9666666667)">AS07: Curabitur Eleifend Euismod, E1</text>
<text  transform="matrix(0.999997991872 0.00200405877153 -0.00200405877153 0.999997991872 102.266666667 53.5666666667)">AS08: Libero Consequat Feugiat, F1</text>
<text  transform="matrix(0.999999965539 -0.000262531760545 0.000262531760545 0.999999965539 102.266666667 55.1666666667)">AS09: Dictum Ornare Odio, H2</text>
<text  transform="matrix(0.99999087582 0.0042718001235 -0.0042718001235 0.99999087582 102.266666667 56.7666666667)">AS10: Semper Tristique Massa, F2</text>
<text  transform="matrix(0.999969435983 0.0078183822011 -0.0078183822011 0.999969435983 102.266666667 58.3666666667)">AS11: Sollicitudin Mollis Vel, E2</text>
<text  transform="matrix(0.999986726146 -0.00515242970596 0.00515242970596 0.999986726146 102.266666667 59.9666666667)">CR01: Ac Orci Cursus, F2</text>
<text  transform="matrix(0.999999301668 0.00118180490108 -0.00118180490108 0.999999301668 102.266666667 61.5666666667)">CR02: Aliquam Dis Natoque, F3</text>
<text  transform="matrix(0.999993701712 0.00354915983638 -0.00354915983638 0.999993701712 102.266666667 63.1666666667)">CR03: Ridiculus Tellus Magna, E3</text>
<text  transform="matrix(0.999972457242 0.00742191067433 -0.00742191067433 0.999972457242 102.266666667 64.7666666667)">CR04: Mus Sed Facilisis, F3</text>
<text  transform="matrix(0.999992585498 0.00385083754264 -0.00385083754264 0.999992585498 102.266666667 66.3666666667)">CR05: Magnis Maecenas Arcu, F3</text>
<text  transform="matrix(0.999998945825 0.00145201566443 -0.00145201566443 0.999998945825 102.266666667 67.9666666667)">CR06: Elementum Augue Parturient, F4</text>
<text  transform="matrix(0.999969862272 0.00776366843366 -0.00776366843366 0.999969862272 102.266666667 69.5666666667)">CR07: Vestibulum Neque Iaculis, F5</text>
<text  transform="matrix(0.999986592813 -0.0051782423642 0.0051782423642 0.999986592813 102.266666667 71.1666666667)">CR08: Pulvinar Placerat Sagittis, F5</text>
<text  transform="matrix(0.999981286318 0.00611776209885 -0.00611776209885 0.999981286318 102.266666667 72.7666666667)">DR01: Nec Maximus Consectetur, A7</text>
<text  transform="matrix(0.999989556152 -0.00457029386294 0.00457029386294 0.999989556152 102.266666667 74.3666666667)">DR02: Quisque Tincidunt Ipsum, B7</text>
<text  transform="matrix(0.999997489081 0.00224094435212 -0.00224094435212 0.999997489081 102.266666667 75.9666666667)">DR03: Leo Montes A, C7</text>
<text  transform="matrix(0.9999994557 0.00104335940184 -0.00104335940184 0.9999994557 102.266666667 77.5666666667)">DR04: Ante Egestas Lacus, B8</text>
<text  transform="matrix(0.999974323093 -0.00716611154316 0.00716611154316 0.999974323093 102.266666667 79.1666666667)">DR05: Etiam In Nisl, C8</text>
<text  transform="matrix(0.999999908163 0.000428572082892 -0.000428572082892 0.999999908163 102.266666667 80.7666666667)">DR06: Lorem Sit Nascetur, C8</text>
<text  transform="matrix(0.999994876128 -0.00320120579573 0.00320120579573 0.999994876128 102.266666667 82.3666666667)">DR07: Nulla Ut Adipiscing, B8</text>
<text  transform="matrix(0.99996945904 0.00781543265014 -0.00781543265014 0.99996945904 102.266666667 215.166666667)">DR08: Elit Est Vitae, B8</text>
<text  transform="matrix(0.999996819155 -0.0025222369041 0.0025222369041 0.999996819155 102.266666667 216.766666667)">DR09: Turpis Amet Mattis, C9</text>
<text  transform="matrix(0.99998544176 0.00539594922909 -0.00539594922909 0.99998544176 102.266666667 218.366666667)">DR10: Nam Penatibus Lobortis, C9</text>
<text  transform="matrix(0.999976752806 -0.00681863973198 0.00681863973198 0.999976752806 102.266666667 219.966666667)">DR11: Eu Ex Purus, D9</text>
<text  transform="matrix(0.999992686498 0.00382451976704 -0.00382451976704 0.999992686498 102.266666667 221.566666667)">DR12: Enim Fringilla Varius, D9</text>
<text  transform="matrix(0.999991990354 -0.00400240281444 0.00400240281444 0.999991990354 102.266666667 223.166666667)">FL01: Laoreet Interdum Et, H2</text>
<text  transform="matrix(0.999969944187 0.00775311049779 -0.00775311049779 0.999969944187 102.266666667 224.766666667)">FL02: Malesuada Non Gravida, H2</text>
<text  transform="matrix(0.999998972933 -0.00143322481822 0.00143322481822 0.999998972933 102.266666667 226.366666667)">FL03: Mauris Felis Dolor, I3</text>
<text  transform="matrix(0.999999917139 0.000407089799204 -0.000407089799204 0.999999917139 102.266666667 227.966666667)">FL04: Curabitur Eleifend Euismod, H3</text>
<text  transform="matrix(0.999982482324 0.00591904083379 -0.00591904083379 0.999982482324 102.266666667 229.566666667)">FL05: Libero Consequat Feugiat, I3</text>
<text  transform="matrix(0.999977275902 -0.00674148938392 0.00674148938392 0.999977275902 102.266666667 231.166666667)">FL06: Dictum Ornare Odio, H4</text>
<text  transform="matrix(0.999997978929 -0.00201050673253 0.00201050673253 0.999997978929 102.266666667 232.766666667)">FL07: Semper Tristique Massa, I4</text>
<text  transform="matrix(0.999997893389 0.00205261222377 -0.00205261222377 0.999997893389 102.266666667 234.366666667)">FL08: Sollicitudin Mollis Vel, I4</text>
<text  transform="matrix(0.999993261736 0.00367103289433 -0.00367103289433 0.999993261736 102.266666667 235.966666667)">FL09: Ac Orci Cursus, I5</text>
<text  transform="matrix(0.999998743243 0.00158540581144 -0.00158540581144 0.999998743243 102.266666667 237.566666667)">FL10: Aliquam Dis Natoque, I5</text>
<text  transform="matrix(0.999987746382 -0.00495046312154 0.00495046312154 0.999987746382 102.266666667 239.166666667)">FL11: Ridiculus Tellus Magna, I5</text>
<text  transform="matrix(0.999998667355 -0.00163257100138 0.00163257100138 0.999998667355 102.266666667 240.766666667)">FL12: Mus Sed Facilisis, H6</text>
<text  transform="matrix(0.999967149853 0.00810550519948 -0.00810550519948 0.999967149853 102.266666667 242.366666667)">FL13: Magnis Maecenas Arcu, I6</text>
<text  transform="matrix(0.999999250271 -0.00122452371168 0.00122452371168 0.999999250271 102.266666667 243.966666667)">FL14: Elementum Augue Parturient, H6</text>
<text  transform="matrix(0.999998568961 0.00169176728203 -0.00169176728203 0.999998568961 102.266666667 245.566666667)">FL15: Vestibulum Neque Iaculis, I7</text>
<text  transform="matrix(0.999984851559 -0.00550423955453 0.00550423955453 0.999984851559 102.266666667 247.166666667)">FR01: Pulvinar Placerat Sagittis, C6</text>
<text  transform="matrix(0.99999908899 -0.00134982209435 0.00134982209435 0.99999908899 102.266666667 248.766666667)">FR02: Nec Maximus Consectetur, C6</text>
<text  transform="matrix(0.999982365131 -0.00593880687468 0.00593880687468 0.999982365131 102.266666667 250.366666667)">FR03: Quisque Tincidunt Ipsum, D6</text>
<text  transform="matrix(0.999964635891 -0.00840993270334 0.00840993270334 0.999964635891 102.266666667 251.966666667)">FR04: Leo Montes A, B7</text>
<text  transform="matrix(0.999967032276 -0.00811999766503 0.00811999766503 0.999967032276 102.266666667 253.566666667)">FR05: Ante Egestas Lacus, C7</text>
<text  transform="matrix(0.99999070377 0.00431188754578 -0.00431188754578 0.99999070377 102.266666667 255.166666667)">FR06: Etiam In Nisl, E7</text>
<text  transform="matrix(0.999989935457 -0.00448653364852 0.00448653364852 0.999989935457 126.207407407 42.3666666667)">FR07: Lorem Sit Nascetur, D7</text>
<text  transform="matrix(0.999971594872 0.00753720436302 -0.00753720436302 0.999971594872 126.207407407 43.9666666667)">FR08: Nulla Ut Adipiscing, E7</text>
<text  transform="matrix(0.999980771298 -0.00620137362803 0.00620137362803 0.999980771298 126.207407407 45.5666666667)">FR09: Elit Est Vitae, D8</text>
<text  transform="matrix(0.999990289563 -0.0044069013029 0.0044069013029 0.999990289563 126.207407407 47.1666666667)">FR10: Turpis Amet Mattis, F8</text>
<text  transform="matrix(0.99999967488 -0.000806374959013 0.000806374959013 0.99999967488 126.207407407 48.7666666667)">FR11: Nam Penatibus Lobortis, D8</text>
<text  transform="matrix(0.999994427752 -0.00333833259906 0.00333833259906 0.999994427752 126.207407407 50.3666666667)">FR12: Eu Ex Purus, E8</text>
<text  transform="matrix(0.999987905628 0.00491819046065 -0.00491819046065 0.999987905628 126.207407407 51.9666666667)">FR13: Enim Fringilla Varius, E8</text>
<text  transform="matrix(0.999991471446 0.00413001641095 -0.00413001641095 0.999991471446 126.207407407 53.5666666667)">FR14: Laoreet Interdum Et, D9</text>
<text  transform="matrix(0.99999618832 0.00276104075334 -0.00276104075334 0.99999618832 126.207407407 55.1666666667)">FR15: Malesuada Non Gravida, E9</text>
<text  transform="matrix(0.999975682444 0.00697384546443 -0.00697384546443 0.999975682444 126.207407407 56.7666666667)">FU01: Mauris Felis Dolor, E5</text>
<text  transform="matrix(0.999985770357 0.00533470565476 -0.00533470565476 0.999985770357 126.207407407 58.3666666667)">FU02: Curabitur Eleifend Euismod, E5</text>
<text  transform="matrix(0.999997644497 -0.00217048374879 0.00217048374879 0.999997644497 126.207407407 237.566666667)">FU03: Libero Consequat Feugiat, E5</text>
<text  transform="matrix(0.999965726276 -0.0082792676464 0.0082792676464 0.999965726276 126.207407407 239.166666667)">FU04: Dictum Ornare Odio, E5</text>
<text  transform="matrix(0.999995212877 0.00309422415876 -0.00309422415876 0.999995212877 126.207407407 240.766666667)">FU05: Semper Tristique Massa, E5</text>
<text  transform="matrix(0.999991268016 -0.00417898225407 0.00417898225407 0.999991268016 126.207407407 242.366666667)">FU06: Sollicitudin Mollis Vel, D5</text>
<text  transform="matrix(0.999981324134 -0.00611157772829 0.00611157772829 0.999981324134 126.207407407 243.966666667)">FU07: Ac Orci Cursus, F5</text>
<text  transform="matrix(0.999984406336 -0.00558453975482 0.00558453975482 0.999984406336 126.207407407 245.566666667)">FU08: Aliquam Dis Natoque, D6</text>
<text  transform="matrix(0.999973908883 -0.00722368001628 0.00722368001628 0.999973908883 126.207407407 247.166666667)">FU09: Ridiculus Tellus Magna, F6</text>
<text  transform="matrix(0.999998259505 0.00186574016674 -0.00186574016674 0.999998259505 126.207407407 248.766666667)">FU10: Mus Sed Facilisis, D6</text>
<text  transform="matrix(0.999986144542 -0.00526409768603 0.00526409768603 0.999986144542 126.207407407 250.366666667)">FU11: Magnis Maecenas Arcu, E6</text>
<text  transform="matrix(0.999995453343 -0.00301550892722 0.00301550892722 0.999995453343 126.207407407 251.966666667)">FU12: Elementum Augue Parturient, F6</text>
<text  transform="matrix(0.999999992477 -0.000122660385745 0.000122660385745 0.999999992477 126.207407407 253.566666667)">GI01: Vestibulum Neque Iaculis, D2</text>
<text  transform="matrix(0.999991204136 -0.00419424017712 0.00419424017712 0.999991204136 126.207407407 255.166666667)">GI02: Pulvinar Placerat Sagittis, C2</text>
<text  transform="matrix(0.999965168399 -0.00834637578424 0.00834637578424 0.999965168399 150.148148148 42.3666666667)">GI03: Nec Maximus Consectetur, E2</text>
<text  transform="matrix(0.999988223596 -0.00485310925483 0.00485310925483 0.999988223596 150.148148148 43.9666666667)">GI04: Quisque Tincidunt Ipsum, D2</text>
<text  transform="matrix(0.999998614867 0.00166441112631 -0.00166441112631 0.999998614867 150.148148148 45.5666666667)">GI05: Leo Montes A, D3</text>
<text  transform="matrix(0.999996121897 0.00278499379919 -0.00278499379919 0.999996121897 150.148148148 250.366666667)">GI06: Ante Egestas Lacus, E3</text>
<text  transform="matrix(0.999972148584 0.00746338097761 -0.00746338097761 0.999972148584 150.148148148 251.966666667)">GI07: Etiam In Nisl, D3</text>
<text  transform="matrix(0.999979368816 -0.0064235459995 0.0064235459995 0.999979368816 150.148148148 253.566666667)">GI08: Lorem Sit Nascetur, D3</text>
<text  transform="matrix(0.999999903776 0.000438688444919 -0.000438688444919 0.999999903776 150.148148148 255.166666667)">GI09: Nulla Ut Adipiscing, E3</text>
<text  transform="matrix(0.999985901749 -0.00531001909927 0.00531001909927 0.999985901749 245.911111111 42.3666666667)">GI10: Elit Est Vitae, D4</text>
<text  transform="matrix(0.999987100074 0.00507933915464 -0.00507933915464 0.999987100074 245.911111111 43.9666666667)">GI11: Turpis Amet Mattis, D4</text>
<text  transform="matrix(0.999972432944 -0.0074251837008 0.0074251837008 0.999972432944 245.911111111 251.966666667)">GI12: Nam Penatibus Lobortis, D4</text>
<text  transform="matrix(0.99996605737 0.00823918122223 -0.00823918122223 0.99996605737 245.911111111 253.566666667)">MA01: Eu Ex Purus, B2</text>
<text  transform="matrix(0.999966030698 -0.00824241772918 0.00824241772918 0.999966030698 245.911111111 255.166666667)">MA02: Enim Fringilla Varius, B2</text>
<text  transform="matrix(0.999963783924 -0.00851063107278 0.00851063107278 0.999963783924 269.851851852 42.3666666667)">MA03: Laoreet Interdum Et, B2</text>
<text  transform="matrix(0.999992165315 -0.00395844785464 0.00395844785464 0.999992165315 269.851851852 43.9666666667)">MA04: Malesuada Non Gravida, A3</text>
<text  transform="matrix(0.99999234563 -0.00391263089932 0.00391263089932 0.99999234563 269.851851852 45.5666666667)">MA05: Mauris Felis Dolor, B3</text>
<text  transform="matrix(0.999997997608 -0.0020011944812 0.0020011944812 0.999997997608 269.851851852 47.1666666667)">MA06: Curabitur Eleifend Euismod, A4</text>
<text  transform="matrix(0.999985830502 0.00532341946705 -0.00532341946705 0.999985830502 269.851851852 48.7666666667)">MA07: Libero Consequat Feugiat, B4</text>
<text  transform="matrix(0.999998383728 0.00179792691612 -0.00179792691612 0.999998383728 269.851851852 50.3666666667)">MA08: Dictum Ornare Odio, A4</text>
<text  transform="matrix(0.99997789394 0.0066491827769 -0.0066491827769 0.99997789394 269.851851852 51.9666666667)">MA09: Semper Tristique Massa, A5</text>
<text  transform="matrix(0.999969450152 -0.00781656978226 0.00781656978226 0.999969450152 269.851851852 53.5666666667)">MA10: Sollicitudin Mollis Vel, A5</text>
<text  transform="matrix(0.99999442838 0.00333814454199 -0.00333814454199 0.99999442838 269.851851852 55.1666666667)">MA11: Ac Orci Cursus, A5</text>
<text  transform="matrix(0.999998785433 -0.00155856740958 0.00155856740958 0.999998785433 269.851851852 56.7666666667)">MA12: Aliquam Dis Natoque, A6</text>
<text  transform="matrix(0.999966472517 -0.00818864101751 0.00818864101751 0.999966472517 269.851851852 240.766666667)">MA13: Ridiculus Tellus Magna, B6</text>
<text  transform="matrix(0.999970675288 0.00765823507178 -0.00765823507178 0.999970675288 269.851851852 242.366666667)">MA14: Mus Sed Facilisis, A6</text>
<text  transform="matrix(0.999990285255 0.00440787887216 -0.00440787887216 0.999990285255 269.851851852 243.966666667)">OV01: Magnis Maecenas Arcu, G8</text>
<text  transform="matrix(0.999995921967 -0.00285587987111 0.00285587987111 0.999995921967 269.851851852 245.566666667)">OV02: Elementum Augue Parturient, I7</text>
<text  transform="matrix(0.999967038682 -0.00811920862554 0.00811920862554 0.999967038682 269.851851852 247.166666667)">OV03: Vestibulum Neque Iaculis, H8</text>
<text  transform="matrix(0.999989911434 -0.00449188487579 0.00449188487579 0.999989911434 269.851851852 248.766666667)">OV04: Pulvinar Placerat Sagittis, F8</text>
<text  transform="matrix(0.999972310342 -0.00744167651677 0.00744167651677 0.999972310342 269.851851852 250.366666667)">OV05: Nec Maximus Consectetur, H8</text>
<text  transform="matrix(0.999998800103 -0.00154912621095 0.00154912621095 0.999998800103 269.851851852 251.966666667)">OV06: Quisque Tincidunt Ipsum, F8</text>
<text  transform="matrix(0.9999827676 0.00587064763746 -0.00587064763746 0.9999827676 269.851851852 253.566666667)">OV07: Leo Montes A, G8</text>
<text  transform="matrix(0.999999021075 -0.00139923139874 0.00139923139874 0.999999021075 269.851851852 255.166666667)">OV08: Ante Egestas Lacus, H8</text>
<text  transform="matrix(0.999990483187 0.00436274410595 -0.00436274410595 0.999990483187 293.792592593 42.3666666667)">OV09: Etiam In Nisl, F9</text>
<text  transform="matrix(0.999995485346 0.00300487742143 -0.00300487742143 0.999995485346 293.792592593 43.9666666667)">OV10: Lorem Sit Nascetur, E9</text>
<text  transform="matrix(0.999978341435 -0.00658153942898 0.00658153942898 0.999978341435 293.792592593 45.5666666667)">OV11: Nulla Ut Adipiscing, F9</text>
<text  transform="matrix(0.999965717406 -0.00828033889646 0.00828033889646 0.999965717406 293.792592593 47.1666666667)">OV12: Elit Est Vitae, E9</text>
<text  transform="matrix(0.999980432176 0.00625581851421 -0.00625581851421 0.999980432176 293.792592593 48.7666666667)">OV13: Turpis Amet Mattis, D9</text>
<text  transform="matrix(0.99999661139 0.00260330712032 -0.00260330712032 0.99999661139 293.792592593 50.3666666667)">OV14: Nam Penatibus Lobortis, F9</text>
<text  transform="matrix(0.999980895169 0.00618136691627 -0.00618136691627 0.999980895169 293.792592593 51.9666666667)">PA01: Eu Ex Purus, G2</text>
<text  transform="matrix(0.999998331087 0.00182697105068 -0.00182697105068 0.999998331087 293.792592593 53.5666666667)">PA02: Enim Fringilla Varius, G2</text>
<text  transform="matrix(0.999979492602 -0.00640424667904 0.00640424667904 0.999979492602 293.792592593 55.1666666667)">PA03: Laoreet Interdum Et, G3</text>
<text  transform="matrix(0.999993672816 0.00355729228481 -0.00355729228481 0.999993672816 293.792592593 56.7666666667)">PA04: Malesuada Non Gravida, H3</text>
<text  transform="matrix(0.999964118954 -0.00847117497755 0.00847117497755 0.999964118954 293.792592593 58.3666666667)">PA05: Mauris Felis Dolor, G4</text>
<text  transform="matrix(0.999993973031 -0.00347187280628 0.00347187280628 0.999993973031 293.792592593 59.9666666667)">PA06: Curabitur Eleifend Euismod, G4</text>
<text  transform="matrix(0.999969642596 -0.0077919115698 0.0077919115698 0.999969642596 293.792592593 61.5666666667)">PA07: Libero Consequat Feugiat, H4</text>
<text  transform="matrix(0.999996593707 0.00261009093287 -0.00261009093287 0.999996593707 293.792592593 63.1666666667)">PA08: Dictum Ornare Odio, H4</text>
<text  transform="matrix(0.999990342412 -0.00439489271478 0.00439489271478 0.999990342412 293.792592593 64.7666666667)">PA09: Semper Tristique Massa, G5</text>
<text  transform="matrix(0.999978394701 0.00657344133667 -0.00657344133667 0.999978394701 293.792592593 66.3666666667)">PA10: Sollicitudin Mollis Vel, F5</text>
<text  transform="matrix(0.999975115578 0.00705465984179 -0.00705465984179 0.999975115578 293.792592593 67.9666666667)">PA11: Ac Orci Cursus, H5</text>
<text  transform="matrix(0.999993860651 0.00350409206437 -0.00350409206437 0.999993860651 293.792592593 69.5666666667)">PA12: Aliquam Dis Natoque, G5</text>
<text  transform="matrix(0.999986119152 0.00526891851941 -0.00526891851941 0.999986119152 293.792592593 71.1666666667)">PA13: Ridiculus Tellus Magna, H5</text>
<text  transform="matrix(0.99999861456 0.00166459560815 -0.00166459560815 0.99999861456 293.792592593 72.7666666667)">PA14: Mus Sed Facilisis, G5</text>
<text  transform="matrix(0.999999559985 -0.00093809887291 0.00093809887291 0.999999559985 293.792592593 74.3666666667)">PA15: Magnis Maecenas Arcu, G6</text>
<text  transform="matrix(0.99999946681 -0.00103265708092 0.00103265708092 0.99999946681 293.792592593 75.9666666667)">PA16: Elementum Augue Parturient, H6</text>
<text  transform="matrix(0.999999286892 0.00119424275998 -0.00119424275998 0.999999286892 293.792592593 77.5666666667)">PA17: Vestibulum Neque Iaculis, H6</text>
<text  transform="matrix(0.999998120641 0.00193874039455 -0.00193874039455 0.999998120641 293.792592593 219.966666667)">PA18: Pulvinar Placerat Sagittis, H7</text>
<text  transform="matrix(0.999985468368 -0.00539101591846 0.00539101591846 0.999985468368 293.792592593 221.566666667)">RH01: Nec Maximus Consectetur, C2</text>
<text  transform="matrix(0.999996266046 0.00273274482227 -0.00273274482227 0.999996266046 293.792592593 223.166666667)">RH02: Quisque Tincidunt Ipsum, C3</text>
<text  transform="matrix(0.99997476847 0.00710369076705 -0.00710369076705 0.99997476847 293.792592593 224.766666667)">RH03: Leo Montes A, B3</text>
<text  transform="matrix(0.999998731673 0.00159268708688 -0.00159268708688 0.999998731673 293.792592593 226.366666667)">RH04: Ante Egestas Lacus, D3</text>
<text  transform="matrix(0.999975283053 -0.00703088067377 0.00703088067377 0.999975283053 293.792592593 227.966666667)">RH05: Etiam In Nisl, C3</text>
<text  transform="matrix(0.999992794981 -0.00379604870268 0.00379604870268 0.999992794981 293.792592593 229.566666667)">RH06: Lorem Sit Nascetur, B4</text>
<text  transform="matrix(0.999978253428 -0.00659489730414 0.00659489730414 0.999978253428 293.792592593 231.166666667)">RH07: Nulla Ut Adipiscing, C4</text>
<text  transform="matrix(0.999997798866 -0.00209815689419 0.00209815689419 0.999997798866 293.792592593 232.766666667)">RH08: Elit Est Vitae, B4</text>
<text  transform="matrix(0.999989560826 -0.00456927113134 0.00456927113134 0.999989560826 293.792592593 234.366666667)">RH09: Turpis Amet Mattis, C4</text>
<text  transform="matrix(0.999999584256 0.000911859912307 -0.000911859912307 0.999999584256 293.792592593 235.966666667)">RH10: Nam Penatibus Lobortis, C5</text>
<text  transform="matrix(0.999992478152 -0.0038786130212 0.0038786130212 0.999992478152 293.792592593 237.566666667)">RH11: Eu Ex Purus, D5</text>
<text  transform="matrix(0.999996110827 -0.00278896588268 0.00278896588268 0.999996110827 293.792592593 239.166666667)">RH12: Enim Fringilla Varius, B5</text>
<text  transform="matrix(0.999981373595 -0.00610347961184 0.00610347961184 0.999981373595 293.792592593 240.766666667)">RH13: Laoreet Interdum Et, C5</text>
<text  transform="matrix(0.999990500213 -0.0043588398179 0.0043588398179 0.999990500213 293.792592593 242.366666667)">RH14: Malesuada Non Gravida, C5</text>
<text  transform="matrix(0.999999889742 0.000469591106998 -0.000469591106998 0.999999889742 293.792592593 243.966666667)">RH15: Mauris Felis Dolor, B6</text>
<text  transform="matrix(0.999981960963 -0.00600647559297 0.00600647559297 0.999981960963 293.792592593 245.566666667)">RH16: Curabitur Eleifend Euismod, B6</text>
<text  transform="matrix(0.999990568461 0.00434315420925 -0.00434315420925 0.999990568461 293.792592593 247.166666667)">SH01: Libero Consequat Feugiat, G6</text>
<text  transform="matrix(0.999992377893 -0.00390437663403 0.00390437663403 0.999992377893 293.792592593 248.766666667)">SH02: Dictum Ornare Odio, F7</text>
<text  transform="matrix(0.99997325072 0.00731422211852 -0.00731422211852 0.99997325072 293.792592593 250.366666667)">SH03: Semper Tristique Massa, G7</text>
<text  transform="matrix(0.999963811464 0.00850739458935 -0.00850739458935 0.999963811464 293.792592593 251.966666667)">SH04: Sollicitudin Mollis Vel, F7</text>
<text  transform="matrix(0.999998354815 -0.00181393700859 0.00181393700859 0.999998354815 293.792592593 253.566666667)">SH05: Ac Orci Cursus, H7</text>
<text  transform="matrix(0.999991960789 0.00400978276244 -0.00400978276244 0.999991960789 293.792592593 255.166666667)">SH06: Aliquam Dis Natoque, F7</text>
</svg>