<?xml version="1.0" encoding="utf-8"?>
<!-- Generator: Grasshopper 1.0.0, Redback Plugin. SVG Version: 6.00 Build 0) Made by Andrew Butler at Cox Architecture -->
<!DOCTYPE svg PUBLIC "-//W3C//DTD SVG 1.1//EN" "http://www.w3.org/Graphics/SVG/1.1/DTD/svg11.dtd">
<svg version="1.1" xmlns="http://www.w3.org/2000/svg" xmlns:xlink="http://www.w3.org/1999/xlink" x="0px" y="0px"
width="420.0mm" height="297.0mm" viewBox="0 0 420.0 297.0" xml:space="preserve">
<style type="text/css">
.curve{
fill:None;
stroke:#000;
stroke-width:0.05px;
stroke-linecap:round;
}
.thick-hatch{
stroke-width:0.1px;
}
.bold-hatch{
stroke-width:0.2px;
}
.thin-hatch{
stroke-width:0.025px;
}
.thick-road{
stroke-width:0.8px;
}
</style>
<line x1="204.039481608" y1="255.0" x2="215.960518392" y2="255.0" class="curve"/>
<line x1="200.581121419" y1="254.75" x2="219.418878581" y2="254.75" class="curve"/>
<line x1="198.092952474" y1="254.5" x2="221.907047526" y2="254.5" class="curve"/>
<line x1="196.045958659" y1="254.25" x2="223.954041341" y2="254.25" class="curve"/>
<line x1="194.266984049" y1="254.0" x2="225.733015951" y2="254.0" class="curve"/>
<line x1="192.673277995" y1="253.75" x2="227.326722005" y2="253.75" class="curve"/>
<line x1="191.217620443" y1="253.5" x2="228.782379557" y2="253.5" class="curve"/>
<line x1="189.870040690" y1="253.25" x2="230.129959310" y2="253.25" class="curve"/>
<line x1="188.610100911" y1="253.0" x2="231.389899089" y2="253.0" class="curve"/>
<line x1="187.423125" y1="252.75" x2="232.576875" y2="252.75" class="curve"/>
<line x1="186.298147786" y1="252.5" x2="233.701852214" y2="252.5" class="curve"/>
<line x1="185.226722005" y1="252.25" x2="234.773277995" y2="252.25" class="curve"/>
<line x1="184.202174479" y1="252.0" x2="235.797825521" y2="252.0" class="curve"/>
<line x1="183.219124349" y1="251.75" x2="236.780875651" y2="251.75" class="curve"/>
<line x1="182.273157552" y1="251.5" x2="237.726842448" y2="251.5" class="curve"/>
<line x1="181.360598958" y1="251.25" x2="238.639401042" y2="251.25" class="curve"/>
<line x1="180.478349609" y1="251.0" x2="239.521650391" y2="251.0" class="curve"/>
<line x1="179.623772786" y1="250.75" x2="240.376227214" y2="250.75" class="curve"/>
<line x1="178.794586589" y1="250.5" x2="241.205413411" y2="250.5" class="curve"/>
<line x1="177.988824870" y1="250.25" x2="242.011175130" y2="250.25" class="curve"/>
<line x1="177.204759115" y1="250.0" x2="242.795240885" y2="250.0" class="curve"/>
<line x1="176.440869141" y1="249.75" x2="243.559130859" y2="249.75" class="curve"/>
<line x1="175.695804036" y1="249.5" x2="244.304195964" y2="249.5" class="curve"/>
<line x1="174.968365885" y1="249.25" x2="245.031634115" y2="249.25" class="curve"/>
<line x1="174.257480469" y1="249.0" x2="245.742519531" y2="249.0" class="curve"/>
<line x1="173.562171224" y1="248.75" x2="246.437828776" y2="248.75" class="curve"/>
<line x1="172.881572266" y1="248.5" x2="247.118427734" y2="248.5" class="curve"/>
<line x1="172.214879557" y1="248.25" x2="247.785120443" y2="248.25" class="curve"/>
<line x1="171.561376953" y1="248.0" x2="248.438623047" y2="248.0" class="curve"/>
<line x1="170.920397135" y1="247.75" x2="249.079602865" y2="247.75" class="curve"/>
<line x1="170.291337891" y1="247.5" x2="249.708662109" y2="247.5" class="curve"/>
<line x1="169.673639323" y1="247.25" x2="250.326360677" y2="247.25" class="curve"/>
<line x1="169.066790365" y1="247.0" x2="250.933209635" y2="247.0" class="curve"/>
<line x1="168.470309245" y1="246.75" x2="251.529690755" y2="246.75" class="curve"/>
<line x1="167.883759766" y1="246.5" x2="252.116240234" y2="246.5" class="curve"/>
<line x1="167.306731771" y1="246.25" x2="252.693268229" y2="246.25" class="curve"/>
<line x1="166.738841146" y1="246.0" x2="253.261158854" y2="246.0" class="curve"/>
<line x1="166.179739583" y1="245.75" x2="253.820260417" y2="245.75" class="curve"/>
<line x1="165.629088542" y1="245.5" x2="254.370911458" y2="245.5" class="curve"/>
<line x1="165.086578776" y1="245.25" x2="254.913421224" y2="245.25" class="curve"/>
<line x1="164.551920573" y1="245.0" x2="255.448079427" y2="245.0" class="curve"/>
<line x1="164.024840495" y1="244.75" x2="255.975159505" y2="244.75" class="curve"/>
<line x1="163.505078125" y1="244.5" x2="256.494921875" y2="244.5" class="curve"/>
<line x1="162.992392578" y1="244.25" x2="257.007607422" y2="244.25" class="curve"/>
<line x1="162.486552734" y1="244.0" x2="257.513447266" y2="244.0" class="curve"/>
<line x1="161.98734375" y1="243.75" x2="258.01265625" y2="243.75" class="curve"/>
<line x1="161.494560547" y1="243.5" x2="258.505439453" y2="243.5" class="curve"/>
<line x1="161.008007813" y1="243.25" x2="258.991992188" y2="243.25" class="curve"/>
<line x1="160.527503255" y1="243.0" x2="259.472496745" y2="243.0" class="curve"/>
<line x1="160.052874349" y1="242.75" x2="259.947125651" y2="242.75" class="curve"/>
<line x1="159.583951823" y1="242.5" x2="260.416048177" y2="242.5" class="curve"/>
<line x1="159.120579427" y1="242.25" x2="260.879420573" y2="242.25" class="curve"/>
<line x1="158.662607422" y1="242.0" x2="261.337392578" y2="242.0" class="curve"/>
<line x1="158.209892578" y1="241.75" x2="261.790107422" y2="241.75" class="curve"/>
<line x1="157.762294922" y1="241.5" x2="262.237705078" y2="241.5" class="curve"/>
<line x1="157.3196875" y1="241.25" x2="262.6803125" y2="241.25" class="curve"/>
<line x1="156.881943359" y1="241.0" x2="263.118056641" y2="241.0" class="curve"/>
<line x1="156.448948568" y1="240.75" x2="263.551051432" y2="240.75" class="curve"/>
<line x1="156.020579427" y1="240.5" x2="263.979420573" y2="240.5" class="curve"/>
<line x1="155.596735026" y1="240.25" x2="264.403264974" y2="240.25" class="curve"/>
<line x1="155.177304688" y1="240.0" x2="264.822695313" y2="240.0" class="curve"/>
<line x1="154.762194010" y1="239.75" x2="265.237805990" y2="239.75" class="curve"/>
<line x1="154.351302083" y1="239.5" x2="265.648697917" y2="239.5" class="curve"/>
<line x1="153.94453125" y1="239.25" x2="266.05546875" y2="239.25" class="curve"/>
<line x1="153.541803385" y1="239.0" x2="266.458196615" y2="239.0" class="curve"/>
<line x1="153.143027344" y1="238.75" x2="266.856972656" y2="238.75" class="curve"/>
<line x1="152.748118490" y1="238.5" x2="267.251881510" y2="238.5" class="curve"/>
<line x1="152.356998698" y1="238.25" x2="267.643001302" y2="238.25" class="curve"/>
<line x1="151.969596354" y1="238.0" x2="268.030403646" y2="238.0" class="curve"/>
<line x1="151.585826823" y1="237.75" x2="268.414173177" y2="237.75" class="curve"/>
<line x1="151.205631510" y1="237.5" x2="268.794368490" y2="237.5" class="curve"/>
<line x1="150.828932292" y1="237.25" x2="269.171067708" y2="237.25" class="curve"/>
<line x1="150.455664063" y1="237.0" x2="269.544335938" y2="237.0" class="curve"/>
<line x1="150.085768229" y1="236.75" x2="269.914231771" y2="236.75" class="curve"/>
<line x1="149.719173177" y1="236.5" x2="270.280826823" y2="236.5" class="curve"/>
<line x1="149.355833333" y1="236.25" x2="270.644166667" y2="236.25" class="curve"/>
<line x1="148.995677083" y1="236.0" x2="271.004322917" y2="236.0" class="curve"/>
<line x1="148.638652344" y1="235.75" x2="271.361347656" y2="235.75" class="curve"/>
<line x1="148.284707031" y1="235.5" x2="271.715292969" y2="235.5" class="curve"/>
<line x1="147.933782552" y1="235.25" x2="272.066217448" y2="235.25" class="curve"/>
<line x1="147.585839844" y1="235.0" x2="272.414160156" y2="235.0" class="curve"/>
<line x1="147.240813802" y1="234.75" x2="272.759186198" y2="234.75" class="curve"/>
<line x1="146.898671875" y1="234.5" x2="273.101328125" y2="234.5" class="curve"/>
<line x1="146.559355469" y1="234.25" x2="273.440644531" y2="234.25" class="curve"/>
<line x1="146.222825521" y1="234.0" x2="273.777174479" y2="234.0" class="curve"/>
<line x1="145.889036458" y1="233.75" x2="274.110963542" y2="233.75" class="curve"/>
<line x1="145.557949219" y1="233.5" x2="274.442050781" y2="233.5" class="curve"/>
<line x1="145.229518229" y1="233.25" x2="274.770481771" y2="233.25" class="curve"/>
<line x1="144.903704427" y1="233.0" x2="275.096295573" y2="233.0" class="curve"/>
<line x1="144.58046875" y1="232.75" x2="275.41953125" y2="232.75" class="curve"/>
<line x1="144.259772135" y1="232.5" x2="275.740227865" y2="232.5" class="curve"/>
<line x1="143.941575521" y1="232.25" x2="276.058424479" y2="232.25" class="curve"/>
<line x1="143.625852865" y1="232.0" x2="276.374147135" y2="232.0" class="curve"/>
<line x1="143.312552083" y1="231.75" x2="276.687447917" y2="231.75" class="curve"/>
<line x1="143.001660156" y1="231.5" x2="276.998339844" y2="231.5" class="curve"/>
<line x1="142.693125" y1="231.25" x2="277.306875" y2="231.25" class="curve"/>
<line x1="142.386927083" y1="231.0" x2="277.613072917" y2="231.0" class="curve"/>
<line x1="142.083027344" y1="230.75" x2="277.916972656" y2="230.75" class="curve"/>
<line x1="141.781399740" y1="230.5" x2="278.218600260" y2="230.5" class="curve"/>
<line x1="141.482005208" y1="230.25" x2="278.517994792" y2="230.25" class="curve"/>
<line x1="141.184830729" y1="230.0" x2="278.815169271" y2="230.0" class="curve"/>
<line x1="140.889830729" y1="229.75" x2="279.110169271" y2="229.75" class="curve"/>
<line x1="140.596992188" y1="229.5" x2="279.403007813" y2="229.5" class="curve"/>
<line x1="140.306276042" y1="229.25" x2="279.693723958" y2="229.25" class="curve"/>
<line x1="140.017662760" y1="229.0" x2="279.982337240" y2="229.0" class="curve"/>
<line x1="139.731119792" y1="228.75" x2="280.268880208" y2="228.75" class="curve"/>
<line x1="139.446634115" y1="228.5" x2="280.553365885" y2="228.5" class="curve"/>
<line x1="139.164166667" y1="228.25" x2="280.835833333" y2="228.25" class="curve"/>
<line x1="138.883704427" y1="228.0" x2="281.116295573" y2="228.0" class="curve"/>
<line x1="138.605214844" y1="227.75" x2="281.394785156" y2="227.75" class="curve"/>
<line x1="138.328684896" y1="227.5" x2="281.671315104" y2="227.5" class="curve"/>
<line x1="138.054082031" y1="227.25" x2="281.945917969" y2="227.25" class="curve"/>
<line x1="137.781386719" y1="227.0" x2="282.218613281" y2="227.0" class="curve"/>
<line x1="137.510585938" y1="226.75" x2="282.489414063" y2="226.75" class="curve"/>
<line x1="137.241647135" y1="226.5" x2="282.758352865" y2="226.5" class="curve"/>
<line x1="136.974557292" y1="226.25" x2="283.025442708" y2="226.25" class="curve"/>
<line x1="136.709290365" y1="226.0" x2="283.290709635" y2="226.0" class="curve"/>
<line x1="136.445833333" y1="225.75" x2="283.554166667" y2="225.75" class="curve"/>
<line x1="136.184160156" y1="225.5" x2="283.815839844" y2="225.5" class="curve"/>
<line x1="135.924257813" y1="225.25" x2="284.075742188" y2="225.25" class="curve"/>
<line x1="135.666106771" y1="225.0" x2="284.333893229" y2="225.0" class="curve"/>
<line x1="135.409680990" y1="224.75" x2="284.590319010" y2="224.75" class="curve"/>
<line x1="135.154973958" y1="224.5" x2="284.845026042" y2="224.5" class="curve"/>
<line x1="134.901959635" y1="224.25" x2="285.098040365" y2="224.25" class="curve"/>
<line x1="134.650631510" y1="224.0" x2="285.349368490" y2="224.0" class="curve"/>
<line x1="134.400957031" y1="223.75" x2="285.599042969" y2="223.75" class="curve"/>
<line x1="134.152929688" y1="223.5" x2="285.847070313" y2="223.5" class="curve"/>
<line x1="133.906536458" y1="223.25" x2="286.093463542" y2="223.25" class="curve"/>
<line x1="133.661751302" y1="223.0" x2="286.338248698" y2="223.0" class="curve"/>
<line x1="133.418567708" y1="222.75" x2="286.581432292" y2="222.75" class="curve"/>
<line x1="133.176972656" y1="222.5" x2="286.823027344" y2="222.5" class="curve"/>
<line x1="132.936940104" y1="222.25" x2="287.063059896" y2="222.25" class="curve"/>
<line x1="132.698463542" y1="222.0" x2="287.301536458" y2="222.0" class="curve"/>
<line x1="132.461523438" y1="221.75" x2="287.538476563" y2="221.75" class="curve"/>
<line x1="132.226113281" y1="221.5" x2="287.773886719" y2="221.5" class="curve"/>
<line x1="131.992207031" y1="221.25" x2="288.007792969" y2="221.25" class="curve"/>
<line x1="131.759804688" y1="221.0" x2="288.240195313" y2="221.0" class="curve"/>
<line x1="131.528886719" y1="220.75" x2="288.471113281" y2="220.75" class="curve"/>
<line x1="131.299440104" y1="220.5" x2="288.700559896" y2="220.5" class="curve"/>
<line x1="131.071451823" y1="220.25" x2="288.928548177" y2="220.25" class="curve"/>
<line x1="130.844915365" y1="220.0" x2="289.155084635" y2="220.0" class="curve"/>
<line x1="130.619804688" y1="219.75" x2="289.380195313" y2="219.75" class="curve"/>
<line x1="130.396119792" y1="219.5" x2="289.603880208" y2="219.5" class="curve"/>
<line x1="130.173841146" y1="219.25" x2="289.826158854" y2="219.25" class="curve"/>
<line x1="129.952962240" y1="219.0" x2="290.047037760" y2="219.0" class="curve"/>
<line x1="129.733476563" y1="218.75" x2="290.266523438" y2="218.75" class="curve"/>
<line x1="129.515358073" y1="218.5" x2="290.484641927" y2="218.5" class="curve"/>
<line x1="129.298606771" y1="218.25" x2="290.701393229" y2="218.25" class="curve"/>
<line x1="129.083203125" y1="218.0" x2="290.916796875" y2="218.0" class="curve"/>
<line x1="128.869147135" y1="217.75" x2="291.130852865" y2="217.75" class="curve"/>
<line x1="128.656419271" y1="217.5" x2="291.343580729" y2="217.5" class="curve"/>
<line x1="128.445019531" y1="217.25" x2="291.554980469" y2="217.25" class="curve"/>
<line x1="128.234921875" y1="217.0" x2="291.765078125" y2="217.0" class="curve"/>
<line x1="128.026132813" y1="216.75" x2="291.973867188" y2="216.75" class="curve"/>
<line x1="127.818626302" y1="216.5" x2="292.181373698" y2="216.5" class="curve"/>
<line x1="127.612408854" y1="216.25" x2="292.387591146" y2="216.25" class="curve"/>
<line x1="127.407460938" y1="216.0" x2="292.592539063" y2="216.0" class="curve"/>
<line x1="127.203769531" y1="215.75" x2="292.796230469" y2="215.75" class="curve"/>
<line x1="127.001341146" y1="215.5" x2="292.998658854" y2="215.5" class="curve"/>
<line x1="126.800149740" y1="215.25" x2="293.199850260" y2="215.25" class="curve"/>
<line x1="126.600195313" y1="215.0" x2="293.399804688" y2="215.0" class="curve"/>
<line x1="126.401464844" y1="214.75" x2="293.598535156" y2="214.75" class="curve"/>
<line x1="126.203951823" y1="214.5" x2="293.796048177" y2="214.5" class="curve"/>
<line x1="126.007649740" y1="214.25" x2="293.992350260" y2="214.25" class="curve"/>
<line x1="125.812545573" y1="214.0" x2="294.187454427" y2="214.0" class="curve"/>
<line x1="125.618632813" y1="213.75" x2="294.381367188" y2="213.75" class="curve"/>
<line x1="125.425904948" y1="213.5" x2="294.574095052" y2="213.5" class="curve"/>
<line x1="125.234348958" y1="213.25" x2="294.765651042" y2="213.25" class="curve"/>
<line x1="125.043964844" y1="213.0" x2="294.956035156" y2="213.0" class="curve"/>
<line x1="124.854739583" y1="212.75" x2="295.145260417" y2="212.75" class="curve"/>
<line x1="124.666666667" y1="212.5" x2="295.333333333" y2="212.5" class="curve"/>
<line x1="124.479739583" y1="212.25" x2="295.520260417" y2="212.25" class="curve"/>
<line x1="124.293945313" y1="212.0" x2="295.706054688" y2="212.0" class="curve"/>
<line x1="124.109283854" y1="211.75" x2="295.890716146" y2="211.75" class="curve"/>
<line x1="123.925742188" y1="211.5" x2="296.074257813" y2="211.5" class="curve"/>
<line x1="123.743320313" y1="211.25" x2="296.256679688" y2="211.25" class="curve"/>
<line x1="123.561998698" y1="211.0" x2="296.438001302" y2="211.0" class="curve"/>
<line x1="123.381783854" y1="210.75" x2="296.618216146" y2="210.75" class="curve"/>
<line x1="123.202662760" y1="210.5" x2="296.797337240" y2="210.5" class="curve"/>
<line x1="123.024628906" y1="210.25" x2="296.975371094" y2="210.25" class="curve"/>
<line x1="122.847675781" y1="210.0" x2="297.152324219" y2="210.0" class="curve"/>
<line x1="122.671796875" y1="209.75" x2="297.328203125" y2="209.75" class="curve"/>
<line x1="122.496985677" y1="209.5" x2="297.503014323" y2="209.5" class="curve"/>
<line x1="122.323235677" y1="209.25" x2="297.676764323" y2="209.25" class="curve"/>
<line x1="122.150540365" y1="209.0" x2="297.849459635" y2="209.0" class="curve"/>
<line x1="121.978893229" y1="208.75" x2="298.021106771" y2="208.75" class="curve"/>
<line x1="121.808287760" y1="208.5" x2="298.191712240" y2="208.5" class="curve"/>
<line x1="121.638723958" y1="208.25" x2="298.361276042" y2="208.25" class="curve"/>
<line x1="121.470188802" y1="208.0" x2="298.529811198" y2="208.0" class="curve"/>
<line x1="121.302675781" y1="207.75" x2="298.697324219" y2="207.75" class="curve"/>
<line x1="121.136184896" y1="207.5" x2="298.863815104" y2="207.5" class="curve"/>
<line x1="120.970703125" y1="207.25" x2="299.029296875" y2="207.25" class="curve"/>
<line x1="120.806236979" y1="207.0" x2="299.193763021" y2="207.0" class="curve"/>
<line x1="120.642766927" y1="206.75" x2="299.357233073" y2="206.75" class="curve"/>
<line x1="120.480292969" y1="206.5" x2="299.519707031" y2="206.5" class="curve"/>
<line x1="120.318815104" y1="206.25" x2="299.681184896" y2="206.25" class="curve"/>
<line x1="120.158320313" y1="206.0" x2="299.841679688" y2="206.0" class="curve"/>
<line x1="119.998802083" y1="205.75" x2="300.001197917" y2="205.75" class="curve"/>
<line x1="119.840266927" y1="205.5" x2="300.159733073" y2="205.5" class="curve"/>
<line x1="119.682695313" y1="205.25" x2="300.317304688" y2="205.25" class="curve"/>
<line x1="119.52609375" y1="205.0" x2="300.47390625" y2="205.0" class="curve"/>
<line x1="119.370449219" y1="204.75" x2="300.629550781" y2="204.75" class="curve"/>
<line x1="119.215761719" y1="204.5" x2="300.784238281" y2="204.5" class="curve"/>
<line x1="119.062024740" y1="204.25" x2="300.937975260" y2="204.25" class="curve"/>
<line x1="118.909231771" y1="204.0" x2="301.090768229" y2="204.0" class="curve"/>
<line x1="118.757382813" y1="203.75" x2="301.242617188" y2="203.75" class="curve"/>
<line x1="118.606464844" y1="203.5" x2="301.393535156" y2="203.5" class="curve"/>
<line x1="118.456484375" y1="203.25" x2="301.543515625" y2="203.25" class="curve"/>
<line x1="118.307428385" y1="203.0" x2="301.692571615" y2="203.0" class="curve"/>
<line x1="118.159296875" y1="202.75" x2="301.840703125" y2="202.75" class="curve"/>
<line x1="118.012076823" y1="202.5" x2="301.987923177" y2="202.5" class="curve"/>
<line x1="117.865774740" y1="202.25" x2="302.134225260" y2="202.25" class="curve"/>
<line x1="117.720384115" y1="202.0" x2="302.279615885" y2="202.0" class="curve"/>
<line x1="117.575891927" y1="201.75" x2="302.424108073" y2="201.75" class="curve"/>
<line x1="117.432304688" y1="201.5" x2="302.567695313" y2="201.5" class="curve"/>
<line x1="117.289615885" y1="201.25" x2="302.710384115" y2="201.25" class="curve"/>
<line x1="117.147819010" y1="201.0" x2="302.852180990" y2="201.0" class="curve"/>
<line x1="117.006907552" y1="200.75" x2="302.993092448" y2="200.75" class="curve"/>
<line x1="116.866881510" y1="200.5" x2="303.133118490" y2="200.5" class="curve"/>
<line x1="116.727734375" y1="200.25" x2="303.272265625" y2="200.25" class="curve"/>
<line x1="116.589466146" y1="200.0" x2="303.410533854" y2="200.0" class="curve"/>
<line x1="116.452070313" y1="199.75" x2="303.547929688" y2="199.75" class="curve"/>
<line x1="116.315540365" y1="199.5" x2="303.684459635" y2="199.5" class="curve"/>
<line x1="116.179876302" y1="199.25" x2="303.820123698" y2="199.25" class="curve"/>
<line x1="116.045078125" y1="199.0" x2="303.954921875" y2="199.0" class="curve"/>
<line x1="115.911132813" y1="198.75" x2="304.088867188" y2="198.75" class="curve"/>
<line x1="115.778040365" y1="198.5" x2="304.221959635" y2="198.5" class="curve"/>
<line x1="115.645800781" y1="198.25" x2="304.354199219" y2="198.25" class="curve"/>
<line x1="115.514407552" y1="198.0" x2="304.485592448" y2="198.0" class="curve"/>
<line x1="115.383854167" y1="197.75" x2="304.616145833" y2="197.75" class="curve"/>
<line x1="115.254140625" y1="197.5" x2="304.745859375" y2="197.5" class="curve"/>
<line x1="115.125266927" y1="197.25" x2="304.874733073" y2="197.25" class="curve"/>
<line x1="114.997220052" y1="197.0" x2="305.002779948" y2="197.0" class="curve"/>
<line x1="114.870006510" y1="196.75" x2="305.129993490" y2="196.75" class="curve"/>
<line x1="114.743619792" y1="196.5" x2="305.256380208" y2="196.5" class="curve"/>
<line x1="114.618053385" y1="196.25" x2="305.381946615" y2="196.25" class="curve"/>
<line x1="114.493307292" y1="196.0" x2="305.506692708" y2="196.0" class="curve"/>
<line x1="114.369381510" y1="195.75" x2="305.630618490" y2="195.75" class="curve"/>
<line x1="114.246263021" y1="195.5" x2="305.753736979" y2="195.5" class="curve"/>
<line x1="114.123958333" y1="195.25" x2="305.876041667" y2="195.25" class="curve"/>
<line x1="114.002460938" y1="195.0" x2="305.997539063" y2="195.0" class="curve"/>
<line x1="113.881764323" y1="194.75" x2="306.118235677" y2="194.75" class="curve"/>
<line x1="113.761868490" y1="194.5" x2="306.238131510" y2="194.5" class="curve"/>
<line x1="113.642773438" y1="194.25" x2="306.357226563" y2="194.25" class="curve"/>
<line x1="113.524472656" y1="194.0" x2="306.475527344" y2="194.0" class="curve"/>
<line x1="113.406959635" y1="193.75" x2="306.593040365" y2="193.75" class="curve"/>
<line x1="113.290240885" y1="193.5" x2="306.709759115" y2="193.5" class="curve"/>
<line x1="113.174303385" y1="193.25" x2="306.825696615" y2="193.25" class="curve"/>
<line x1="113.059153646" y1="193.0" x2="306.940846354" y2="193.0" class="curve"/>
<line x1="112.944785156" y1="192.75" x2="307.055214844" y2="192.75" class="curve"/>
<line x1="112.831191406" y1="192.5" x2="307.168808594" y2="192.5" class="curve"/>
<line x1="112.718372396" y1="192.25" x2="307.281627604" y2="192.25" class="curve"/>
<line x1="112.606328125" y1="192.0" x2="307.393671875" y2="192.0" class="curve"/>
<line x1="112.495052083" y1="191.75" x2="307.504947917" y2="191.75" class="curve"/>
<line x1="112.384544271" y1="191.5" x2="307.615455729" y2="191.5" class="curve"/>
<line x1="112.274798177" y1="191.25" x2="307.725201823" y2="191.25" class="curve"/>
<line x1="112.165813802" y1="191.0" x2="307.834186198" y2="191.0" class="curve"/>
<line x1="112.057591146" y1="190.75" x2="307.942408854" y2="190.75" class="curve"/>
<line x1="111.950123698" y1="190.5" x2="308.049876302" y2="190.5" class="curve"/>
<line x1="111.843411458" y1="190.25" x2="308.156588542" y2="190.25" class="curve"/>
<line x1="111.737454427" y1="190.0" x2="308.262545573" y2="190.0" class="curve"/>
<line x1="111.632246094" y1="189.75" x2="308.367753906" y2="189.75" class="curve"/>
<line x1="111.527779948" y1="189.5" x2="308.472220052" y2="189.5" class="curve"/>
<line x1="111.4240625" y1="189.25" x2="308.5759375" y2="189.25" class="curve"/>
<line x1="111.321087240" y1="189.0" x2="308.678912760" y2="189.0" class="curve"/>
<line x1="111.218854167" y1="188.75" x2="308.781145833" y2="188.75" class="curve"/>
<line x1="111.117350260" y1="188.5" x2="308.882649740" y2="188.5" class="curve"/>
<line x1="111.016588542" y1="188.25" x2="308.983411458" y2="188.25" class="curve"/>
<line x1="110.9165625" y1="188.0" x2="309.0834375" y2="188.0" class="curve"/>
<line x1="110.817265625" y1="187.75" x2="309.182734375" y2="187.75" class="curve"/>
<line x1="110.718691406" y1="187.5" x2="309.281308594" y2="187.5" class="curve"/>
<line x1="110.620852865" y1="187.25" x2="309.379147135" y2="187.25" class="curve"/>
<line x1="110.523730469" y1="187.0" x2="309.476269531" y2="187.0" class="curve"/>
<line x1="110.427337240" y1="186.75" x2="309.572662760" y2="186.75" class="curve"/>
<line x1="110.331660156" y1="186.5" x2="309.668339844" y2="186.5" class="curve"/>
<line x1="110.236705729" y1="186.25" x2="309.763294271" y2="186.25" class="curve"/>
<line x1="110.142460938" y1="186.0" x2="309.857539063" y2="186.0" class="curve"/>
<line x1="110.048938802" y1="185.75" x2="309.951061198" y2="185.75" class="curve"/>
<line x1="109.956119792" y1="185.5" x2="310.043880208" y2="185.5" class="curve"/>
<line x1="109.864016927" y1="185.25" x2="310.135983073" y2="185.25" class="curve"/>
<line x1="109.772617188" y1="185.0" x2="310.227382813" y2="185.0" class="curve"/>
<line x1="109.681927083" y1="184.75" x2="310.318072917" y2="184.75" class="curve"/>
<line x1="109.591946615" y1="184.5" x2="310.408053385" y2="184.5" class="curve"/>
<line x1="109.502662760" y1="184.25" x2="310.497337240" y2="184.25" class="curve"/>
<line x1="109.414075521" y1="184.0" x2="310.585924479" y2="184.0" class="curve"/>
<line x1="109.326191406" y1="183.75" x2="310.673808594" y2="183.75" class="curve"/>
<line x1="109.239003906" y1="183.5" x2="310.760996094" y2="183.5" class="curve"/>
<line x1="109.152513021" y1="183.25" x2="310.847486979" y2="183.25" class="curve"/>
<line x1="109.06671875" y1="183.0" x2="310.93328125" y2="183.0" class="curve"/>
<line x1="108.981608073" y1="182.75" x2="311.018391927" y2="182.75" class="curve"/>
<line x1="108.897194010" y1="182.5" x2="311.102805990" y2="182.5" class="curve"/>
<line x1="108.813463542" y1="182.25" x2="311.186536458" y2="182.25" class="curve"/>
<line x1="108.730423177" y1="182.0" x2="311.269576823" y2="182.0" class="curve"/>
<line x1="108.648059896" y1="181.75" x2="311.351940104" y2="181.75" class="curve"/>
<line x1="108.566386719" y1="181.5" x2="311.433613281" y2="181.5" class="curve"/>
<line x1="108.485390625" y1="181.25" x2="311.514609375" y2="181.25" class="curve"/>
<line x1="108.405078125" y1="181.0" x2="311.594921875" y2="181.0" class="curve"/>
<line x1="108.325442708" y1="180.75" x2="311.674557292" y2="180.75" class="curve"/>
<line x1="108.246484375" y1="180.5" x2="311.753515625" y2="180.5" class="curve"/>
<line x1="108.168203125" y1="180.25" x2="311.831796875" y2="180.25" class="curve"/>
<line x1="108.090592448" y1="180.0" x2="311.909407552" y2="180.0" class="curve"/>
<line x1="108.013652344" y1="179.75" x2="311.986347656" y2="179.75" class="curve"/>
<line x1="107.937382813" y1="179.5" x2="312.062617188" y2="179.5" class="curve"/>
<line x1="107.861783854" y1="179.25" x2="312.138216146" y2="179.25" class="curve"/>
<line x1="107.786848958" y1="179.0" x2="312.213151042" y2="179.0" class="curve"/>
<line x1="107.712584635" y1="178.75" x2="312.287415365" y2="178.75" class="curve"/>
<line x1="107.638984375" y1="178.5" x2="312.361015625" y2="178.5" class="curve"/>
<line x1="107.566041667" y1="178.25" x2="312.433958333" y2="178.25" class="curve"/>
<line x1="107.493769531" y1="178.0" x2="312.506230469" y2="178.0" class="curve"/>
<line x1="107.422148438" y1="177.75" x2="312.577851563" y2="177.75" class="curve"/>
<line x1="107.351191406" y1="177.5" x2="312.648808594" y2="177.5" class="curve"/>
<line x1="107.280891927" y1="177.25" x2="312.719108073" y2="177.25" class="curve"/>
<line x1="107.21125" y1="177.0" x2="312.78875" y2="177.0" class="curve"/>
<line x1="107.142259115" y1="176.75" x2="312.857740885" y2="176.75" class="curve"/>
<line x1="107.073919271" y1="176.5" x2="312.926080729" y2="176.5" class="curve"/>
<line x1="107.006236979" y1="176.25" x2="312.993763021" y2="176.25" class="curve"/>
<line x1="106.939205729" y1="176.0" x2="313.060794271" y2="176.0" class="curve"/>
<line x1="106.872819010" y1="175.75" x2="313.127180990" y2="175.75" class="curve"/>
<line x1="106.807083333" y1="175.5" x2="313.192916667" y2="175.5" class="curve"/>
<line x1="106.741998698" y1="175.25" x2="313.258001302" y2="175.25" class="curve"/>
<line x1="106.677552083" y1="175.0" x2="313.322447917" y2="175.0" class="curve"/>
<line x1="106.613756510" y1="174.75" x2="313.386243490" y2="174.75" class="curve"/>
<line x1="106.550605469" y1="174.5" x2="313.449394531" y2="174.5" class="curve"/>
<line x1="106.488092448" y1="174.25" x2="313.511907552" y2="174.25" class="curve"/>
<line x1="106.426217448" y1="174.0" x2="313.573782552" y2="174.0" class="curve"/>
<line x1="106.364986979" y1="173.75" x2="313.635013021" y2="173.75" class="curve"/>
<line x1="106.304401042" y1="173.5" x2="313.695598958" y2="173.5" class="curve"/>
<line x1="106.244446615" y1="173.25" x2="313.755553385" y2="173.25" class="curve"/>
<line x1="106.185130208" y1="173.0" x2="313.814869792" y2="173.0" class="curve"/>
<line x1="106.126445313" y1="172.75" x2="313.873554688" y2="172.75" class="curve"/>
<line x1="106.068398438" y1="172.5" x2="313.931601563" y2="172.5" class="curve"/>
<line x1="106.010983073" y1="172.25" x2="313.989016927" y2="172.25" class="curve"/>
<line x1="105.954205729" y1="172.0" x2="314.045794271" y2="172.0" class="curve"/>
<line x1="105.898053385" y1="171.75" x2="314.101946615" y2="171.75" class="curve"/>
<line x1="105.842532552" y1="171.5" x2="314.157467448" y2="171.5" class="curve"/>
<line x1="105.787643229" y1="171.25" x2="314.212356771" y2="171.25" class="curve"/>
<line x1="105.733378906" y1="171.0" x2="314.266621094" y2="171.0" class="curve"/>
<line x1="105.679746094" y1="170.75" x2="314.320253906" y2="170.75" class="curve"/>
<line x1="105.626738281" y1="170.5" x2="314.373261719" y2="170.5" class="curve"/>
<line x1="105.574355469" y1="170.25" x2="314.425644531" y2="170.25" class="curve"/>
<line x1="105.522597656" y1="170.0" x2="314.477402344" y2="170.0" class="curve"/>
<line x1="105.471464844" y1="169.75" x2="314.528535156" y2="169.75" class="curve"/>
<line x1="105.420950521" y1="169.5" x2="314.579049479" y2="169.5" class="curve"/>
<line x1="105.371061198" y1="169.25" x2="314.628938802" y2="169.25" class="curve"/>
<line x1="105.321790365" y1="169.0" x2="314.678209635" y2="169.0" class="curve"/>
<line x1="105.273138021" y1="168.75" x2="314.726861979" y2="168.75" class="curve"/>
<line x1="105.225110677" y1="168.5" x2="314.774889323" y2="168.5" class="curve"/>
<line x1="105.177695313" y1="168.25" x2="314.822304688" y2="168.25" class="curve"/>
<line x1="105.130904948" y1="168.0" x2="314.869095052" y2="168.0" class="curve"/>
<line x1="105.084726563" y1="167.75" x2="314.915273438" y2="167.75" class="curve"/>
<line x1="105.039160156" y1="167.5" x2="314.960839844" y2="167.5" class="curve"/>
<line x1="104.994212240" y1="167.25" x2="315.005787760" y2="167.25" class="curve"/>
<line x1="104.949882813" y1="167.0" x2="315.050117188" y2="167.0" class="curve"/>
<line x1="104.906158854" y1="166.75" x2="315.093841146" y2="166.75" class="curve"/>
<line x1="104.863053385" y1="166.5" x2="315.136946615" y2="166.5" class="curve"/>
<line x1="104.820559896" y1="166.25" x2="315.179440104" y2="166.25" class="curve"/>
<line x1="104.778671875" y1="166.0" x2="315.221328125" y2="166.0" class="curve"/>
<line x1="104.737395833" y1="165.75" x2="315.262604167" y2="165.75" class="curve"/>
<line x1="104.696731771" y1="165.5" x2="315.303268229" y2="165.5" class="curve"/>
<line x1="104.656679688" y1="165.25" x2="315.343320313" y2="165.25" class="curve"/>
<line x1="104.617233073" y1="165.0" x2="315.382766927" y2="165.0" class="curve"/>
<line x1="104.578391927" y1="164.75" x2="315.421608073" y2="164.75" class="curve"/>
<line x1="104.540162760" y1="164.5" x2="315.459837240" y2="164.5" class="curve"/>
<line x1="104.502532552" y1="164.25" x2="315.497467448" y2="164.25" class="curve"/>
<line x1="104.465514323" y1="164.0" x2="315.534485677" y2="164.0" class="curve"/>
<line x1="104.429101563" y1="163.75" x2="315.570898438" y2="163.75" class="curve"/>
<line x1="104.393287760" y1="163.5" x2="315.606712240" y2="163.5" class="curve"/>
<line x1="104.358079427" y1="163.25" x2="315.641920573" y2="163.25" class="curve"/>
<line x1="104.323476563" y1="163.0" x2="315.676523438" y2="163.0" class="curve"/>
<line x1="104.289472656" y1="162.75" x2="315.710527344" y2="162.75" class="curve"/>
<line x1="104.256074219" y1="162.5" x2="315.743925781" y2="162.5" class="curve"/>
<line x1="104.223274740" y1="162.25" x2="315.776725260" y2="162.25" class="curve"/>
<line x1="104.191080729" y1="162.0" x2="315.808919271" y2="162.0" class="curve"/>
<line x1="104.159479167" y1="161.75" x2="315.840520833" y2="161.75" class="curve"/>
<line x1="104.128483073" y1="161.5" x2="315.871516927" y2="161.5" class="curve"/>
<line x1="104.098085938" y1="161.25" x2="315.901914063" y2="161.25" class="curve"/>
<line x1="104.068287760" y1="161.0" x2="315.931712240" y2="161.0" class="curve"/>
<line x1="104.039088542" y1="160.75" x2="315.960911458" y2="160.75" class="curve"/>
<line x1="104.010481771" y1="160.5" x2="315.989518229" y2="160.5" class="curve"/>
<line x1="103.982473958" y1="160.25" x2="316.017526042" y2="160.25" class="curve"/>
<line x1="103.955065104" y1="160.0" x2="316.044934896" y2="160.0" class="curve"/>
<line x1="103.928255208" y1="159.75" x2="316.071744792" y2="159.75" class="curve"/>
<line x1="103.902037760" y1="159.5" x2="316.097962240" y2="159.5" class="curve"/>
<line x1="103.876412760" y1="159.25" x2="316.123587240" y2="159.25" class="curve"/>
<line x1="103.851386719" y1="159.0" x2="316.148613281" y2="159.0" class="curve"/>
<line x1="103.826953125" y1="158.75" x2="316.173046875" y2="158.75" class="curve"/>
<line x1="103.803118490" y1="158.5" x2="316.196881510" y2="158.5" class="curve"/>
<line x1="103.779876302" y1="158.25" x2="316.220123698" y2="158.25" class="curve"/>
<line x1="103.757220052" y1="158.0" x2="316.242779948" y2="158.0" class="curve"/>
<line x1="103.735162760" y1="157.75" x2="316.264837240" y2="157.75" class="curve"/>
<line x1="103.713697917" y1="157.5" x2="316.286302083" y2="157.5" class="curve"/>
<line x1="103.692825521" y1="157.25" x2="316.307174479" y2="157.25" class="curve"/>
<line x1="103.672545573" y1="157.0" x2="316.327454427" y2="157.0" class="curve"/>
<line x1="103.652858073" y1="156.75" x2="316.347141927" y2="156.75" class="curve"/>
<line x1="103.633756510" y1="156.5" x2="316.366243490" y2="156.5" class="curve"/>
<line x1="103.615247396" y1="156.25" x2="316.384752604" y2="156.25" class="curve"/>
<line x1="103.597330729" y1="156.0" x2="316.402669271" y2="156.0" class="curve"/>
<line x1="103.580006510" y1="155.75" x2="316.419993490" y2="155.75" class="curve"/>
<line x1="103.563268229" y1="155.5" x2="316.436731771" y2="155.5" class="curve"/>
<line x1="103.547122396" y1="155.25" x2="316.452877604" y2="155.25" class="curve"/>
<line x1="103.5315625" y1="155.0" x2="316.4684375" y2="155.0" class="curve"/>
<line x1="103.516595052" y1="154.75" x2="316.483404948" y2="154.75" class="curve"/>
<line x1="103.502220052" y1="154.5" x2="316.497779948" y2="154.5" class="curve"/>
<line x1="103.488424479" y1="154.25" x2="316.511575521" y2="154.25" class="curve"/>
<line x1="103.475221354" y1="154.0" x2="316.524778646" y2="154.0" class="curve"/>
<line x1="103.462610677" y1="153.75" x2="316.537389323" y2="153.75" class="curve"/>
<line x1="103.450585938" y1="153.5" x2="316.549414063" y2="153.5" class="curve"/>
<line x1="103.439147135" y1="153.25" x2="316.560852865" y2="153.25" class="curve"/>
<line x1="103.428294271" y1="153.0" x2="316.571705729" y2="153.0" class="curve"/>
<line x1="103.418033854" y1="152.75" x2="316.581966146" y2="152.75" class="curve"/>
<line x1="103.408359375" y1="152.5" x2="316.591640625" y2="152.5" class="curve"/>
<line x1="103.399270833" y1="152.25" x2="316.600729167" y2="152.25" class="curve"/>
<line x1="103.390768229" y1="152.0" x2="316.609231771" y2="152.0" class="curve"/>
<line x1="103.382858073" y1="151.75" x2="316.617141927" y2="151.75" class="curve"/>
<line x1="103.375527344" y1="151.5" x2="316.624472656" y2="151.5" class="curve"/>
<line x1="103.368789063" y1="151.25" x2="316.631210938" y2="151.25" class="curve"/>
<line x1="103.362636719" y1="151.0" x2="316.637363281" y2="151.0" class="curve"/>
<line x1="103.357063802" y1="150.75" x2="316.642936198" y2="150.75" class="curve"/>
<line x1="103.352083333" y1="150.5" x2="316.647916667" y2="150.5" class="curve"/>
<line x1="103.347688802" y1="150.25" x2="316.652311198" y2="150.25" class="curve"/>
<line x1="103.343880208" y1="150.0" x2="316.656119792" y2="150.0" class="curve"/>
<line x1="103.340657552" y1="149.75" x2="316.659342448" y2="149.75" class="curve"/>
<line x1="103.338020833" y1="149.5" x2="316.661979167" y2="149.5" class="curve"/>
<line x1="103.335970052" y1="149.25" x2="316.664029948" y2="149.25" class="curve"/>
<line x1="103.334505208" y1="149.0" x2="316.665494792" y2="149.0" class="curve"/>
<line x1="103.333626302" y1="148.75" x2="316.666373698" y2="148.75" class="curve"/>
<line x1="103.333333333" y1="148.5" x2="316.666666667" y2="148.5" class="curve"/>
<line x1="103.333626302" y1="148.25" x2="316.666373698" y2="148.25" class="curve"/>
<line x1="103.334505208" y1="148.0" x2="316.665494792" y2="148.0" class="curve"/>
<line x1="103.335970052" y1="147.75" x2="316.664029948" y2="147.75" class="curve"/>
<line x1="103.338020833" y1="147.5" x2="316.661979167" y2="147.5" class="curve"/>
<line x1="103.340657552" y1="147.25" x2="316.659342448" y2="147.25" class="curve"/>
<line x1="103.343880208" y1="147.0" x2="316.656119792" y2="147.0" class="curve"/>
<line x1="103.347688802" y1="146.75" x2="316.652311198" y2="146.75" class="curve"/>
<line x1="103.352083333" y1="146.5" x2="316.647916667" y2="146.5" class="curve"/>
<line x1="103.357063802" y1="146.25" x2="316.642936198" y2="146.25" class="curve"/>
<line x1="103.362636719" y1="146.0" x2="316.637363281" y2="146.0" class="curve"/>
<line x1="103.368789063" y1="145.75" x2="316.631210938" y2="145.75" class="curve"/>
<line x1="103.375527344" y1="145.5" x2="316.624472656" y2="145.5" class="curve"/>
<line x1="103.382858073" y1="145.25" x2="316.617141927" y2="145.25" class="curve"/>
<line x1="103.390768229" y1="145.0" x2="316.609231771" y2="145.0" class="curve"/>
<line x1="103.399270833" y1="144.75" x2="316.600729167" y2="144.75" class="curve"/>
<line x1="103.408359375" y1="144.5" x2="316.591640625" y2="144.5" class="curve"/>
<line x1="103.418033854" y1="144.25" x2="316.581966146" y2="144.25" class="curve"/>
<line x1="103.428294271" y1="144.0" x2="316.571705729" y2="144.0" class="curve"/>
<line x1="103.439147135" y1="143.75" x2="316.560852865" y2="143.75" class="curve"/>
<line x1="103.450585938" y1="143.5" x2="316.549414063" y2="143.5" class="curve"/>
<line x1="103.462610677" y1="143.25" x2="316.537389323" y2="143.25" class="curve"/>
<line x1="103.475221354" y1="143.0" x2="316.524778646" y2="143.0" class="curve"/>
<line x1="103.488424479" y1="142.75" x2="316.511575521" y2="142.75" class="curve"/>
<line x1="103.502220052" y1="142.5" x2="316.497779948" y2="142.5" class="curve"/>
<line x1="103.516595052" y1="142.25" x2="316.483404948" y2="142.25" class="curve"/>
<line x1="103.5315625" y1="142.0" x2="316.4684375" y2="142.0" class="curve"/>
<line x1="103.547122396" y1="141.75" x2="316.452877604" y2="141.75" class="curve"/>
<line x1="103.563268229" y1="141.5" x2="316.436731771" y2="141.5" class="curve"/>
<line x1="103.580006510" y1="141.25" x2="316.419993490" y2="141.25" class="curve"/>
<line x1="103.597330729" y1="141.0" x2="316.402669271" y2="141.0" class="curve"/>
<line x1="103.615247396" y1="140.75" x2="316.384752604" y2="140.75" class="curve"/>
<line x1="103.633756510" y1="140.5" x2="316.366243490" y2="140.5" class="curve"/>
<line x1="103.652858073" y1="140.25" x2="316.347141927" y2="140.25" class="curve"/>
<line x1="103.672545573" y1="140.0" x2="316.327454427" y2="140.0" class="curve"/>
<line x1="103.692825521" y1="139.75" x2="316.307174479" y2="139.75" class="curve"/>
<line x1="103.713697917" y1="139.5" x2="316.286302083" y2="139.5" class="curve"/>
<line x1="103.735162760" y1="139.25" x2="316.264837240" y2="139.25" class="curve"/>
<line x1="103.757220052" y1="139.0" x2="316.242779948" y2="139.0" class="curve"/>
<line x1="103.779876302" y1="138.75" x2="316.220123698" y2="138.75" class="curve"/>
<line x1="103.803118490" y1="138.5" x2="316.196881510" y2="138.5" class="curve"/>
<line x1="103.826953125" y1="138.25" x2="316.173046875" y2="138.25" class="curve"/>
<line x1="103.851386719" y1="138.0" x2="316.148613281" y2="138.0" class="curve"/>
<line x1="103.876412760" y1="137.75" x2="316.123587240" y2="137.75" class="curve"/>
<line x1="103.902037760" y1="137.5" x2="316.097962240" y2="137.5" class="curve"/>
<line x1="103.928255208" y1="137.25" x2="316.071744792" y2="137.25" class="curve"/>
<line x1="103.955065104" y1="137.0" x2="316.044934896" y2="137.0" class="curve"/>
<line x1="103.982473958" y1="136.75" x2="316.017526042" y2="136.75" class="curve"/>
<line x1="104.010481771" y1="136.5" x2="315.989518229" y2="136.5" class="curve"/>
<line x1="104.039088542" y1="136.25" x2="315.960911458" y2="136.25" class="curve"/>
<line x1="104.068287760" y1="136.0" x2="315.931712240" y2="136.0" class="curve"/>
<line x1="104.098085938" y1="135.75" x2="315.901914063" y2="135.75" class="curve"/>
<line x1="104.128483073" y1="135.5" x2="315.871516927" y2="135.5" class="curve"/>
<line x1="104.159479167" y1="135.25" x2="315.840520833" y2="135.25" class="curve"/>
<line x1="104.191080729" y1="135.0" x2="315.808919271" y2="135.0" class="curve"/>
<line x1="104.223274740" y1="134.75" x2="315.776725260" y2="134.75" class="curve"/>
<line x1="104.256074219" y1="134.5" x2="315.743925781" y2="134.5" class="curve"/>
<line x1="104.289472656" y1="134.25" x2="315.710527344" y2="134.25" class="curve"/>
<line x1="104.323476563" y1="134.0" x2="315.676523438" y2="134.0" class="curve"/>
<line x1="104.358079427" y1="133.75" x2="315.641920573" y2="133.75" class="curve"/>
<line x1="104.393287760" y1="133.5" x2="315.606712240" y2="133.5" class="curve"/>
<line x1="104.429101563" y1="133.25" x2="315.570898438" y2="133.25" class="curve"/>
<line x1="104.465514323" y1="133.0" x2="315.534485677" y2="133.0" class="curve"/>
<line x1="104.502532552" y1="132.75" x2="315.497467448" y2="132.75" class="curve"/>
<line x1="104.540162760" y1="132.5" x2="315.459837240" y2="132.5" class="curve"/>
<line x1="104.578391927" y1="132.25" x2="315.421608073" y2="132.25" class="curve"/>
<line x1="104.617233073" y1="132.0" x2="315.382766927" y2="132.0" class="curve"/>
<line x1="104.656679688" y1="131.75" x2="315.343320313" y2="131.75" class="curve"/>
<line x1="104.696731771" y1="131.5" x2="315.303268229" y2="131.5" class="curve"/>
<line x1="104.737395833" y1="131.25" x2="315.262604167" y2="131.25" class="curve"/>
<line x1="104.778671875" y1="131.0" x2="315.221328125" y2="131.0" class="curve"/>
<line x1="104.820559896" y1="130.75" x2="315.179440104" y2="130.75" class="curve"/>
<line x1="104.863053385" y1="130.5" x2="315.136946615" y2="130.5" class="curve"/>
<line x1="104.906158854" y1="130.25" x2="315.093841146" y2="130.25" class="curve"/>
<line x1="104.949882813" y1="130.0" x2="315.050117188" y2="130.0" class="curve"/>
<line x1="104.994212240" y1="129.75" x2="315.005787760" y2="129.75" class="curve"/>
<line x1="105.039160156" y1="129.5" x2="314.960839844" y2="129.5" class="curve"/>
<line x1="105.084726563" y1="129.25" x2="314.915273438" y2="129.25" class="curve"/>
<line x1="105.130904948" y1="129.0" x2="314.869095052" y2="129.0" class="curve"/>
<line x1="105.177695313" y1="128.75" x2="314.822304688" y2="128.75" class="curve"/>
<line x1="105.225110677" y1="128.5" x2="314.774889323" y2="128.5" class="curve"/>
<line x1="105.273138021" y1="128.25" x2="314.726861979" y2="128.25" class="curve"/>
<line x1="105.321790365" y1="128.0" x2="314.678209635" y2="128.0" class="curve"/>
<line x1="105.371061198" y1="127.75" x2="314.628938802" y2="127.75" class="curve"/>
<line x1="105.420950521" y1="127.5" x2="314.579049479" y2="127.5" class="curve"/>
<line x1="105.471464844" y1="127.25" x2="314.528535156" y2="127.25" class="curve"/>
<line x1="105.522597656" y1="127.0" x2="314.477402344" y2="127.0" class="curve"/>
<line x1="105.574355469" y1="126.75" x2="314.425644531" y2="126.75" class="curve"/>
<line x1="105.626738281" y1="126.5" x2="314.373261719" y2="126.5" class="curve"/>
<line x1="105.679746094" y1="126.25" x2="314.320253906" y2="126.25" class="curve"/>
<line x1="105.733378906" y1="126.0" x2="314.266621094" y2="126.0" class="curve"/>
<line x1="105.787643229" y1="125.75" x2="314.212356771" y2="125.75" class="curve"/>
<line x1="105.842532552" y1="125.5" x2="314.157467448" y2="125.5" class="curve"/>
<line x1="105.898053385" y1="125.25" x2="314.101946615" y2="125.25" class="curve"/>
<line x1="105.954205729" y1="125.0" x2="314.045794271" y2="125.0" class="curve"/>
<line x1="106.010983073" y1="124.75" x2="313.989016927" y2="124.75" class="curve"/>
<line x1="106.068398438" y1="124.5" x2="313.931601563" y2="124.5" class="curve"/>
<line x1="106.126445313" y1="124.25" x2="313.873554688" y2="124.25" class="curve"/>
<line x1="106.185130208" y1="124.0" x2="313.814869792" y2="124.0" class="curve"/>
<line x1="106.244446615" y1="123.75" x2="313.755553385" y2="123.75" class="curve"/>
<line x1="106.304401042" y1="123.5" x2="313.695598958" y2="123.5" class="curve"/>
<line x1="106.364986979" y1="123.25" x2="313.635013021" y2="123.25" class="curve"/>
<line x1="106.426217448" y1="123.0" x2="313.573782552" y2="123.0" class="curve"/>
<line x1="106.488092448" y1="122.75" x2="313.511907552" y2="122.75" class="curve"/>
<line x1="106.550605469" y1="122.5" x2="313.449394531" y2="122.5" class="curve"/>
<line x1="106.613756510" y1="122.25" x2="313.386243490" y2="122.25" class="curve"/>
<line x1="106.677552083" y1="122.0" x2="313.322447917" y2="122.0" class="curve"/>
<line x1="106.741998698" y1="121.75" x2="313.258001302" y2="121.75" class="curve"/>
<line x1="106.807083333" y1="121.5" x2="313.192916667" y2="121.5" class="curve"/>
<line x1="106.872819010" y1="121.25" x2="313.127180990" y2="121.25" class="curve"/>
<line x1="106.939205729" y1="121.0" x2="313.060794271" y2="121.0" class="curve"/>
<line x1="107.006236979" y1="120.75" x2="312.993763021" y2="120.75" class="curve"/>
<line x1="107.073919271" y1="120.5" x2="312.926080729" y2="120.5" class="curve"/>
<line x1="107.142259115" y1="120.25" x2="312.857740885" y2="120.25" class="curve"/>
<line x1="107.21125" y1="120.0" x2="312.78875" y2="120.0" class="curve"/>
<line x1="107.280891927" y1="119.75" x2="312.719108073" y2="119.75" class="curve"/>
<line x1="107.351191406" y1="119.5" x2="312.648808594" y2="119.5" class="curve"/>
<line x1="107.422148438" y1="119.25" x2="312.577851563" y2="119.25" class="curve"/>
<line x1="107.493769531" y1="119.0" x2="312.506230469" y2="119.0" class="curve"/>
<line x1="107.566041667" y1="118.75" x2="312.433958333" y2="118.75" class="curve"/>
<line x1="107.638984375" y1="118.5" x2="312.361015625" y2="118.5" class="curve"/>
<line x1="107.712584635" y1="118.25" x2="312.287415365" y2="118.25" class="curve"/>
<line x1="107.786848958" y1="118.0" x2="312.213151042" y2="118.0" class="curve"/>
<line x1="107.861783854" y1="117.75" x2="312.138216146" y2="117.75" class="curve"/>
<line x1="107.937382813" y1="117.5" x2="312.062617188" y2="117.5" class="curve"/>
<line x1="108.013652344" y1="117.25" x2="311.986347656" y2="117.25" class="curve"/>
<line x1="108.090592448" y1="117.0" x2="311.909407552" y2="117.0" class="curve"/>
<line x1="108.168203125" y1="116.75" x2="311.831796875" y2="116.75" class="curve"/>
<line x1="108.246484375" y1="116.5" x2="311.753515625" y2="116.5" class="curve"/>
<line x1="108.325442708" y1="116.25" x2="311.674557292" y2="116.25" class="curve"/>
<line x1="108.405078125" y1="116.0" x2="311.594921875" y2="116.0" class="curve"/>
<line x1="108.485390625" y1="115.75" x2="311.514609375" y2="115.75" class="curve"/>
<line x1="108.566386719" y1="115.5" x2="311.433613281" y2="115.5" class="curve"/>
<line x1="108.648059896" y1="115.25" x2="311.351940104" y2="115.25" class="curve"/>
<line x1="108.730423177" y1="115.0" x2="311.269576823" y2="115.0" class="curve"/>
<line x1="108.813463542" y1="114.75" x2="311.186536458" y2="114.75" class="curve"/>
<line x1="108.897194010" y1="114.5" x2="311.102805990" y2="114.5" class="curve"/>
<line x1="108.981608073" y1="114.25" x2="311.018391927" y2="114.25" class="curve"/>
<line x1="109.06671875" y1="114.0" x2="310.93328125" y2="114.0" class="curve"/>
<line x1="109.152513021" y1="113.75" x2="310.847486979" y2="113.75" class="curve"/>
<line x1="109.239003906" y1="113.5" x2="310.760996094" y2="113.5" class="curve"/>
<line x1="109.326191406" y1="113.25" x2="310.673808594" y2="113.25" class="curve"/>
<line x1="109.414075521" y1="113.0" x2="310.585924479" y2="113.0" class="curve"/>
<line x1="109.502662760" y1="112.75" x2="310.497337240" y2="112.75" class="curve"/>
<line x1="109.591946615" y1="112.5" x2="310.408053385" y2="112.5" class="curve"/>
<line x1="109.681927083" y1="112.25" x2="310.318072917" y2="112.25" class="curve"/>
<line x1="109.772617188" y1="112.0" x2="310.227382813" y2="112.0" class="curve"/>
<line x1="109.864016927" y1="111.75" x2="310.135983073" y2="111.75" class="curve"/>
<line x1="109.956119792" y1="111.5" x2="310.043880208" y2="111.5" class="curve"/>
<line x1="110.048938802" y1="111.25" x2="309.951061198" y2="111.25" class="curve"/>
<line x1="110.142460938" y1="111.0" x2="309.857539063" y2="111.0" class="curve"/>
<line x1="110.236705729" y1="110.75" x2="309.763294271" y2="110.75" class="curve"/>
<line x1="110.331660156" y1="110.5" x2="309.668339844" y2="110.5" class="curve"/>
<line x1="110.427337240" y1="110.25" x2="309.572662760" y2="110.25" class="curve"/>
<line x1="110.523730469" y1="110.0" x2="309.476269531" y2="110.0" class="curve"/>
<line x1="110.620852865" y1="109.75" x2="309.379147135" y2="109.75" class="curve"/>
<line x1="110.718691406" y1="109.5" x2="309.281308594" y2="109.5" class="curve"/>
<line x1="110.817265625" y1="109.25" x2="309.182734375" y2="109.25" class="curve"/>
<line x1="110.9165625" y1="109.0" x2="309.0834375" y2="109.0" class="curve"/>
<line x1="111.016588542" y1="108.75" x2="308.983411458" y2="108.75" class="curve"/>
<line x1="111.117350260" y1="108.5" x2="308.882649740" y2="108.5" class="curve"/>
<line x1="111.218854167" y1="108.25" x2="308.781145833" y2="108.25" class="curve"/>
<line x1="111.321087240" y1="108.0" x2="308.678912760" y2="108.0" class="curve"/>
<line x1="111.4240625" y1="107.75" x2="308.5759375" y2="107.75" class="curve"/>
<line x1="111.527779948" y1="107.5" x2="308.472220052" y2="107.5" class="curve"/>
<line x1="111.632246094" y1="107.25" x2="308.367753906" y2="107.25" class="curve"/>
<line x1="111.737454427" y1="107.0" x2="308.262545573" y2="107.0" class="curve"/>
<line x1="111.843411458" y1="106.75" x2="308.156588542" y2="106.75" class="curve"/>
<line x1="111.950123698" y1="106.5" x2="308.049876302" y2="106.5" class="curve"/>
<line x1="112.057591146" y1="106.25" x2="307.942408854" y2="106.25" class="curve"/>
<line x1="112.165813802" y1="106.0" x2="307.834186198" y2="106.0" class="curve"/>
<line x1="112.274798177" y1="105.75" x2="307.725201823" y2="105.75" class="curve"/>
<line x1="112.384544271" y1="105.5" x2="307.615455729" y2="105.5" class="curve"/>
<line x1="112.495052083" y1="105.25" x2="307.504947917" y2="105.25" class="curve"/>
<line x1="112.606328125" y1="105.0" x2="307.393671875" y2="105.0" class="curve"/>
<line x1="112.718372396" y1="104.75" x2="307.281627604" y2="104.75" class="curve"/>
<line x1="112.831191406" y1="104.5" x2="307.168808594" y2="104.5" class="curve"/>
<line x1="112.944785156" y1="104.25" x2="307.055214844" y2="104.25" class="curve"/>
<line x1="113.059153646" y1="104.0" x2="306.940846354" y2="104.0" class="curve"/>
<line x1="113.174303385" y1="103.75" x2="306.825696615" y2="103.75" class="curve"/>
<line x1="113.290240885" y1="103.5" x2="306.709759115" y2="103.5" class="curve"/>
<line x1="113.406959635" y1="103.25" x2="306.593040365" y2="103.25" class="curve"/>
<line x1="113.524472656" y1="103.0" x2="306.475527344" y2="103.0" class="curve"/>
<line x1="113.642773438" y1="102.75" x2="306.357226563" y2="102.75" class="curve"/>
<line x1="113.761868490" y1="102.5" x2="306.238131510" y2="102.5" class="curve"/>
<line x1="113.881764323" y1="102.25" x2="306.118235677" y2="102.25" class="curve"/>
<line x1="114.002460938" y1="102.0" x2="305.997539063" y2="102.0" class="curve"/>
<line x1="114.123958333" y1="101.75" x2="305.876041667" y2="101.75" class="curve"/>
<line x1="114.246263021" y1="101.5" x2="305.753736979" y2="101.5" class="curve"/>
<line x1="114.369381510" y1="101.25" x2="305.630618490" y2="101.25" class="curve"/>
<line x1="114.493307292" y1="101.0" x2="305.506692708" y2="101.0" class="curve"/>
<line x1="114.618053385" y1="100.75" x2="305.381946615" y2="100.75" class="curve"/>
<line x1="114.743619792" y1="100.5" x2="305.256380208" y2="100.5" class="curve"/>
<line x1="114.870006510" y1="100.25" x2="305.129993490" y2="100.25" class="curve"/>
<line x1="114.997220052" y1="100.0" x2="305.002779948" y2="100.0" class="curve"/>
<line x1="115.125266927" y1="99.75" x2="304.874733073" y2="99.75" class="curve"/>
<line x1="115.254140625" y1="99.5" x2="304.745859375" y2="99.5" class="curve"/>
<line x1="115.383854167" y1="99.25" x2="304.616145833" y2="99.25" class="curve"/>
<line x1="115.514407552" y1="99.0" x2="304.485592448" y2="99.0" class="curve"/>
<line x1="115.645800781" y1="98.75" x2="304.354199219" y2="98.75" class="curve"/>
<line x1="115.778040365" y1="98.5" x2="304.221959635" y2="98.5" class="curve"/>
<line x1="115.911132813" y1="98.25" x2="304.088867188" y2="98.25" class="curve"/>
<line x1="116.045078125" y1="98.0" x2="303.954921875" y2="98.0" class="curve"/>
<line x1="116.179876302" y1="97.75" x2="303.820123698" y2="97.75" class="curve"/>
<line x1="116.315540365" y1="97.5" x2="303.684459635" y2="97.5" class="curve"/>
<line x1="116.452070313" y1="97.25" x2="303.547929688" y2="97.25" class="curve"/>
<line x1="116.589466146" y1="97.0" x2="303.410533854" y2="97.0" class="curve"/>
<line x1="116.727734375" y1="96.75" x2="303.272265625" y2="96.75" class="curve"/>
<line x1="116.866881510" y1="96.5" x2="303.133118490" y2="96.5" class="curve"/>
<line x1="117.006907552" y1="96.25" x2="302.993092448" y2="96.25" class="curve"/>
<line x1="117.147819010" y1="96.0" x2="302.852180990" y2="96.0" class="curve"/>
<line x1="117.289615885" y1="95.75" x2="302.710384115" y2="95.75" class="curve"/>
<line x1="117.432304688" y1="95.5" x2="302.567695313" y2="95.5" class="curve"/>
<line x1="117.575891927" y1="95.25" x2="302.424108073" y2="95.25" class="curve"/>
<line x1="117.720384115" y1="95.0" x2="302.279615885" y2="95.0" class="curve"/>
<line x1="117.865774740" y1="94.75" x2="302.134225260" y2="94.75" class="curve"/>
<line x1="118.012076823" y1="94.5" x2="301.987923177" y2="94.5" class="curve"/>
<line x1="118.159296875" y1="94.25" x2="301.840703125" y2="94.25" class="curve"/>
<line x1="118.307428385" y1="94.0" x2="301.692571615" y2="94.0" class="curve"/>
<line x1="118.456484375" y1="93.75" x2="301.543515625" y2="93.75" class="curve"/>
<line x1="118.606464844" y1="93.5" x2="301.393535156" y2="93.5" class="curve"/>
<line x1="118.757382813" y1="93.25" x2="301.242617188" y2="93.25" class="curve"/>
<line x1="118.909231771" y1="93.0" x2="301.090768229" y2="93.0" class="curve"/>
<line x1="119.062024740" y1="92.75" x2="300.937975260" y2="92.75" class="curve"/>
<line x1="119.215761719" y1="92.5" x2="300.784238281" y2="92.5" class="curve"/>
<line x1="119.370449219" y1="92.25" x2="300.629550781" y2="92.25" class="curve"/>
<line x1="119.52609375" y1="92.0" x2="300.47390625" y2="92.0" class="curve"/>
<line x1="119.682695313" y1="91.75" x2="300.317304688" y2="91.75" class="curve"/>
<line x1="119.840266927" y1="91.5" x2="300.159733073" y2="91.5" class="curve"/>
<line x1="119.998802083" y1="91.25" x2="300.001197917" y2="91.25" class="curve"/>
<line x1="120.158320313" y1="91.0" x2="299.841679688" y2="91.0" class="curve"/>
<line x1="120.318815104" y1="90.75" x2="299.681184896" y2="90.75" class="curve"/>
<line x1="120.480292969" y1="90.5" x2="299.519707031" y2="90.5" class="curve"/>
<line x1="120.642766927" y1="90.25" x2="299.357233073" y2="90.25" class="curve"/>
<line x1="120.806236979" y1="90.0" x2="299.193763021" y2="90.0" class="curve"/>
<line x1="120.970703125" y1="89.75" x2="299.029296875" y2="89.75" class="curve"/>
<line x1="121.136184896" y1="89.5" x2="298.863815104" y2="89.5" class="curve"/>
<line x1="121.302675781" y1="89.25" x2="298.697324219" y2="89.25" class="curve"/>
<line x1="121.470188802" y1="89.0" x2="298.529811198" y2="89.0" class="curve"/>
<line x1="121.638723958" y1="88.75" x2="298.361276042" y2="88.75" class="curve"/>
<line x1="121.808287760" y1="88.5" x2="298.191712240" y2="88.5" class="curve"/>
<line x1="121.978893229" y1="88.25" x2="298.021106771" y2="88.25" class="curve"/>
<line x1="122.150540365" y1="88.0" x2="297.849459635" y2="88.0" class="curve"/>
<line x1="122.323235677" y1="87.75" x2="297.676764323" y2="87.75" class="curve"/>
<line x1="122.496985677" y1="87.5" x2="297.503014323" y2="87.5" class="curve"/>
<line x1="122.671796875" y1="87.25" x2="297.328203125" y2="87.25" class="curve"/>
<line x1="122.847675781" y1="87.0" x2="297.152324219" y2="87.0" class="curve"/>
<line x1="123.024628906" y1="86.75" x2="296.975371094" y2="86.75" class="curve"/>
<line x1="123.202662760" y1="86.5" x2="296.797337240" y2="86.5" class="curve"/>
<line x1="123.381783854" y1="86.25" x2="296.618216146" y2="86.25" class="curve"/>
<line x1="123.561998698" y1="86.0" x2="296.438001302" y2="86.0" class="curve"/>
<line x1="123.743320313" y1="85.75" x2="296.256679688" y2="85.75" class="curve"/>
<line x1="123.925742188" y1="85.5" x2="296.074257813" y2="85.5" class="curve"/>
<line x1="124.109283854" y1="85.25" x2="295.890716146" y2="85.25" class="curve"/>
<line x1="124.293945313" y1="85.0" x2="295.706054688" y2="85.0" class="curve"/>
<line x1="124.479739583" y1="84.75" x2="295.520260417" y2="84.75" class="curve"/>
<line x1="124.666666667" y1="84.5" x2="295.333333333" y2="84.5" class="curve"/>
<line x1="124.854739583" y1="84.25" x2="295.145260417" y2="84.25" class="curve"/>
<line x1="125.043964844" y1="84.0" x2="294.956035156" y2="84.0" class="curve"/>
<line x1="125.234348958" y1="83.75" x2="294.765651042" y2="83.75" class="curve"/>
<line x1="125.425904948" y1="83.5" x2="294.574095052" y2="83.5" class="curve"/>
<line x1="125.618632813" y1="83.25" x2="294.381367188" y2="83.25" class="curve"/>
<line x1="125.812545573" y1="83.0" x2="294.187454427" y2="83.0" class="curve"/>
<line x1="126.007649740" y1="82.75" x2="293.992350260" y2="82.75" class="curve"/>
<line x1="126.203951823" y1="82.5" x2="293.796048177" y2="82.5" class="curve"/>
<line x1="126.401464844" y1="82.25" x2="293.598535156" y2="82.25" class="curve"/>
<line x1="126.600195313" y1="82.0" x2="293.399804688" y2="82.0" class="curve"/>
<line x1="126.800149740" y1="81.75" x2="293.199850260" y2="81.75" class="curve"/>
<line x1="127.001341146" y1="81.5" x2="292.998658854" y2="81.5" class="curve"/>
<line x1="127.203769531" y1="81.25" x2="292.796230469" y2="81.25" class="curve"/>
<line x1="127.407460938" y1="81.0" x2="292.592539063" y2="81.0" class="curve"/>
<line x1="127.612408854" y1="80.75" x2="292.387591146" y2="80.75" class="curve"/>
<line x1="127.818626302" y1="80.5" x2="292.181373698" y2="80.5" class="curve"/>
<line x1="128.026132813" y1="80.25" x2="291.973867188" y2="80.25" class="curve"/>
<line x1="128.234921875" y1="80.0" x2="291.765078125" y2="80.0" class="curve"/>
<line x1="128.445019531" y1="79.75" x2="291.554980469" y2="79.75" class="curve"/>
<line x1="128.656419271" y1="79.5" x2="291.343580729" y2="79.5" class="curve"/>
<line x1="128.869147135" y1="79.25" x2="291.130852865" y2="79.25" class="curve"/>
<line x1="129.083203125" y1="79.0" x2="290.916796875" y2="79.0" class="curve"/>
<line x1="129.298606771" y1="78.75" x2="290.701393229" y2="78.75" class="curve"/>
<line x1="129.515358073" y1="78.5" x2="290.484641927" y2="78.5" class="curve"/>
<line x1="129.733476563" y1="78.25" x2="290.266523438" y2="78.25" class="curve"/>
<line x1="129.952962240" y1="78.0" x2="290.047037760" y2="78.0" class="curve"/>
<line x1="130.173841146" y1="77.75" x2="289.826158854" y2="77.75" class="curve"/>
<line x1="130.396119792" y1="77.5" x2="289.603880208" y2="77.5" class="curve"/>
<line x1="130.619804688" y1="77.25" x2="289.380195313" y2="77.25" class="curve"/>
<line x1="130.844915365" y1="77.0" x2="289.155084635" y2="77.0" class="curve"/>
<line x1="131.071451823" y1="76.75" x2="288.928548177" y2="76.75" class="curve"/>
<line x1="131.299440104" y1="76.5" x2="288.700559896" y2="76.5" class="curve"/>
<line x1="131.528886719" y1="76.25" x2="288.471113281" y2="76.25" class="curve"/>
<line x1="131.759804688" y1="76.0" x2="288.240195313" y2="76.0" class="curve"/>
<line x1="131.992207031" y1="75.75" x2="288.007792969" y2="75.75" class="curve"/>
<line x1="132.226113281" y1="75.5" x2="287.773886719" y2="75.5" class="curve"/>
<line x1="132.461523438" y1="75.25" x2="287.538476563" y2="75.25" class="curve"/>
<line x1="132.698463542" y1="75.0" x2="287.301536458" y2="75.0" class="curve"/>
<line x1="132.936940104" y1="74.75" x2="287.063059896" y2="74.75" class="curve"/>
<line x1="133.176972656" y1="74.5" x2="286.823027344" y2="74.5" class="curve"/>
<line x1="133.418567708" y1="74.25" x2="286.581432292" y2="74.25" class="curve"/>
<line x1="133.661751302" y1="74.0" x2="286.338248698" y2="74.0" class="curve"/>
<line x1="133.906536458" y1="73.75" x2="286.093463542" y2="73.75" class="curve"/>
<line x1="134.152929688" y1="73.5" x2="285.847070313" y2="73.5" class="curve"/>
<line x1="134.400957031" y1="73.25" x2="285.599042969" y2="73.25" class="curve"/>
<line x1="134.650631510" y1="73.0" x2="285.349368490" y2="73.0" class="curve"/>
<line x1="134.901959635" y1="72.75" x2="285.098040365" y2="72.75" class="curve"/>
<line x1="135.154973958" y1="72.5" x2="284.845026042" y2="72.5" class="curve"/>
<line x1="135.409680990" y1="72.25" x2="284.590319010" y2="72.25" class="curve"/>
<line x1="135.666106771" y1="72.0" x2="284.333893229" y2="72.0" class="curve"/>
<line x1="135.924257813" y1="71.75" x2="284.075742188" y2="71.75" class="curve"/>
<line x1="136.184160156" y1="71.5" x2="283.815839844" y2="71.5" class="curve"/>
<line x1="136.445833333" y1="71.25" x2="283.554166667" y2="71.25" class="curve"/>
<line x1="136.709290365" y1="71.0" x2="283.290709635" y2="71.0" class="curve"/>
<line x1="136.974557292" y1="70.75" x2="283.025442708" y2="70.75" class="curve"/>
<line x1="137.241647135" y1="70.5" x2="282.758352865" y2="70.5" class="curve"/>
<line x1="137.510585938" y1="70.25" x2="282.489414063" y2="70.25" class="curve"/>
<line x1="137.781386719" y1="70.0" x2="282.218613281" y2="70.0" class="curve"/>
<line x1="138.054082031" y1="69.75" x2="281.945917969" y2="69.75" class="curve"/>
<line x1="138.328684896" y1="69.5" x2="281.671315104" y2="69.5" class="curve"/>
<line x1="138.605214844" y1="69.25" x2="281.394785156" y2="69.25" class="curve"/>
<line x1="138.883704427" y1="69.0" x2="281.116295573" y2="69.0" class="curve"/>
<line x1="139.164166667" y1="68.75" x2="280.835833333" y2="68.75" class="curve"/>
<line x1="139.446634115" y1="68.5" x2="280.553365885" y2="68.5" class="curve"/>
<line x1="139.731119792" y1="68.25" x2="280.268880208" y2="68.25" class="curve"/>
<line x1="140.017662760" y1="68.0" x2="279.982337240" y2="68.0" class="curve"/>
<line x1="140.306276042" y1="67.75" x2="279.693723958" y2="67.75" class="curve"/>
<line x1="140.596992188" y1="67.5" x2="279.403007813" y2="67.5" class="curve"/>
<line x1="140.889830729" y1="67.25" x2="279.110169271" y2="67.25" class="curve"/>
<line x1="141.184830729" y1="67.0" x2="278.815169271" y2="67.0" class="curve"/>
<line x1="141.482005208" y1="66.75" x2="278.517994792" y2="66.75" class="curve"/>
<line x1="141.781399740" y1="66.5" x2="278.218600260" y2="66.5" class="curve"/>
<line x1="142.083027344" y1="66.25" x2="277.916972656" y2="66.25" class="curve"/>
<line x1="142.386927083" y1="66.0" x2="277.613072917" y2="66.0" class="curve"/>
<line x1="142.693125" y1="65.75" x2="277.306875" y2="65.75" class="curve"/>
<line x1="143.001660156" y1="65.5" x2="276.998339844" y2="65.5" class="curve"/>
<line x1="143.312552083" y1="65.25" x2="276.687447917" y2="65.25" class="curve"/>
<line x1="143.625852865" y1="65.0" x2="276.374147135" y2="65.0" class="curve"/>
<line x1="143.941575521" y1="64.75" x2="276.058424479" y2="64.75" class="curve"/>
<line x1="144.259772135" y1="64.5" x2="275.740227865" y2="64.5" class="curve"/>
<line x1="144.58046875" y1="64.25" x2="275.41953125" y2="64.25" class="curve"/>
<line x1="144.903704427" y1="64.0" x2="275.096295573" y2="64.0" class="curve"/>
<line x1="145.229518229" y1="63.75" x2="274.770481771" y2="63.75" class="curve"/>
<line x1="145.557949219" y1="63.5" x2="274.442050781" y2="63.5" class="curve"/>
<line x1="145.889036458" y1="63.25" x2="274.110963542" y2="63.25" class="curve"/>
<line x1="146.222825521" y1="63.0" x2="273.777174479" y2="63.0" class="curve"/>
<line x1="146.559355469" y1="62.75" x2="273.440644531" y2="62.75" class="curve"/>
<line x1="146.898671875" y1="62.5" x2="273.101328125" y2="62.5" class="curve"/>
<line x1="147.240813802" y1="62.25" x2="272.759186198" y2="62.25" class="curve"/>
<line x1="147.585839844" y1="62.0" x2="272.414160156" y2="62.0" class="curve"/>
<line x1="147.933782552" y1="61.75" x2="272.066217448" y2="61.75" class="curve"/>
<line x1="148.284707031" y1="61.5" x2="271.715292969" y2="61.5" class="curve"/>
<line x1="148.638652344" y1="61.25" x2="271.361347656" y2="61.25" class="curve"/>
<line x1="148.995677083" y1="61.0" x2="271.004322917" y2="61.0" class="curve"/>
<line x1="149.355833333" y1="60.75" x2="270.644166667" y2="60.75" class="curve"/>
<line x1="149.719173177" y1="60.5" x2="270.280826823" y2="60.5" class="curve"/>
<line x1="150.085768229" y1="60.25" x2="269.914231771" y2="60.25" class="curve"/>
<line x1="150.455664063" y1="60.0" x2="269.544335938" y2="60.0" class="curve"/>
<line x1="150.828932292" y1="59.75" x2="269.171067708" y2="59.75" class="curve"/>
<line x1="151.205631510" y1="59.5" x2="268.794368490" y2="59.5" class="curve"/>
<line x1="151.585826823" y1="59.25" x2="268.414173177" y2="59.25" class="curve"/>
<line x1="151.969596354" y1="59.0" x2="268.030403646" y2="59.0" class="curve"/>
<line x1="152.356998698" y1="58.75" x2="267.643001302" y2="58.75" class="curve"/>
<line x1="152.748118490" y1="58.5" x2="267.251881510" y2="58.5" class="curve"/>
<line x1="153.143027344" y1="58.25" x2="266.856972656" y2="58.25" class="curve"/>
<line x1="153.541803385" y1="58.0" x2="266.458196615" y2="58.0" class="curve"/>
<line x1="153.94453125" y1="57.75" x2="266.05546875" y2="57.75" class="curve"/>
<line x1="154.351302083" y1="57.5" x2="265.648697917" y2="57.5" class="curve"/>
<line x1="154.762194010" y1="57.25" x2="265.237805990" y2="57.25" class="curve"/>
<line x1="155.177304688" y1="57.0" x2="264.822695313" y2="57.0" class="curve"/>
<line x1="155.596735026" y1="56.75" x2="264.403264974" y2="56.75" class="curve"/>
<line x1="156.020579427" y1="56.5" x2="263.979420573" y2="56.5" class="curve"/>
<line x1="156.448948568" y1="56.25" x2="263.551051432" y2="56.25" class="curve"/>
<line x1="156.881943359" y1="56.0" x2="263.118056641" y2="56.0" class="curve"/>
<line x1="157.3196875" y1="55.75" x2="262.6803125" y2="55.75" class="curve"/>
<line x1="157.762294922" y1="55.5" x2="262.237705078" y2="55.5" class="curve"/>
<line x1="158.209892578" y1="55.25" x2="261.790107422" y2="55.25" class="curve"/>
<line x1="158.662607422" y1="55.0" x2="261.337392578" y2="55.0" class="curve"/>
<line x1="159.120579427" y1="54.75" x2="260.879420573" y2="54.75" class="curve"/>
<line x1="159.583951823" y1="54.5" x2="260.416048177" y2="54.5" class="curve"/>
<line x1="160.052874349" y1="54.25" x2="259.947125651" y2="54.25" class="curve"/>
<line x1="160.527503255" y1="54.0" x2="259.472496745" y2="54.0" class="curve"/>
<line x1="161.008007813" y1="53.75" x2="258.991992188" y2="53.75" class="curve"/>
<line x1="161.494560547" y1="53.5" x2="258.505439453" y2="53.5" class="curve"/>
<line x1="161.98734375" y1="53.25" x2="258.01265625" y2="53.25" class="curve"/>
<line x1="162.486552734" y1="53.0" x2="257.513447266" y2="53.0" class="curve"/>
<line x1="162.992392578" y1="52.75" x2="257.007607422" y2="52.75" class="curve"/>
<line x1="163.505078125" y1="52.5" x2="256.494921875" y2="52.5" class="curve"/>
<line x1="164.024840495" y1="52.25" x2="255.975159505" y2="52.25" class="curve"/>
<line x1="164.551920573" y1="52.0" x2="255.448079427" y2="52.0" class="curve"/>
<line x1="165.086578776" y1="51.75" x2="254.913421224" y2="51.75" class="curve"/>
<line x1="165.629088542" y1="51.5" x2="254.370911458" y2="51.5" class="curve"/>
<line x1="166.179739583" y1="51.25" x2="253.820260417" y2="51.25" class="curve"/>
<line x1="166.738841146" y1="51.0" x2="253.261158854" y2="51.0" class="curve"/>
<line x1="167.306731771" y1="50.75" x2="252.693268229" y2="50.75" class="curve"/>
<line x1="167.883759766" y1="50.5" x2="252.116240234" y2="50.5" class="curve"/>
<line x1="168.470309245" y1="50.25" x2="251.529690755" y2="50.25" class="curve"/>
<line x1="169.066790365" y1="50.0" x2="250.933209635" y2="50.0" class="curve"/>
<line x1="169.673639323" y1="49.75" x2="250.326360677" y2="49.75" class="curve"/>
<line x1="170.291337891" y1="49.5" x2="249.708662109" y2="49.5" class="curve"/>
<line x1="170.920397135" y1="49.25" x2="249.079602865" y2="49.25" class="curve"/>
<line x1="171.561376953" y1="49.0" x2="248.438623047" y2="49.0" class="curve"/>
<line x1="172.214879557" y1="48.75" x2="247.785120443" y2="48.75" class="curve"/>
<line x1="172.881572266" y1="48.5" x2="247.118427734" y2="48.5" class="curve"/>
<line x1="173.562171224" y1="48.25" x2="246.437828776" y2="48.25" class="curve"/>
<line x1="174.257480469" y1="48.0" x2="245.742519531" y2="48.0" class="curve"/>
<line x1="174.968365885" y1="47.75" x2="245.031634115" y2="47.75" class="curve"/>
<line x1="175.695804036" y1="47.5" x2="244.304195964" y2="47.5" class="curve"/>
<line x1="176.440869141" y1="47.25" x2="243.559130859" y2="47.25" class="curve"/>
<line x1="177.204759115" y1="47.0" x2="242.795240885" y2="47.0" class="curve"/>
<line x1="177.988824870" y1="46.75" x2="242.011175130" y2="46.75" class="curve"/>
<line x1="178.794586589" y1="46.5" x2="241.205413411" y2="46.5" class="curve"/>
<line x1="179.623772786" y1="46.25" x2="240.376227214" y2="46.25" class="curve"/>
<line x1="180.478349609" y1="46.0" x2="239.521650391" y2="46.0" class="curve"/>
<line x1="181.360598958" y1="45.75" x2="238.639401042" y2="45.75" class="curve"/>
<line x1="182.273157552" y1="45.5" x2="237.726842448" y2="45.5" class="curve"/>
<line x1="183.219124349" y1="45.25" x2="236.780875651" y2="45.25" class="curve"/>
<line x1="184.202174479" y1="45.0" x2="235.797825521" y2="45.0" class="curve"/>
<line x1="185.226722005" y1="44.75" x2="234.773277995" y2="44.75" class="curve"/>
<line x1="186.298147786" y1="44.5" x2="233.701852214" y2="44.5" class="curve"/>
<line x1="187.423125" y1="44.25" x2="232.576875" y2="44.25" class="curve"/>
<line x1="188.610100911" y1="44.0" x2="231.389899089" y2="44.0" class="curve"/>
<line x1="189.870040690" y1="43.75" x2="230.129959310" y2="43.75" class="curve"/>
<line x1="191.217620443" y1="43.5" x2="228.782379557" y2="43.5" class="curve"/>
<line x1="192.673277995" y1="43.25" x2="227.326722005" y2="43.25" class="curve"/>
<line x1="194.266984049" y1="43.0" x2="225.733015951" y2="43.0" class="curve"/>
<line x1="196.045958659" y1="42.75" x2="223.954041341" y2="42.75" class="curve"/>
<line x1="198.092952474" y1="42.5" x2="221.907047526" y2="42.5" class="curve"/>
<line x1="200.581121419" y1="42.25" x2="219.418878581" y2="42.25" class="curve"/>
<line x1="204.039481608" y1="42.0" x2="215.960518392" y2="42.0" class="curve"/>
</svg>