<?xml version="1.0" encoding="utf-8"?>
<!-- Generator: Grasshopper 1.0.0, Redback Plugin. SVG Version: 6.00 Build 0) Made by Andrew Butler at Cox Architecture -->
<!DOCTYPE svg PUBLIC "-//W3C//DTD SVG 1.1//EN" "http://www.w3.org/Graphics/SVG/1.1/DTD/svg11.dtd">
<svg version="1.1" xmlns="http://www.w3.org/2000/svg" xmlns:xlink="http://www.w3.org/1999/xlink" x="0px" y="0px"
width="420.0mm" height="297.0mm" viewBox="0 0 420.0 297.0" xml:space="preserve">
<style type="text/css">
text{
font-size: 1mm;
font-family: "IM FELL DW Pica SC";
text-anchor:middle;
}
</style>
<text  transform="matrix(1.0 0.0 0.0 1.0 114.237037037 260.366666667)">A</text>
<text  transform="matrix(1.0 0.0 0.0 1.0 138.177777778 260.366666667)">B</text>
<text  transform="matrix(1.0 0.0 0.0 1.0 162.118518519 260.366666667)">C</text>
<text  transform="matrix(1.0 0.0 0.0 1.0 186.059259259 260.366666667)">D</text>
<text  transform="matrix(1.0 0.0 0.0 1.0 210.0 260.366666667)">E</text>
<text  transform="matrix(1.0 0.0 0.0 1.0 233.940740741 260.366666667)">F</text>
<text  transform="matrix(1.0 0.0 0.0 1.0 257.881481481 260.366666667)">G</text>
<text  transform="matrix(1.0 0.0 0.0 1.0 281.822222222 260.366666667)">H</text>
<text  transform="matrix(1.0 0.0 0.0 1.0 305.762962963 260.366666667)">I</text>
<text  transform="matrix(1.0 0.0 0.0 1.0 114.237037037 38.2333333333)">A</text>
<text  transform="matrix(1.0 0.0 0.0 1.0 138.177777778 38.2333333333)">B</text>
<text  transform="matrix(1.0 0.0 0.0 1.0 162.118518519 38.2333333333)">C</text>
<text  transform="matrix(1.0 0.0 0.0 1.0 186.059259259 38.2333333333)">D</text>
<text  transform="matrix(1.0 0.0 0.0 1.0 210.0 38.2333333333)">E</text>
<text  transform="matrix(1.0 0.0 0.0 1.0 233.940740741 38.2333333333)">F</text>
<text  transform="matrix(1.0 0.0 0.0 1.0 257.881481481 38.2333333333)">G</text>
<text  transform="matrix(1.0 0.0 0.0 1.0 281.822222222 38.2333333333)">H</text>
<text  transform="matrix(1.0 0.0 0.0 1.0 305.762962963 38.2333333333)">I</text>
</svg>