<?xml version="1.0" encoding="utf-8"?>
<!-- Generator: Grasshopper 1.0.0, Redback Plugin. SVG Version: 6.00 Build 0) Made by Andrew Butler at Cox Architecture -->
<!DOCTYPE svg PUBLIC "-//W3C//DTD SVG 1.1//EN" "http://www.w3.org/Graphics/SVG/1.1/DTD/svg11.dtd">
<svg version="1.1" xmlns="http://www.w3.org/2000/svg" xmlns:xlink="http://www.w3.org/1999/xlink" x="0px" y="0px"
width="420.0mm" height="297.0mm" viewBox="0 0 420.0 297.0" xml:space="preserve">
<style type="text/css">

.curve{
fill:None;
stroke:#000;
stroke-width:0.05px;
}
</style>
<polygon points="42.86,218.41 47.70,215.58 75.90,200.93 97.06,192.44 112.13,187.96 138.00,183.25 143.33,182.16 145.47,181.50 146.90,180.90 148.20,180.21 149.39,179.42 150.50,178.52 151.53,177.53 152.79,176.10 154.38,173.88 162.11,160.23 164.20,157.30 166.22,154.98 168.06,153.24 169.90,151.79 171.82,150.54 174.18,149.31 176.67,148.30 179.91,147.34 184.35,146.48 190.40,145.90 190.93,145.88 192.07,145.78 193.20,145.58 201.99,143.98 205.63,143.71 208.55,143.76 211.62,144.12 214.94,144.85 219.49,146.31 230.93,151.34 230.96,151.36 231.96,151.79 232.61,152.03 238.07,154.00 243.96,156.68 247.62,158.80 249.84,160.39 251.80,162.08 253.28,163.61 254.59,165.23 255.93,167.24 257.23,169.70 260.39,177.75 261.81,180.93 262.86,182.77 264.05,184.47 265.18,185.79 266.64,187.22 268.50,188.73 270.30,189.95 273.42,191.67 278.28,193.77 284.68,195.86 293.79,197.92 302.49,199.06 311.58,199.39 319.27,198.91 325.50,197.89 330.21,196.64 333.59,195.42 336.66,194.02 339.52,192.39 341.84,190.76 343.63,189.26 345.26,187.66 347.14,189.41 346.44,190.13 344.89,191.58 342.36,193.57 339.89,195.17 336.76,196.83 333.53,198.20 328.83,199.72 323.27,200.93 316.37,201.75 308.60,201.95 299.64,201.35 290.18,199.84 281.78,197.68 275.45,195.41 271.16,193.40 268.26,191.68 266.14,190.16 264.22,188.48 262.67,186.83 261.41,185.22 260.30,183.51 259.03,181.09 254.95,170.88 253.75,168.60 252.62,166.88 251.46,165.43 250.22,164.12 248.78,162.83 246.69,161.27 244.16,159.71 239.37,157.33 232.53,154.70 231.31,154.35 230.41,154.17 229.52,154.06 211.44,153.13 205.56,152.45 200.72,151.39 194.56,149.41 194.47,149.38 193.33,149.01 192.21,148.76 191.68,148.67 190.80,148.57 189.93,148.54 188.78,148.58 183.44,149.23 179.70,150.04 176.89,150.95 174.88,151.82 173.12,152.76 171.59,153.74 169.77,155.15 168.06,156.77 166.29,158.79 164.26,161.64 157.92,173.02 155.79,176.38 154.46,178.10 153.14,179.56 151.78,180.80 150.46,181.81 149.02,182.70 147.68,183.37 145.79,184.10 143.44,184.78 112.75,190.45 95.58,195.67 73.40,204.93 44.18,220.62" class="curve"/>
<polygon points="213.34,151.24 206.84,150.63 201.91,149.64 196.69,148.06 196.64,148.03 196.58,148.01 196.53,147.97 196.49,147.94 196.44,147.89 196.41,147.85 196.37,147.80 196.34,147.75 196.32,147.69 196.30,147.64 196.29,147.58 196.28,147.52 196.28,147.46 196.28,147.40 196.29,147.34 196.31,147.28 196.33,147.23 196.35,147.18 196.39,147.12 196.42,147.08 196.46,147.03 196.51,146.99 196.55,146.96 196.61,146.93 196.66,146.90 196.72,146.88 196.77,146.87 202.69,145.91 205.58,145.71 208.36,145.76 211.16,146.07 214.08,146.69 218.36,148.03 227.39,151.88" class="curve"/>
<polygon points="44.16,220.74 44.18,220.73 73.44,205.02 95.61,195.77 112.78,190.55 143.46,184.88 145.82,184.20 147.72,183.46 149.07,182.78 150.52,181.89 151.85,180.88 153.21,179.63 154.54,178.16 155.87,176.43 158.00,173.07 164.34,161.69 166.37,158.85 168.14,156.83 169.84,155.23 171.65,153.82 173.17,152.84 174.92,151.91 176.93,151.04 179.73,150.14 183.45,149.32 188.79,148.68 189.93,148.64 190.79,148.67 191.67,148.77 192.19,148.85 193.30,149.11 194.44,149.47 194.52,149.51 200.69,151.49 205.54,152.55 211.43,153.23 229.51,154.16 230.39,154.27 231.29,154.45 232.50,154.80 239.34,157.43 244.11,159.80 246.63,161.35 248.72,162.91 250.15,164.19 251.39,165.50 252.54,166.94 253.66,168.65 254.86,170.92 258.94,181.13 260.22,183.56 261.33,185.28 262.59,186.90 264.16,188.56 266.08,190.24 268.20,191.77 271.12,193.49 275.42,195.50 281.75,197.78 290.17,199.94 299.63,201.45 308.60,202.05 316.38,201.85 323.29,201.03 328.86,199.81 333.57,198.30 336.80,196.92 339.95,195.25 342.42,193.65 344.95,191.66 346.51,190.20 347.25,189.43 347.26,189.41 347.25,189.39 347.24,189.37 345.28,187.55 345.26,187.54 345.23,187.54 345.22,187.55 343.56,189.19 341.77,190.69 339.47,192.30 336.61,193.93 333.55,195.33 330.17,196.55 325.47,197.79 319.25,198.81 311.57,199.29 302.50,198.96 293.81,197.82 284.71,195.76 278.31,193.67 273.47,191.58 270.35,189.86 268.56,188.65 266.70,187.15 265.25,185.72 264.13,184.40 262.94,182.71 261.90,180.88 260.48,177.71 257.32,169.65 256.01,167.19 254.66,165.17 253.35,163.55 251.86,162.00 249.90,160.31 247.67,158.72 244.00,156.59 238.10,153.91 232.65,151.93 232.00,151.70 231.01,151.27 230.97,151.25 219.52,146.22 214.96,144.75 211.63,144.02 208.55,143.66 205.63,143.61 201.97,143.88 193.18,145.48 193.18,145.48 192.05,145.68 190.92,145.78 190.39,145.80 184.33,146.38 179.89,147.24 176.63,148.21 174.14,149.22 171.77,150.46 169.84,151.71 167.99,153.17 166.15,154.91 164.12,157.24 162.02,160.18 154.30,173.83 152.71,176.04 151.45,177.47 150.43,178.45 149.33,179.34 148.14,180.13 146.86,180.81 145.43,181.40 143.30,182.07 137.99,183.15 112.10,187.87 97.02,192.34 75.85,200.84 47.65,215.49 42.77,218.35 42.77,218.35 42.77,218.35 42.77,218.35 42.75,218.36 42.75,218.36 42.75,218.37 42.75,218.37 42.75,218.37 42.75,218.37 42.74,218.39 42.74,218.39 42.75,218.41 44.12,220.72 44.14,220.73" class="curve"/>
<polygon points="227.67,151.99 227.69,151.99 227.71,151.97 227.72,151.95 227.72,151.93 227.71,151.91 227.69,151.90 218.39,147.93 214.11,146.60 211.17,145.98 208.37,145.66 205.57,145.61 202.68,145.81 196.75,146.77 196.68,146.79 196.62,146.81 196.56,146.84 196.50,146.88 196.44,146.92 196.39,146.96 196.34,147.01 196.30,147.07 196.27,147.13 196.24,147.19 196.21,147.26 196.19,147.32 196.18,147.39 196.18,147.46 196.18,147.53 196.19,147.60 196.20,147.67 196.23,147.73 196.25,147.79 196.29,147.85 196.33,147.91 196.37,147.96 196.42,148.01 196.48,148.06 196.53,148.09 196.60,148.12 196.66,148.15 201.89,149.73 206.83,150.73 213.34,151.34" class="curve"/>
<polygon points="42.99,218.44 47.74,215.66 75.94,201.02 97.09,192.52 112.15,188.05 138.02,183.34 143.36,182.25 145.50,181.58 146.94,180.98 148.25,180.29 149.45,179.49 150.56,178.59 151.59,177.60 152.86,176.15 154.46,173.93 162.18,160.28 164.27,157.36 166.29,155.04 168.12,153.31 169.95,151.87 171.86,150.62 174.22,149.39 176.70,148.39 179.93,147.43 184.36,146.57 190.40,145.99 190.94,145.97 192.09,145.87 193.21,145.67 202.00,144.07 205.63,143.80 208.54,143.85 211.60,144.21 214.91,144.94 219.46,146.40 230.89,151.42 230.93,151.44 231.93,151.88 232.58,152.11 238.03,154.09 243.92,156.76 247.57,158.88 249.78,160.46 251.73,162.14 253.21,163.68 254.51,165.28 255.85,167.29 257.15,169.73 260.30,177.78 261.73,180.97 262.78,182.82 263.98,184.53 265.12,185.86 266.58,187.29 268.45,188.80 270.26,190.03 273.39,191.76 278.25,193.85 284.66,195.95 293.78,198.01 302.49,199.15 311.58,199.48 319.28,199.00 325.52,197.98 330.24,196.73 333.63,195.50 336.70,194.10 339.57,192.46 341.90,190.83 343.69,189.33 345.26,187.78 347.01,189.41 346.37,190.07 344.83,191.51 342.31,193.49 339.85,195.09 336.72,196.75 333.50,198.12 328.81,199.63 323.25,200.84 316.36,201.66 308.60,201.86 299.65,201.26 290.20,199.75 281.81,197.59 275.49,195.32 271.21,193.32 268.31,191.61 266.20,190.09 264.29,188.42 262.74,186.77 261.49,185.17 260.38,183.47 259.11,181.05 255.04,170.85 253.82,168.55 252.69,166.82 251.53,165.37 250.28,164.05 248.83,162.76 246.73,161.19 244.20,159.63 239.41,157.25 232.55,154.61 231.33,154.26 230.42,154.08 229.52,153.97 211.45,153.04 205.57,152.36 200.74,151.31 194.59,149.33 194.50,149.29 193.35,148.92 192.22,148.67 191.69,148.58 190.80,148.48 189.93,148.45 188.77,148.49 183.42,149.14 179.67,149.96 176.86,150.87 174.83,151.74 173.07,152.68 171.53,153.67 169.71,155.09 168.00,156.71 166.22,158.74 164.18,161.59 157.84,172.98 155.71,176.33 154.39,178.04 153.07,179.49 151.73,180.73 150.41,181.73 148.98,182.62 147.65,183.28 145.76,184.02 143.42,184.70 112.74,190.36 95.54,195.59 73.35,204.85 44.21,220.50" class="curve"/>
<polygon points="213.35,151.15 206.86,150.54 201.93,149.55 196.72,147.97 196.67,147.95 196.63,147.93 196.59,147.90 196.55,147.87 196.51,147.83 196.48,147.79 196.45,147.75 196.42,147.71 196.40,147.66 196.39,147.61 196.38,147.56 196.37,147.51 196.37,147.46 196.37,147.41 196.38,147.36 196.39,147.31 196.41,147.26 196.43,147.22 196.46,147.18 196.49,147.14 196.53,147.10 196.56,147.06 196.60,147.03 196.65,147.01 196.69,146.99 196.74,146.97 196.79,146.96 202.70,146.00 205.58,145.80 208.36,145.85 211.15,146.16 214.06,146.78 218.33,148.11 226.89,151.77" class="curve"/>
<polygon points="44.16,220.83 44.20,220.82 44.22,220.81 73.48,205.10 95.64,195.85 112.80,190.64 143.48,184.97 145.85,184.28 147.77,183.54 149.12,182.86 150.57,181.96 151.91,180.94 153.28,179.69 154.61,178.22 155.95,176.48 158.08,173.12 164.42,161.74 166.44,158.91 168.20,156.90 169.90,155.30 171.70,153.90 173.22,152.92 174.96,151.99 176.96,151.13 179.75,150.23 183.47,149.41 188.79,148.77 189.93,148.73 190.79,148.77 191.65,148.86 192.17,148.94 193.28,149.20 194.41,149.56 194.50,149.59 200.67,151.58 205.53,152.64 211.43,153.33 229.50,154.25 230.38,154.36 231.27,154.54 232.47,154.88 239.30,157.51 244.07,159.88 246.58,161.42 248.66,162.98 250.09,164.26 251.32,165.56 252.46,167.00 253.58,168.70 254.78,170.96 258.85,181.17 260.14,183.61 261.26,185.34 262.53,186.96 264.10,188.63 266.03,190.32 268.16,191.85 271.08,193.57 275.38,195.59 281.73,197.86 290.15,200.03 299.62,201.54 308.60,202.14 316.39,201.94 323.30,201.12 328.89,199.90 333.60,198.38 336.84,197.00 340.00,195.33 342.48,193.72 345.01,191.72 346.57,190.27 347.32,189.49 347.34,189.45 347.35,189.42 347.35,189.38 347.33,189.34 347.31,189.31 345.34,187.47 345.30,187.46 345.27,187.45 345.23,187.45 345.19,187.46 345.16,187.48 343.50,189.12 341.72,190.61 339.42,192.23 336.57,193.85 333.52,195.24 330.15,196.46 325.45,197.70 319.24,198.72 311.57,199.20 302.51,198.87 293.82,197.73 284.73,195.68 278.34,193.59 273.51,191.50 270.40,189.78 268.61,188.57 266.76,187.08 265.32,185.66 264.20,184.35 263.02,182.67 261.98,180.84 260.57,177.67 257.40,169.61 256.09,167.14 254.74,165.11 253.42,163.48 251.92,161.94 249.95,160.23 247.72,158.64 244.04,156.51 238.13,153.82 232.68,151.85 232.03,151.61 231.04,151.18 231.01,151.17 219.55,146.13 214.98,144.66 211.64,143.93 208.55,143.57 205.62,143.52 201.96,143.79 193.16,145.39 192.04,145.59 190.91,145.69 190.38,145.71 184.32,146.29 179.86,147.15 176.60,148.12 174.09,149.14 171.72,150.38 169.78,151.64 167.93,153.10 166.08,154.85 164.05,157.19 161.94,160.14 154.22,173.78 152.63,175.98 151.39,177.40 150.37,178.38 149.27,179.26 148.10,180.05 146.82,180.73 145.40,181.32 143.28,181.98 137.97,183.06 112.08,187.78 96.99,192.26 75.81,200.76 47.60,215.41 42.71,218.28 42.68,218.31 42.66,218.34 42.65,218.38 42.65,218.42 42.67,218.45 44.05,220.77 44.07,220.80 44.11,220.82 44.14,220.83" class="curve"/>
<polygon points="227.67,152.08 227.71,152.08 227.74,152.06 227.77,152.04 227.79,152.01 227.81,151.98 227.81,151.94 227.80,151.90 227.79,151.87 227.76,151.84 227.73,151.82 218.42,147.85 214.12,146.51 211.19,145.89 208.37,145.56 205.57,145.52 202.66,145.72 196.73,146.68 196.65,146.70 196.58,146.73 196.51,146.76 196.44,146.80 196.38,146.85 196.32,146.90 196.27,146.96 196.22,147.02 196.18,147.09 196.15,147.16 196.12,147.23 196.10,147.31 196.09,147.39 196.09,147.46 196.09,147.54 196.10,147.62 196.12,147.69 196.14,147.77 196.17,147.84 196.21,147.91 196.26,147.97 196.31,148.03 196.37,148.08 196.43,148.13 196.49,148.17 196.56,148.21 196.63,148.24 196.63,148.24 201.87,149.82 206.82,150.82 213.33,151.43" class="curve"/>
<polygon points="43.16,218.49 47.80,215.77 75.99,201.13 97.13,192.64 112.18,188.17 138.04,183.46 143.39,182.37 145.55,181.70 147.00,181.09 148.32,180.39 149.53,179.59 150.65,178.68 151.69,177.68 152.96,176.22 154.57,173.99 162.29,160.35 164.37,157.43 166.38,155.13 168.20,153.41 170.03,151.97 171.93,150.73 174.27,149.51 176.74,148.51 179.96,147.55 184.38,146.70 190.41,146.12 190.95,146.09 192.11,145.99 193.23,145.79 202.02,144.20 205.64,143.93 208.53,143.98 211.58,144.34 214.88,145.06 219.41,146.52 230.84,151.54 230.88,151.56 231.89,152.00 232.54,152.23 237.99,154.21 243.86,156.87 247.50,158.99 249.70,160.56 251.65,162.24 253.12,163.76 254.41,165.36 255.74,167.36 257.03,169.79 260.19,177.83 261.62,181.04 262.68,182.90 263.88,184.61 265.03,185.95 266.50,187.39 268.38,188.91 270.20,190.14 273.34,191.87 278.21,193.98 284.64,196.07 293.76,198.14 302.49,199.28 311.59,199.61 319.30,199.12 325.55,198.10 330.28,196.85 333.68,195.62 336.77,194.21 339.65,192.57 341.98,190.93 343.78,189.42 345.26,187.96 346.82,189.42 346.28,189.98 344.74,191.42 342.23,193.39 339.78,194.98 336.66,196.63 333.45,198.00 328.78,199.51 323.23,200.72 316.35,201.54 308.60,201.73 299.66,201.14 290.23,199.63 281.84,197.47 275.53,195.21 271.26,193.21 268.38,191.50 266.28,189.99 264.37,188.33 262.84,186.69 261.59,185.09 260.49,183.40 259.23,181.00 255.16,170.80 255.14,170.77 253.93,168.48 252.79,166.74 251.62,165.28 250.36,163.96 248.91,162.66 246.80,161.08 244.26,159.51 239.45,157.13 232.59,154.49 231.35,154.14 230.43,153.96 229.53,153.84 211.46,152.92 205.59,152.24 200.77,151.18 194.63,149.20 194.54,149.17 193.37,148.80 192.24,148.54 191.70,148.45 190.81,148.36 189.93,148.32 188.75,148.36 183.39,149.01 179.63,149.84 176.81,150.75 174.77,151.62 173.00,152.57 171.45,153.57 169.62,154.99 167.90,156.62 166.11,158.67 164.07,161.53 157.73,172.91 155.61,176.25 154.30,177.96 152.98,179.40 151.64,180.63 150.34,181.63 148.92,182.51 147.59,183.17 145.72,183.90 143.39,184.57 112.72,190.24 112.69,190.24 95.50,195.47 73.29,204.74 44.26,220.33" class="curve"/>
<polygon points="213.36,151.03 206.87,150.42 201.96,149.42 196.76,147.85 196.73,147.83 196.69,147.82 196.66,147.80 196.63,147.77 196.60,147.74 196.58,147.72 196.56,147.68 196.54,147.65 196.52,147.62 196.51,147.58 196.50,147.54 196.50,147.50 196.50,147.46 196.50,147.43 196.51,147.39 196.52,147.35 196.53,147.32 196.55,147.28 196.57,147.25 196.59,147.22 196.61,147.19 196.64,147.16 196.67,147.14 196.71,147.12 196.74,147.11 196.78,147.09 196.82,147.08 202.71,146.13 205.58,145.93 208.35,145.97 211.13,146.29 214.03,146.90 218.28,148.23 226.20,151.61" class="curve"/>
<polygon points="42.53,218.45 42.55,218.50 42.56,218.53 43.94,220.85 43.97,220.88 44.02,220.91 44.06,220.94 44.11,220.95 44.17,220.95 44.22,220.95 44.27,220.93 73.54,205.22 95.69,195.97 112.83,190.76 143.50,185.10 145.88,184.41 147.82,183.65 149.19,182.97 150.65,182.06 152.00,181.04 153.37,179.77 154.71,178.30 156.05,176.55 158.19,173.18 164.53,161.81 166.54,158.99 168.29,156.99 169.98,155.39 171.77,154.00 173.28,153.03 175.02,152.10 177.01,151.25 179.78,150.35 183.49,149.54 188.80,148.89 189.93,148.86 190.78,148.89 191.64,148.99 192.15,149.07 193.24,149.32 194.37,149.68 194.46,149.71 200.65,151.70 205.52,152.77 211.42,153.45 229.49,154.38 230.36,154.49 231.24,154.66 232.43,155.00 239.25,157.63 244.01,159.99 246.51,161.53 248.58,163.08 250.00,164.35 251.22,165.64 252.36,167.07 253.47,168.76 254.66,171.01 258.74,181.21 258.75,181.24 260.03,183.68 261.16,185.42 262.44,187.05 264.01,188.72 265.96,190.42 268.09,191.96 271.03,193.69 275.34,195.71 281.70,197.99 290.13,200.15 299.62,201.67 308.61,202.27 316.40,202.07 323.33,201.24 328.93,200.02 333.65,198.50 336.90,197.11 340.06,195.44 342.56,193.82 345.10,191.82 346.66,190.36 347.42,189.57 347.45,189.53 347.47,189.48 347.48,189.42 347.47,189.37 347.46,189.32 347.44,189.27 347.41,189.23 347.39,189.21 345.42,187.37 345.37,187.35 345.33,187.33 345.27,187.32 345.22,187.32 345.17,187.33 345.12,187.35 345.08,187.38 343.41,189.03 341.64,190.51 339.35,192.12 336.51,193.74 333.47,195.13 330.11,196.34 325.43,197.58 319.23,198.59 311.57,199.07 302.52,198.74 293.84,197.61 284.77,195.55 278.39,193.47 273.56,191.39 270.47,189.67 268.69,188.47 266.85,186.98 265.41,185.58 264.30,184.27 263.13,182.60 262.09,180.78 260.68,177.62 257.52,169.55 256.19,167.07 254.83,165.03 253.51,163.40 252.01,161.84 250.02,160.13 247.78,158.53 244.09,156.39 238.18,153.71 232.72,151.73 232.08,151.49 231.10,151.07 231.06,151.05 219.59,146.01 215.01,144.54 211.66,143.81 208.56,143.45 205.61,143.39 201.94,143.67 193.14,145.27 192.03,145.46 190.91,145.56 190.37,145.58 184.29,146.17 179.82,147.03 176.55,148.00 174.03,149.02 171.65,150.28 169.70,151.54 167.84,153.01 165.98,154.77 163.94,157.11 161.83,160.07 154.11,173.71 152.53,175.90 151.29,177.32 150.29,178.28 149.20,179.16 148.03,179.94 146.76,180.61 145.36,181.20 143.25,181.86 137.94,182.94 112.04,187.66 96.94,192.14 75.75,200.65 47.54,215.30 42.64,218.18 42.60,218.21 42.57,218.25 42.54,218.30 42.53,218.35 42.52,218.40" class="curve"/>
<polygon points="227.67,152.21 227.72,152.21 227.77,152.19 227.82,152.16 227.86,152.13 227.89,152.09 227.92,152.04 227.93,151.99 227.94,151.94 227.93,151.89 227.92,151.84 227.89,151.79 227.86,151.75 227.82,151.72 227.77,151.70 218.46,147.73 214.15,146.38 211.20,145.76 208.37,145.44 205.56,145.39 202.64,145.60 196.70,146.56 196.61,146.58 196.53,146.61 196.45,146.65 196.37,146.70 196.30,146.75 196.23,146.82 196.17,146.88 196.12,146.96 196.07,147.03 196.03,147.11 196.00,147.20 195.98,147.29 195.96,147.38 195.96,147.47 195.96,147.56 195.98,147.65 196.00,147.73 196.03,147.82 196.06,147.90 196.11,147.98 196.16,148.05 196.22,148.12 196.29,148.18 196.36,148.24 196.43,148.29 196.51,148.33 196.60,148.36 201.84,149.95 206.81,150.95 213.33,151.56" class="curve"/>
<polygon points="43.38,218.55 47.88,215.91 76.06,201.28 97.18,192.80 112.22,188.33 138.07,183.62 143.43,182.53 145.61,181.85 147.07,181.24 148.40,180.53 149.62,179.72 150.76,178.80 151.81,177.79 153.09,176.32 154.70,174.08 162.43,160.44 164.50,157.53 166.50,155.24 168.30,153.53 170.12,152.10 172.01,150.87 174.34,149.65 176.79,148.66 180.00,147.70 184.41,146.86 190.42,146.28 190.96,146.25 192.13,146.15 193.26,145.95 202.04,144.36 205.64,144.09 208.52,144.14 211.56,144.50 214.84,145.21 219.35,146.67 230.77,151.68 230.81,151.70 231.83,152.15 232.49,152.38 237.92,154.35 243.78,157.02 247.41,159.12 249.60,160.68 251.54,162.35 253.00,163.87 254.28,165.45 255.60,167.44 256.89,169.85 260.04,177.88 261.48,181.11 262.54,182.98 263.76,184.71 264.91,186.06 266.39,187.51 268.28,189.04 270.12,190.28 273.27,192.02 278.15,194.13 284.60,196.23 293.74,198.29 302.47,199.43 311.59,199.77 319.32,199.28 325.59,198.25 330.33,197.00 333.74,195.77 336.84,194.35 339.73,192.70 342.08,191.05 343.89,189.54 345.26,188.18 346.60,189.42 346.17,189.86 344.64,191.29 342.14,193.26 339.70,194.84 336.59,196.49 333.40,197.85 328.74,199.35 323.20,200.56 316.34,201.38 308.61,201.57 299.68,200.98 290.26,199.47 281.89,197.32 275.60,195.06 271.34,193.06 268.46,191.37 266.38,189.87 264.49,188.21 262.96,186.59 261.72,185.00 260.63,183.32 259.37,180.93 255.30,170.74 255.28,170.70 254.07,168.40 252.91,166.65 251.74,165.17 250.47,163.84 249.01,162.53 246.89,160.95 244.33,159.37 239.52,156.98 232.64,154.34 231.39,153.98 230.45,153.80 229.53,153.68 211.47,152.76 205.62,152.08 200.81,151.03 194.68,149.05 194.59,149.02 193.41,148.64 192.27,148.38 191.72,148.29 190.82,148.20 189.92,148.16 188.73,148.20 183.36,148.85 179.59,149.68 176.75,150.60 174.70,151.48 172.92,152.44 171.36,153.44 169.52,154.87 167.78,156.51 165.99,158.57 163.93,161.44 157.59,172.83 155.48,176.16 154.17,177.86 152.87,179.29 151.54,180.51 150.25,181.49 148.84,182.37 147.53,183.02 145.66,183.75 143.36,184.42 112.69,190.08 112.64,190.09 95.44,195.32 73.23,204.59 44.32,220.12" class="curve"/>
<polygon points="213.37,150.87 206.90,150.26 202.00,149.27 196.82,147.70 196.79,147.69 196.77,147.68 196.75,147.67 196.74,147.65 196.72,147.64 196.70,147.62 196.69,147.60 196.68,147.58 196.67,147.56 196.66,147.54 196.66,147.51 196.66,147.49 196.66,147.47 196.66,147.45 196.66,147.42 196.67,147.40 196.68,147.38 196.69,147.36 196.70,147.34 196.71,147.32 196.73,147.30 196.74,147.29 196.76,147.27 196.78,147.26 196.80,147.25 196.83,147.24 196.85,147.24 202.73,146.29 205.59,146.09 208.34,146.13 211.10,146.45 213.99,147.06 218.23,148.38 225.32,151.41" class="curve"/>
<polygon points="42.37,218.36 42.37,218.43 42.38,218.49 42.40,218.56 42.43,218.61 43.81,220.93 43.85,220.98 43.90,221.03 43.95,221.06 44.01,221.09 44.08,221.11 44.14,221.11 44.21,221.11 44.28,221.10 44.34,221.07 73.60,205.36 95.74,196.12 112.87,190.92 143.53,185.25 143.57,185.24 145.95,184.55 147.89,183.80 149.27,183.11 150.74,182.19 152.10,181.16 153.49,179.88 154.84,178.40 156.19,176.64 158.33,173.26 164.66,161.89 166.67,159.09 168.41,157.10 170.08,155.52 171.87,154.13 173.36,153.17 175.09,152.25 177.06,151.40 179.83,150.50 183.52,149.70 188.82,149.05 189.93,149.02 190.76,149.05 191.62,149.14 192.12,149.23 193.20,149.47 194.32,149.83 194.41,149.87 200.61,151.86 205.49,152.92 211.42,153.61 229.47,154.54 230.33,154.65 231.20,154.82 232.38,155.16 239.18,157.77 243.93,160.13 246.42,161.66 248.48,163.20 249.89,164.47 251.10,165.75 252.23,167.16 253.34,168.84 254.52,171.08 258.59,181.27 258.61,181.31 259.90,183.77 261.03,185.51 262.32,187.15 263.90,188.84 265.86,190.54 268.01,192.09 270.95,193.83 275.28,195.86 281.65,198.14 290.10,200.31 299.60,201.83 308.60,202.43 316.42,202.23 323.36,201.40 328.97,200.17 333.71,198.65 336.98,197.26 340.15,195.57 342.65,193.95 345.21,191.93 346.78,190.47 347.54,189.68 347.57,189.62 347.60,189.57 347.62,189.50 347.63,189.44 347.63,189.37 347.62,189.31 347.60,189.24 347.58,189.19 347.54,189.13 347.50,189.09 345.52,187.25 345.47,187.22 345.41,187.19 345.34,187.17 345.28,187.16 345.21,187.16 345.14,187.18 345.08,187.20 345.02,187.23 344.97,187.27 343.31,188.91 341.54,190.39 339.26,191.98 336.44,193.60 333.41,194.98 330.06,196.18 325.39,197.42 319.21,198.43 311.57,198.91 302.53,198.58 293.87,197.45 284.81,195.40 278.44,193.32 273.63,191.24 270.55,189.54 268.78,188.34 266.95,186.86 265.53,185.47 264.43,184.17 263.26,182.51 262.23,180.71 260.83,177.56 257.66,169.49 256.33,166.99 254.96,164.93 253.63,163.29 252.11,161.72 250.12,160.00 247.87,158.39 244.17,156.25 238.23,153.56 232.78,151.58 232.14,151.35 231.16,150.92 231.12,150.90 219.65,145.86 215.05,144.38 211.68,143.65 208.57,143.29 205.60,143.23 201.92,143.51 193.11,145.11 192.01,145.30 190.89,145.40 190.35,145.43 184.27,146.01 179.79,146.88 176.50,147.85 173.97,148.88 171.57,150.14 169.61,151.41 167.73,152.89 165.87,154.66 163.82,157.01 161.70,159.99 153.98,173.63 152.41,175.80 151.18,177.21 150.18,178.16 149.11,179.03 147.95,179.80 146.70,180.47 145.30,181.05 143.21,181.70 137.91,182.78 112.01,187.50 96.89,191.99 75.69,200.50 47.46,215.16 42.55,218.04 42.50,218.08 42.46,218.13 42.42,218.19 42.39,218.25 42.37,218.31" class="curve"/>
<polygon points="227.67,152.37 227.74,152.36 227.81,152.35 227.87,152.32 227.92,152.29 227.97,152.24 228.02,152.19 228.05,152.14 228.08,152.08 228.09,152.01 228.10,151.95 228.09,151.88 228.08,151.82 228.05,151.76 228.02,151.70 227.98,151.65 227.93,151.60 227.88,151.57 227.84,151.55 218.51,147.58 214.19,146.23 211.22,145.60 208.38,145.28 205.55,145.23 202.62,145.44 196.66,146.40 196.56,146.43 196.46,146.47 196.36,146.52 196.27,146.57 196.19,146.64 196.11,146.71 196.04,146.79 195.98,146.87 195.93,146.96 195.88,147.06 195.85,147.16 195.82,147.26 195.81,147.37 195.80,147.47 195.80,147.58 195.82,147.68 195.84,147.78 195.88,147.88 195.92,147.98 195.98,148.07 196.04,148.16 196.11,148.24 196.19,148.31 196.27,148.37 196.36,148.43 196.45,148.47 196.55,148.51 201.80,150.10 206.78,151.11 213.32,151.72" class="curve"/>
<polygon points="43.64,218.61 47.97,216.07 76.13,201.45 97.24,192.97 112.26,188.51 138.11,183.81 143.48,182.71 145.67,182.02 147.15,181.41 148.49,180.69 149.73,179.87 150.88,178.94 151.94,177.92 153.23,176.44 154.86,174.18 162.59,160.54 164.65,157.65 166.63,155.37 168.43,153.67 170.23,152.25 172.10,151.03 174.42,149.82 176.85,148.83 180.05,147.89 184.43,147.04 190.44,146.47 190.98,146.44 192.16,146.34 193.30,146.14 202.06,144.54 205.65,144.27 208.51,144.33 211.52,144.68 214.79,145.40 219.29,146.84 230.69,151.85 230.74,151.88 231.77,152.32 232.42,152.56 237.85,154.53 243.70,157.18 247.31,159.28 249.49,160.83 251.41,162.49 252.85,163.99 254.13,165.56 255.44,167.53 256.72,169.93 259.86,177.95 261.31,181.19 262.38,183.08 263.61,184.82 264.77,186.19 266.26,187.65 268.17,189.19 270.02,190.44 273.18,192.19 278.08,194.30 284.54,196.41 293.70,198.48 302.46,199.62 311.59,199.96 319.34,199.47 325.62,198.44 330.39,197.18 333.82,195.94 336.92,194.52 339.83,192.86 342.19,191.21 344.02,189.67 345.27,188.44 346.33,189.43 346.04,189.73 344.52,191.15 342.03,193.11 339.61,194.68 336.51,196.32 333.33,197.67 328.69,199.17 323.17,200.37 316.33,201.19 308.61,201.38 299.70,200.79 290.30,199.29 281.95,197.14 275.67,194.88 271.43,192.90 268.57,191.21 266.50,189.72 264.62,188.08 263.10,186.46 261.87,184.89 260.79,183.23 259.55,180.85 255.48,170.67 255.45,170.61 254.23,168.30 253.07,166.54 251.88,165.05 250.60,163.71 249.13,162.39 247.00,160.79 244.43,159.21 239.59,156.81 232.70,154.16 231.43,153.80 230.48,153.61 229.55,153.49 211.49,152.57 205.65,151.89 200.86,150.85 194.74,148.88 194.65,148.84 193.46,148.46 192.30,148.20 191.74,148.11 190.82,148.01 189.92,147.97 188.72,148.01 183.33,148.67 179.54,149.50 176.69,150.42 174.62,151.31 172.82,152.27 171.25,153.29 169.40,154.73 167.65,156.38 165.84,158.45 163.78,161.34 157.43,172.73 155.32,176.05 154.03,177.74 152.74,179.16 151.42,180.37 150.14,181.34 148.75,182.20 147.45,182.85 145.60,183.57 143.31,184.23 112.65,189.89 112.58,189.91 95.38,195.14 73.15,204.42 44.38,219.86" class="curve"/>
<polygon points="213.38,150.68 206.93,150.07 202.05,149.09 196.88,147.52 196.87,147.52 196.87,147.52 196.86,147.51 196.86,147.51 196.86,147.51 196.85,147.50 196.85,147.50 196.85,147.50 196.85,147.49 196.85,147.49 196.85,147.48 196.84,147.48 196.84,147.47 196.84,147.47 196.85,147.46 196.85,147.46 196.85,147.45 196.85,147.45 196.85,147.45 196.86,147.44 196.86,147.44 196.86,147.43 196.87,147.43 196.87,147.43 196.88,147.43 196.88,147.43 196.89,147.42 202.75,146.48 205.59,146.28 208.33,146.32 211.07,146.63 213.94,147.24 218.16,148.56 224.29,151.17" class="curve"/>
<polygon points="42.18,218.49 42.20,218.57 42.23,218.64 42.26,218.71 43.65,221.03 43.70,221.10 43.75,221.15 43.82,221.20 43.89,221.24 43.96,221.27 44.04,221.29 44.11,221.30 44.19,221.30 44.26,221.29 44.34,221.27 44.42,221.25 73.68,205.53 95.81,196.30 112.91,191.10 143.57,185.44 143.63,185.43 146.01,184.73 147.96,183.97 149.36,183.27 150.85,182.35 152.22,181.30 153.62,180.02 154.98,178.52 156.34,176.75 158.50,173.35 164.82,161.99 166.82,159.20 168.55,157.23 170.21,155.66 171.97,154.29 173.46,153.33 175.17,152.42 177.13,151.57 179.88,150.69 183.55,149.88 188.83,149.24 189.93,149.20 190.75,149.24 191.59,149.33 192.08,149.41 193.15,149.65 194.25,150.01 194.35,150.05 200.55,152.04 205.46,153.11 211.41,153.80 229.46,154.72 230.30,154.83 231.15,155.00 232.32,155.34 239.11,157.95 243.84,160.29 246.31,161.82 248.36,163.35 249.76,164.60 250.96,165.87 252.08,167.27 253.18,168.94 254.35,171.16 258.41,181.34 258.44,181.40 259.73,183.86 260.88,185.62 262.17,187.28 263.77,188.97 265.74,190.69 267.90,192.25 270.86,193.99 275.21,196.03 281.60,198.32 290.06,200.49 299.58,202.02 308.60,202.62 316.43,202.42 323.39,201.59 329.02,200.36 333.77,198.82 337.06,197.43 340.24,195.74 342.76,194.10 345.33,192.08 346.91,190.60 347.68,189.80 347.73,189.74 347.77,189.67 347.79,189.59 347.81,189.52 347.82,189.44 347.82,189.35 347.81,189.27 347.79,189.20 347.76,189.12 347.72,189.06 347.67,189.00 347.63,188.95 345.64,187.11 345.58,187.06 345.51,187.03 345.43,187.00 345.35,186.98 345.27,186.97 345.20,186.98 345.12,186.99 345.04,187.01 344.97,187.04 344.90,187.09 344.83,187.14 343.18,188.77 341.43,190.24 339.16,191.82 336.35,193.43 333.34,194.80 330.01,196.00 325.35,197.24 319.19,198.25 311.57,198.72 302.55,198.39 293.90,197.26 284.86,195.22 278.51,193.14 273.72,191.07 270.65,189.38 268.89,188.19 267.08,186.72 265.67,185.34 264.58,184.06 263.42,182.41 262.40,180.63 261.00,177.49 257.84,169.42 256.49,166.89 255.12,164.82 253.77,163.16 252.25,161.59 250.24,159.86 247.97,158.24 244.25,156.08 238.30,153.38 232.84,151.40 232.20,151.17 231.24,150.75 231.20,150.73 219.72,145.69 215.10,144.20 211.72,143.46 208.58,143.10 205.60,143.04 201.90,143.32 193.08,144.92 191.98,145.11 190.88,145.21 190.33,145.24 184.25,145.82 179.74,146.69 176.44,147.67 173.89,148.71 171.47,149.98 169.50,151.26 167.61,152.75 165.73,154.52 163.67,156.90 161.54,159.88 153.82,173.53 152.26,175.68 151.04,177.08 150.06,178.02 148.99,178.88 147.85,179.64 146.61,180.30 145.24,180.87 143.16,181.52 137.88,182.60 111.97,187.31 96.83,191.81 75.61,200.33 47.36,215.00 42.45,217.88 42.38,217.93 42.33,217.99 42.28,218.05 42.24,218.12 42.21,218.19 42.19,218.27 42.18,218.34 42.18,218.42" class="curve"/>
<polygon points="227.67,152.56 227.75,152.55 227.83,152.54 227.90,152.51 227.98,152.48 228.04,152.43 228.10,152.38 228.15,152.33 228.20,152.26 228.23,152.19 228.26,152.12 228.28,152.04 228.29,151.96 228.28,151.88 228.27,151.80 228.25,151.72 228.21,151.65 228.17,151.58 228.12,151.52 228.07,151.47 228.00,151.43 227.93,151.39 218.58,147.40 214.24,146.05 211.26,145.42 208.40,145.09 205.55,145.04 202.60,145.25 196.63,146.22 196.50,146.25 196.39,146.29 196.28,146.35 196.17,146.41 196.07,146.49 195.98,146.57 195.90,146.66 195.83,146.76 195.76,146.87 195.71,146.98 195.67,147.10 195.64,147.22 195.62,147.34 195.61,147.46 195.62,147.59 195.63,147.71 195.66,147.83 195.70,147.95 195.75,148.06 195.82,148.17 195.89,148.27 195.97,148.36 196.06,148.45 196.16,148.52 196.26,148.59 196.37,148.65 196.45,148.68 196.45,148.68 196.45,148.68 196.50,148.69 201.76,150.29 206.75,151.29 213.31,151.91" class="curve"/>
<polygon points="43.94,218.69 48.08,216.26 76.22,201.65 97.31,193.18 112.31,188.72 138.14,184.02 143.53,182.92 145.74,182.23 147.24,181.61 148.60,180.88 149.86,180.04 151.02,179.10 152.10,178.07 153.40,176.58 155.04,174.31 162.77,160.65 164.81,157.78 166.79,155.52 168.57,153.84 170.35,152.43 172.21,151.22 174.51,150.02 176.93,149.04 180.10,148.10 184.46,147.26 190.45,146.68 191.00,146.65 192.18,146.55 193.34,146.35 202.09,144.76 205.65,144.49 208.50,144.54 211.49,144.90 214.73,145.60 219.21,147.04 230.60,152.05 230.65,152.07 231.69,152.52 232.35,152.76 237.77,154.73 243.60,157.38 247.20,159.46 249.35,161.00 251.26,162.65 252.69,164.13 253.96,165.69 255.26,167.64 256.52,170.02 259.66,178.03 261.11,181.29 262.20,183.19 263.44,184.95 264.61,186.33 266.12,187.81 268.04,189.36 269.90,190.62 273.08,192.38 278.00,194.50 284.48,196.61 293.65,198.69 302.43,199.84 311.59,200.17 319.36,199.68 325.66,198.65 330.45,197.38 333.90,196.14 337.02,194.71 339.94,193.04 342.32,191.38 344.16,189.83 345.27,188.74 346.02,189.44 345.89,189.58 344.38,190.99 341.91,192.93 339.50,194.49 336.42,196.13 333.26,197.47 328.63,198.96 323.14,200.16 316.31,200.97 308.62,201.17 299.73,200.58 290.34,199.07 282.01,196.93 275.75,194.68 271.53,192.71 268.68,191.03 266.63,189.55 264.77,187.92 263.26,186.32 262.05,184.77 260.98,183.12 259.74,180.76 255.68,170.59 255.64,170.51 254.42,168.20 253.24,166.42 252.04,164.91 250.76,163.55 249.27,162.22 247.12,160.61 244.53,159.02 239.69,156.62 232.77,153.96 231.48,153.59 230.52,153.40 229.57,153.28 211.51,152.35 205.68,151.68 200.92,150.64 194.81,148.67 194.71,148.64 193.52,148.25 192.34,147.99 191.76,147.89 190.84,147.79 189.92,147.76 188.71,147.80 183.30,148.46 179.49,149.29 176.61,150.22 174.53,151.12 172.71,152.09 171.13,153.11 169.26,154.56 167.50,156.23 165.68,158.31 163.60,161.22 157.24,172.62 155.14,175.93 153.86,177.60 152.58,179.01 151.28,180.20 150.02,181.16 148.64,182.01 147.36,182.65 145.53,183.36 143.26,184.02 112.61,189.68 112.52,189.70 95.31,194.94 73.06,204.22 44.46,219.58" class="curve"/>
<polygon points="213.40,150.46 206.96,149.86 202.10,148.88 197.63,147.52 202.78,146.69 205.60,146.49 208.31,146.54 211.04,146.85 213.88,147.45 218.09,148.76 223.11,150.90" class="curve"/>
<polygon points="42.29,217.73 42.22,217.79 42.15,217.86 42.10,217.93 42.06,218.01 42.02,218.09 41.99,218.18 41.97,218.25 41.97,218.25 41.97,218.25 41.96,218.33 41.96,218.33 41.96,218.34 41.96,218.43 41.97,218.52 41.99,218.61 42.02,218.70 42.06,218.78 43.47,221.15 43.52,221.22 43.58,221.29 43.65,221.35 43.73,221.40 43.81,221.44 43.90,221.48 43.99,221.50 44.08,221.51 44.17,221.52 44.27,221.51 44.36,221.49 44.44,221.47 44.53,221.43 73.78,205.72 95.88,196.50 112.96,191.31 143.60,185.65 143.69,185.63 146.08,184.94 148.05,184.17 149.46,183.46 150.97,182.53 152.36,181.47 153.77,180.17 155.15,178.66 156.51,176.88 158.68,173.46 165.00,162.11 166.99,159.34 168.70,157.38 170.35,155.82 172.10,154.46 173.57,153.52 175.26,152.61 177.21,151.77 179.93,150.90 183.59,150.10 188.85,149.46 189.93,149.42 190.73,149.45 191.56,149.54 192.04,149.62 193.09,149.86 194.18,150.21 194.28,150.25 200.49,152.25 205.42,153.32 211.38,154.01 229.44,154.94 230.26,155.05 231.10,155.21 232.25,155.54 239.02,158.14 243.73,160.48 246.19,162.00 248.22,163.51 249.60,164.76 250.79,166.01 251.90,167.40 252.99,169.05 254.15,171.25 258.21,181.42 258.25,181.50 259.55,183.97 260.70,185.74 262.01,187.41 263.62,189.12 265.60,190.86 267.78,192.43 270.76,194.18 275.12,196.23 281.52,198.52 290.01,200.70 299.55,202.23 308.59,202.83 316.44,202.63 323.42,201.80 329.07,200.57 333.85,199.03 337.15,197.62 340.35,195.92 342.88,194.28 345.47,192.24 347.07,190.75 347.84,189.95 347.90,189.87 347.94,189.79 347.98,189.71 348.01,189.62 348.03,189.53 348.04,189.44 348.04,189.35 348.03,189.26 348.01,189.17 347.97,189.08 347.93,189.00 347.89,188.92 347.83,188.85 347.77,188.80 345.79,186.95 345.71,186.90 345.64,186.85 345.56,186.81 345.47,186.78 345.37,186.77 345.28,186.76 345.19,186.76 345.11,186.77 345.02,186.79 344.93,186.82 344.85,186.86 344.77,186.91 344.70,186.97 343.03,188.61 341.30,190.06 339.05,191.64 336.25,193.24 333.26,194.60 329.94,195.80 325.31,197.02 319.17,198.03 311.56,198.51 302.56,198.18 293.94,197.05 284.92,195.01 278.59,192.94 273.81,190.88 270.76,189.19 269.02,188.02 267.22,186.56 265.83,185.19 264.75,183.92 263.60,182.29 262.60,180.53 261.20,177.41 258.03,169.33 258.01,169.28 256.68,166.79 255.29,164.70 253.93,163.02 252.40,161.43 250.37,159.69 248.09,158.06 244.36,155.89 238.39,153.18 232.91,151.20 232.28,150.97 231.33,150.56 231.28,150.53 219.80,145.49 215.16,143.99 211.76,143.25 208.60,142.88 205.60,142.83 201.87,143.11 193.04,144.71 191.95,144.90 190.87,145.00 190.31,145.02 184.22,145.61 179.70,146.48 176.37,147.47 173.80,148.51 171.37,149.79 169.38,151.08 167.47,152.58 165.58,154.37 163.50,156.76 161.36,159.76 153.64,173.41 152.09,175.55 150.89,176.93 149.91,177.86 148.87,178.71 147.74,179.45 146.52,180.10 145.17,180.67 143.11,181.31 137.84,182.38 111.92,187.10 96.76,191.61 75.52,200.14 47.25,214.82 42.33,217.70" class="curve"/>
<polygon points="227.67,152.77 227.77,152.77 227.86,152.75 227.94,152.73 228.03,152.69 228.11,152.65 228.18,152.60 228.26,152.53 228.32,152.46 228.37,152.39 228.42,152.31 228.45,152.23 228.48,152.14 228.49,152.05 228.50,151.95 228.50,151.86 228.48,151.77 228.46,151.68 228.43,151.60 228.38,151.51 228.33,151.44 228.27,151.36 228.20,151.30 228.13,151.25 228.05,151.20 228.00,151.18 218.66,147.20 214.30,145.84 211.29,145.20 208.41,144.88 205.54,144.83 202.58,145.04 196.58,146.01 196.45,146.04 196.31,146.09 196.18,146.15 196.06,146.23 195.94,146.32 195.84,146.41 195.74,146.52 195.65,146.64 195.58,146.76 195.51,146.89 195.46,147.03 195.43,147.17 195.40,147.31 195.40,147.45 195.40,147.60 195.42,147.74 195.45,147.88 195.50,148.02 195.56,148.15 195.63,148.28 195.71,148.40 195.81,148.50 195.91,148.60 196.03,148.69 196.15,148.77 196.28,148.84 196.41,148.89 201.70,150.49 206.72,151.51 213.30,152.12" class="curve"/>
<polygon points="44.27,218.77 48.19,216.47 76.32,201.87 97.39,193.41 112.37,188.96 138.19,184.26 143.58,183.16 143.63,183.14 145.82,182.46 147.34,181.83 148.72,181.09 150.00,180.24 151.18,179.29 152.27,178.24 153.59,176.73 155.24,174.45 155.27,174.39 162.97,160.78 165.00,157.93 166.96,155.69 168.73,154.02 170.50,152.63 172.34,151.43 174.61,150.24 177.01,149.27 180.16,148.33 184.50,147.49 190.47,146.92 191.02,146.90 192.21,146.79 193.38,146.59 195.76,146.15 195.76,146.15 195.66,146.25 195.56,146.36 195.46,146.49 195.37,146.63 195.30,146.79 195.24,146.94 195.19,147.10 195.17,147.27 195.15,147.44 195.16,147.61 195.18,147.77 195.22,147.94 195.27,148.10 195.34,148.25 195.42,148.40 195.52,148.53 195.62,148.66 195.65,148.69 194.89,148.44 194.79,148.41 193.59,148.02 192.39,147.75 191.79,147.65 190.86,147.55 189.93,147.52 188.69,147.56 183.26,148.22 179.44,149.05 179.38,149.07 176.53,149.99 174.43,150.90 172.59,151.88 170.99,152.91 169.11,154.38 167.33,156.06 165.49,158.16 163.40,161.08 163.36,161.14 157.04,172.50 154.95,175.79 153.68,177.44 152.41,178.83 151.13,180.01 149.88,180.96 148.52,181.80 147.27,182.43 145.46,183.13 143.21,183.79 112.57,189.45 112.46,189.47 95.24,194.71 95.18,194.73 72.96,204.00 72.91,204.03 44.55,219.25" class="curve"/>
<polygon points="213.41,150.22 206.99,149.62 202.16,148.64 198.70,147.59 202.81,146.93 205.60,146.73 208.30,146.78 211.00,147.09 213.82,147.68 218.00,148.99 221.79,150.60" class="curve"/>
<polygon points="299.75,200.34 290.39,198.84 282.08,196.70 275.84,194.46 271.64,192.49 268.82,190.83 266.78,189.36 264.93,187.75 263.45,186.17 262.25,184.63 261.19,182.99 259.96,180.66 255.90,170.50 255.86,170.41 254.63,168.08 253.44,166.28 252.23,164.76 250.93,163.38 249.42,162.04 247.26,160.42 244.66,158.81 239.79,156.40 232.85,153.73 231.54,153.36 230.56,153.16 229.60,153.04 228.01,152.96 228.02,152.96 228.11,152.92 228.21,152.87 228.29,152.82 228.37,152.75 228.44,152.68 228.51,152.60 228.58,152.52 228.63,152.43 228.67,152.34 228.70,152.24 228.72,152.14 228.74,152.03 228.74,151.93 228.74,151.83 228.72,151.72 228.69,151.62 228.66,151.53 228.62,151.44 230.50,152.27 230.56,152.30 231.60,152.75 232.27,152.99 237.68,154.95 243.49,157.59 247.06,159.66 249.20,161.19 251.09,162.82 252.51,164.29 253.76,165.83 255.05,167.77 256.30,170.12 259.44,178.12 260.89,181.39 261.99,183.32 263.24,185.09 264.43,186.49 265.95,187.99 267.89,189.55 269.77,190.82 272.97,192.59 277.91,194.72 284.41,196.85 293.61,198.93 302.40,200.08 311.58,200.41 311.64,200.41 319.38,199.93 325.69,198.89 325.76,198.88 330.52,197.62 333.98,196.37 337.13,194.93 340.07,193.25 342.46,191.57 344.32,190.02 345.28,189.07 345.67,189.44 344.22,190.80 341.76,192.74 339.37,194.29 336.32,195.91 333.17,197.24 328.57,198.73 323.10,199.92 316.29,200.73 308.62,200.92" class="curve"/>
<polygon points="41.72,218.40 41.73,218.51 41.74,218.61 41.77,218.71 41.80,218.80 41.85,218.90 43.26,221.28 43.33,221.37 43.40,221.44 43.48,221.52 43.56,221.58 43.65,221.63 43.75,221.68 43.84,221.71 43.95,221.74 44.05,221.75 44.16,221.76 44.27,221.75 44.37,221.74 44.47,221.71 44.57,221.68 44.66,221.63 73.88,205.94 95.96,196.73 113.02,191.55 143.65,185.89 143.75,185.86 146.15,185.17 148.14,184.39 149.57,183.68 151.09,182.73 152.50,181.66 153.93,180.35 155.33,178.81 156.71,177.02 158.89,173.58 165.21,162.24 167.18,159.49 168.88,157.54 170.50,156.01 172.24,154.66 173.69,153.72 175.37,152.83 177.29,152.00 179.99,151.13 183.63,150.33 188.86,149.70 189.93,149.66 190.72,149.70 191.53,149.78 191.99,149.86 193.03,150.10 194.10,150.44 194.21,150.48 200.43,152.48 205.37,153.56 205.42,153.57 211.37,154.26 229.42,155.18 230.23,155.28 231.05,155.45 232.17,155.77 238.92,158.37 243.62,160.69 246.06,162.20 248.07,163.70 249.44,164.93 250.61,166.17 251.71,167.54 252.78,169.17 253.93,171.35 257.99,181.51 258.03,181.60 259.34,184.08 260.50,185.88 261.82,187.57 263.44,189.29 265.44,191.04 267.65,192.63 270.64,194.39 275.03,196.45 281.45,198.75 289.96,200.94 299.52,202.47 308.58,203.07 316.45,202.87 323.45,202.04 329.13,200.80 333.92,199.26 337.25,197.84 340.47,196.13 343.02,194.48 345.62,192.43 347.24,190.92 348.02,190.11 348.08,190.03 348.14,189.94 348.18,189.85 348.22,189.75 348.25,189.65 348.27,189.55 348.28,189.45 348.28,189.34 348.27,189.23 348.25,189.13 348.22,189.04 348.17,188.94 348.12,188.84 348.07,188.76 348.00,188.68 347.94,188.62 345.95,186.77 345.86,186.71 345.78,186.65 345.69,186.61 345.59,186.57 345.48,186.54 345.38,186.52 345.27,186.52 345.17,186.52 345.07,186.53 344.97,186.55 344.87,186.59 344.77,186.63 344.68,186.68 344.59,186.75 344.51,186.82 342.87,188.43 341.15,189.87 338.92,191.44 336.14,193.02 333.17,194.38 329.87,195.57 325.26,196.79 319.14,197.79 311.56,198.27 302.58,197.94 293.98,196.81 284.98,194.78 278.67,192.72 273.92,190.66 270.89,188.99 269.16,187.82 267.38,186.38 266.00,185.03 264.94,183.78 263.81,182.17 262.81,180.42 261.43,177.31 258.26,169.23 258.22,169.17 256.89,166.67 255.49,164.56 254.12,162.87 252.57,161.26 250.53,159.50 248.23,157.86 244.47,155.68 238.49,152.96 232.99,150.97 232.37,150.75 231.43,150.34 231.38,150.31 219.89,145.26 219.83,145.24 215.23,143.76 211.80,143.02 208.62,142.64 205.60,142.58 201.85,142.87 201.79,142.88 193.00,144.47 191.92,144.66 190.85,144.76 190.29,144.78 184.19,145.37 179.64,146.25 176.29,147.24 173.71,148.29 171.25,149.58 169.24,150.88 167.32,152.39 165.41,154.20 163.32,156.60 161.16,159.63 161.13,159.68 153.43,173.28 151.90,175.40 150.71,176.76 149.75,177.68 148.72,178.51 147.62,179.25 146.42,179.89 145.08,180.44 143.05,181.08 137.79,182.15 111.87,186.87 111.81,186.88 96.68,191.38 75.43,199.91 47.14,214.60 42.21,217.50 42.12,217.56 42.04,217.63 41.97,217.71 41.91,217.79 41.85,217.87 41.81,217.97 41.77,218.07 41.74,218.17 41.73,218.28 41.72,218.38" class="curve"/>
<polygon points="194.98,148.19 194.87,148.15 193.67,147.77 192.44,147.49 191.83,147.39 190.88,147.29 189.93,147.25 189.82,147.25 190.49,147.19 191.04,147.16 192.24,147.05 193.43,146.85 195.12,146.54 195.12,146.54 195.05,146.68 194.99,146.85 194.94,147.02 194.92,147.11 194.90,147.25 194.89,147.43 194.89,147.60 194.90,147.69 194.92,147.83 194.96,148.00 195.01,148.16 195.03,148.21" class="curve"/>
<polygon points="213.43,149.96 207.03,149.36 202.22,148.38 199.88,147.67 202.84,147.20 205.61,147.00 208.28,147.04 210.95,147.35 213.76,147.94 217.91,149.24 220.33,150.27" class="curve"/>
<polygon points="184.54,147.76 185.87,147.63 184.06,147.85" class="curve"/>
<polygon points="180.22,148.59 180.92,148.46 179.98,148.66" class="curve"/>
<polygon points="177.09,149.52 177.56,149.38 176.94,149.58" class="curve"/>
<polygon points="174.72,150.48 174.75,150.47 174.72,150.48" class="curve"/>
<polygon points="231.67,153.12 231.56,153.09 230.60,152.90 229.62,152.78 228.75,152.73 228.75,152.73 228.82,152.63 228.87,152.53 228.92,152.42 228.96,152.32 228.98,152.20 229.00,152.09 229.01,151.97 229.01,151.90 230.39,152.51 230.45,152.54 231.50,152.99 232.47,153.34" class="curve"/>
<polygon points="234.60,154.12 237.58,155.20 238.51,155.62" class="curve"/>
<polygon points="242.23,157.31 243.37,157.83 243.93,158.15" class="curve"/>
<polygon points="246.74,159.79 246.92,159.89 246.99,159.94" class="curve"/>
<polygon points="248.66,161.13 249.04,161.40 249.15,161.50" class="curve"/>
<polygon points="161.94,163.15 156.81,172.36 156.02,173.60" class="curve"/>
<polygon points="154.90,175.37 154.73,175.64 154.36,176.12" class="curve"/>
<polygon points="153.49,177.25 153.47,177.27 153.40,177.35" class="curve"/>
<polygon points="150.96,179.81 150.96,179.81 150.95,179.82" class="curve"/>
<polygon points="260.20,180.55 259.98,180.00 260.37,180.87" class="curve"/>
<polygon points="149.75,180.73 149.73,180.74 149.69,180.76" class="curve"/>
<polygon points="148.43,181.55 148.39,181.57 148.31,181.61" class="curve"/>
<polygon points="261.42,182.86 261.32,182.68 261.48,182.96" class="curve"/>
<polygon points="145.44,182.85 145.37,182.88 145.11,182.96" class="curve"/>
<polygon points="143.28,183.49 143.14,183.53 142.55,183.64" class="curve"/>
<polygon points="262.46,184.47 262.29,184.20 262.61,184.66" class="curve"/>
<polygon points="263.65,185.99 263.58,185.90 263.72,186.06" class="curve"/>
<polygon points="265.12,187.55 264.95,187.38 265.24,187.66" class="curve"/>
<polygon points="266.95,189.15 266.66,188.90 267.16,189.30" class="curve"/>
<polygon points="345.28,189.44 345.28,189.44 345.23,189.50" class="curve"/>
<polygon points="97.48,193.66 110.24,189.87 96.55,194.03" class="curve"/>
<polygon points="268.96,190.60 268.83,190.51 269.03,190.65" class="curve"/>
<polygon points="344.10,190.55 344.05,190.60 343.95,190.68" class="curve"/>
<polygon points="271.76,192.26 271.01,191.81 272.09,192.41" class="curve"/>
<polygon points="341.86,192.32 341.61,192.52 341.19,192.79" class="curve"/>
<polygon points="275.94,194.22 274.61,193.59 276.62,194.46" class="curve"/>
<polygon points="339.55,193.85 339.24,194.06 338.63,194.38" class="curve"/>
<polygon points="336.48,195.52 336.20,195.67 335.56,195.94" class="curve"/>
<polygon points="282.16,196.45 280.49,195.85 282.94,196.65" class="curve"/>
<polygon points="333.35,196.88 333.08,196.99 332.62,197.14" class="curve"/>
<polygon points="290.45,198.58 287.50,197.82 291.82,198.80" class="curve"/>
<polygon points="76.44,202.11 86.37,198.12 74.91,202.90" class="curve"/>
<polygon points="329.25,198.23 328.50,198.47 327.56,198.67" class="curve"/>
<polygon points="324.23,199.40 323.05,199.66 321.60,199.83" class="curve"/>
<polygon points="299.78,200.07 297.49,199.70 300.84,200.14" class="curve"/>
<polygon points="317.68,200.30 316.28,200.47 314.17,200.52" class="curve"/>
<polygon points="305.73,200.47 310.02,200.62 308.63,200.66" class="curve"/>
<polygon points="44.63,218.87 48.32,216.71 60.90,210.17 44.65,218.90" class="curve"/>
<polygon points="41.45,218.40 41.46,218.52 41.47,218.60 41.47,218.60 41.47,218.60 41.48,218.66 41.48,218.66 41.48,218.67 41.51,218.77 41.51,218.77 41.51,218.77 41.55,218.89 41.59,218.99 41.61,219.02 41.61,219.02 41.61,219.03 43.03,221.41 43.10,221.51 43.18,221.60 43.26,221.68 43.35,221.75 43.44,221.82 43.55,221.88 43.66,221.93 43.76,221.97 43.87,221.99 43.99,222.01 44.10,222.02 44.22,222.02 44.34,222.01 44.45,221.99 44.56,221.96 44.67,221.92 44.77,221.87 74.00,206.18 96.05,196.98 113.08,191.80 143.70,186.15 143.81,186.12 146.23,185.42 148.24,184.64 148.30,184.61 149.70,183.91 149.75,183.88 151.24,182.95 151.30,182.91 152.67,181.87 152.72,181.83 154.12,180.54 154.16,180.49 155.53,178.99 156.92,177.17 159.11,173.73 165.43,162.38 167.38,159.65 169.07,157.73 170.68,156.21 172.39,154.88 173.83,153.95 175.48,153.07 177.39,152.25 180.06,151.39 183.67,150.60 188.89,149.96 189.93,149.93 190.70,149.96 191.49,150.05 191.94,150.12 192.96,150.35 194.02,150.69 194.13,150.73 200.35,152.73 200.42,152.75 205.32,153.82 205.39,153.83 211.34,154.52 229.39,155.44 230.18,155.55 230.98,155.71 232.09,156.02 238.82,158.61 243.49,160.92 245.91,162.42 247.90,163.91 249.25,165.12 250.41,166.35 251.49,167.70 252.55,169.31 253.69,171.46 257.74,181.61 257.79,181.72 259.10,184.21 259.14,184.27 260.28,186.03 261.61,187.73 261.66,187.78 263.25,189.48 263.31,189.53 265.28,191.25 265.33,191.29 267.50,192.85 267.55,192.88 270.51,194.63 270.57,194.66 274.92,196.69 274.98,196.72 281.37,199.01 281.43,199.03 289.90,201.20 289.96,201.21 299.48,202.73 299.55,202.74 308.57,203.34 308.63,203.34 316.46,203.14 316.53,203.13 323.49,202.30 323.56,202.29 329.19,201.06 329.26,201.04 334.01,199.50 334.07,199.48 337.36,198.09 340.59,196.37 340.65,196.34 343.17,194.70 343.22,194.66 345.79,192.63 347.43,191.11 348.21,190.29 348.29,190.20 348.35,190.10 348.41,190.00 348.46,189.89 348.49,189.78 348.52,189.67 348.54,189.56 348.55,189.44 348.54,189.32 348.53,189.20 348.51,189.08 348.47,188.97 348.43,188.86 348.38,188.76 348.32,188.65 348.25,188.56 348.17,188.47 348.12,188.42 346.12,186.57 346.03,186.49 345.93,186.43 345.83,186.38 345.72,186.33 345.61,186.30 345.50,186.27 345.38,186.26 345.26,186.25 345.14,186.25 345.02,186.27 344.91,186.30 344.79,186.33 344.68,186.38 344.58,186.43 344.48,186.50 344.39,186.57 344.31,186.64 342.69,188.24 340.99,189.66 338.77,191.21 336.02,192.78 333.07,194.13 329.79,195.31 325.20,196.53 319.11,197.53 311.56,198.00 302.61,197.67 294.03,196.55 285.05,194.52 278.76,192.47 274.04,190.42 271.03,188.76 269.32,187.61 267.56,186.18 266.20,184.85 265.15,183.61 264.03,182.02 263.05,180.30 261.67,177.21 258.50,169.13 258.46,169.05 257.12,166.54 257.09,166.48 255.71,164.41 255.67,164.36 254.32,162.69 252.76,161.07 252.71,161.03 250.70,159.30 250.65,159.26 248.38,157.64 248.32,157.60 244.60,155.45 244.54,155.42 238.59,152.71 233.08,150.72 232.47,150.50 231.54,150.09 231.49,150.07 219.99,145.02 219.92,144.99 215.30,143.51 215.23,143.49 211.85,142.75 211.78,142.74 208.65,142.38 208.58,142.37 205.60,142.32 205.53,142.32 201.82,142.60 201.74,142.61 192.95,144.21 191.89,144.40 190.83,144.49 190.27,144.52 184.16,145.11 184.09,145.12 179.59,145.99 179.52,146.00 176.21,146.99 176.15,147.01 173.60,148.04 173.54,148.08 171.12,149.34 171.06,149.38 169.09,150.66 167.16,152.18 167.10,152.23 165.22,154.01 165.18,154.06 163.11,156.43 163.07,156.49 160.94,159.48 160.90,159.55 153.21,173.13 151.70,175.23 150.52,176.58 149.58,177.48 148.57,178.30 147.48,179.02 146.31,179.64 144.99,180.19 142.98,180.82 137.74,181.89 111.82,186.61 111.74,186.63 96.60,191.13 96.54,191.15 75.32,199.67 75.26,199.70 47.00,214.37 42.07,217.27 41.97,217.34 41.88,217.41 41.80,217.49 41.73,217.58 41.73,217.58 41.67,217.67 41.61,217.77 41.56,217.88 41.52,217.99 41.49,218.09 41.49,218.09 41.49,218.10 41.47,218.21 41.46,218.33" class="curve"/>
<polygon points="193.81,147.51 193.69,147.47 192.76,147.26 193.47,147.14 194.66,146.92 194.66,146.92 194.64,147.04 194.61,147.21 194.60,147.40 194.60,147.50 194.60,147.66 194.62,147.77" class="curve"/>
<polygon points="213.45,149.67 207.07,149.07 202.29,148.10 201.17,147.76 202.87,147.49 205.62,147.29 208.26,147.34 210.91,147.64 213.68,148.22 217.81,149.51 218.73,149.90" class="curve"/>
<polygon points="229.22,152.46 229.25,152.34 229.25,152.33 229.59,152.48" class="curve"/>
<polygon points="44.16,222.32 44.30,222.31 44.43,222.29 44.56,222.27 44.68,222.23 44.79,222.19 44.91,222.13 74.12,206.45 96.15,197.26 113.15,192.09 143.75,186.44 143.88,186.41 146.32,185.70 146.39,185.67 148.36,184.91 148.43,184.87 149.83,184.17 149.91,184.13 151.40,183.20 151.48,183.15 152.86,182.10 152.92,182.04 154.32,180.75 154.38,180.69 155.75,179.18 155.79,179.13 157.16,177.35 157.20,177.28 159.37,173.87 165.68,162.54 167.61,159.84 169.28,157.93 170.87,156.43 172.56,155.12 173.97,154.21 175.61,153.33 177.49,152.52 180.14,151.67 183.72,150.88 188.91,150.25 189.93,150.22 190.67,150.25 191.45,150.34 191.89,150.41 192.88,150.63 193.92,150.97 194.04,151.01 200.27,153.01 200.35,153.04 205.26,154.11 205.36,154.12 211.32,154.81 229.37,155.74 230.14,155.83 230.92,155.99 232.00,156.30 238.70,158.88 243.35,161.18 245.74,162.66 247.71,164.13 249.05,165.33 250.19,166.54 251.25,167.87 252.30,169.46 253.42,171.58 257.47,181.72 257.52,181.84 258.85,184.35 258.89,184.43 260.04,186.19 260.09,186.25 261.39,187.92 261.44,187.98 263.05,189.68 263.12,189.75 265.09,191.47 265.16,191.52 267.33,193.09 267.40,193.13 270.37,194.88 270.45,194.92 274.80,196.96 274.88,196.99 281.28,199.28 281.36,199.31 289.83,201.48 289.92,201.50 299.44,203.02 299.53,203.03 308.56,203.63 308.64,203.63 316.48,203.43 316.56,203.42 323.53,202.59 323.62,202.58 329.26,201.34 329.35,201.32 334.11,199.78 334.18,199.75 337.48,198.35 337.54,198.32 340.74,196.62 340.81,196.58 343.33,194.94 343.40,194.89 345.98,192.86 346.03,192.81 347.63,191.31 348.43,190.49 348.51,190.39 348.58,190.28 348.65,190.17 348.70,190.06 348.75,189.94 348.79,189.81 348.81,189.68 348.83,189.55 348.84,189.42 348.84,189.30 348.82,189.17 348.80,189.04 348.77,188.92 348.72,188.80 348.67,188.68 348.61,188.57 348.54,188.46 348.46,188.36 348.37,188.26 348.32,188.21 346.32,186.35 346.22,186.27 346.11,186.20 346.00,186.14 345.88,186.08 345.76,186.04 345.64,186.00 345.51,185.98 345.38,185.96 345.26,185.96 345.13,185.96 345.01,185.98 344.88,186.00 344.76,186.03 344.64,186.08 344.53,186.13 344.43,186.18 344.32,186.25 344.22,186.33 344.12,186.41 342.50,188.02 340.81,189.43 338.62,190.97 335.89,192.52 332.96,193.86 329.70,195.03 325.14,196.24 319.08,197.24 311.55,197.71 302.63,197.38 294.08,196.26 285.13,194.24 278.87,192.19 274.16,190.16 271.18,188.51 269.50,187.38 267.75,185.96 266.41,184.65 265.38,183.43 264.28,181.87 263.31,180.17 261.94,177.10 258.77,169.02 258.72,168.91 257.38,166.39 257.33,166.31 255.95,164.24 255.89,164.17 254.54,162.50 254.49,162.45 252.96,160.86 252.90,160.81 250.88,159.07 250.82,159.02 248.54,157.40 248.47,157.35 244.74,155.19 244.66,155.15 238.70,152.45 233.18,150.44 232.58,150.23 231.67,149.83 231.61,149.80 220.10,144.75 220.01,144.71 215.38,143.23 215.30,143.21 211.91,142.47 211.82,142.45 208.68,142.09 208.58,142.08 205.60,142.03 205.51,142.03 201.79,142.31 201.69,142.33 192.90,143.92 191.85,144.11 190.81,144.20 190.25,144.23 184.12,144.82 184.04,144.83 179.53,145.70 179.44,145.72 176.12,146.71 176.04,146.74 173.48,147.78 173.40,147.82 170.98,149.09 170.90,149.13 168.93,150.42 168.86,150.47 166.96,151.97 166.90,152.02 165.02,153.80 164.96,153.87 162.89,156.25 162.83,156.32 160.70,159.31 160.65,159.40 152.96,172.98 151.47,175.05 150.31,176.37 149.38,177.26 148.39,178.06 147.33,178.77 146.18,179.38 144.89,179.91 142.91,180.53 137.69,181.60 111.77,186.32 111.65,186.35 96.51,190.85 96.43,190.88 75.21,199.40 75.13,199.44 46.86,214.12 41.91,217.02 41.81,217.10 41.71,217.18 41.62,217.26 41.53,217.36 41.46,217.46 41.39,217.56 41.39,217.57 41.33,217.68 41.28,217.79 41.23,217.91 41.20,218.04 41.18,218.16 41.17,218.29 41.16,218.42 41.17,218.55 41.19,218.68 41.21,218.80 41.25,218.93 41.30,219.05 41.36,219.16 41.39,219.23 42.79,221.58 42.86,221.68 42.94,221.77 43.03,221.86 43.13,221.95 43.23,222.03 43.34,222.10 43.46,222.16 43.58,222.21 43.70,222.25 43.82,222.28 43.95,222.30 44.09,222.32" class="curve"/>
<polygon points="213.47,149.34 207.12,148.75 202.67,147.85 202.91,147.81 205.63,147.62 208.24,147.66 210.86,147.96 213.60,148.54 216.64,149.49" class="curve"/>
<polygon points="41.78,216.72 41.67,216.80 41.55,216.89 41.45,216.98 41.35,217.08 41.25,217.19 41.17,217.30 41.10,217.42 41.03,217.55 40.98,217.68 40.93,217.81 40.89,217.94 40.86,218.08 40.85,218.23 40.84,218.37 40.84,218.52 40.85,218.60 40.85,218.60 40.85,218.61 40.87,218.75 40.90,218.89 40.94,219.02 40.99,219.15 41.05,219.28 41.11,219.39 42.52,221.75 42.60,221.86 42.69,221.98 42.78,222.08 42.89,222.17 43.00,222.26 43.12,222.34 43.24,222.41 43.37,222.48 43.51,222.53 43.64,222.57 43.78,222.60 43.92,222.63 44.06,222.64 44.19,222.64 44.33,222.63 44.47,222.61 44.61,222.59 44.75,222.55 44.88,222.50 45.01,222.44 45.08,222.41 74.26,206.74 96.26,197.56 113.23,192.40 143.81,186.76 143.94,186.73 146.42,186.01 146.51,185.97 148.48,185.21 148.58,185.16 149.98,184.46 150.08,184.40 151.58,183.47 151.67,183.40 153.06,182.35 153.14,182.28 154.55,180.98 154.62,180.91 156.00,179.39 156.05,179.32 157.42,177.54 157.48,177.45 159.65,174.04 165.95,162.71 167.87,160.04 169.51,158.16 171.08,156.68 172.75,155.38 174.14,154.48 175.75,153.62 177.60,152.83 180.22,151.98 183.77,151.20 188.93,150.58 189.93,150.54 190.65,150.57 191.41,150.66 191.83,150.72 192.80,150.95 193.82,151.27 193.94,151.32 200.17,153.32 200.29,153.35 205.20,154.42 205.32,154.44 211.28,155.13 229.34,156.06 230.08,156.15 230.84,156.30 231.89,156.61 238.57,159.17 243.19,161.46 245.56,162.93 247.51,164.38 248.82,165.56 249.95,166.75 250.99,168.06 252.02,169.62 253.13,171.72 257.17,181.84 257.22,181.96 258.56,184.51 258.62,184.60 259.77,186.37 259.83,186.45 261.14,188.12 261.21,188.20 262.82,189.91 262.90,189.99 264.88,191.72 264.97,191.79 267.15,193.35 267.24,193.41 270.21,195.16 270.31,195.21 274.67,197.25 274.77,197.29 281.17,199.59 281.28,199.62 289.76,201.80 289.87,201.82 299.40,203.34 299.50,203.35 308.54,203.95 308.65,203.95 316.49,203.76 316.60,203.75 323.58,202.91 323.69,202.89 329.33,201.66 329.45,201.63 334.21,200.09 334.31,200.05 337.61,198.65 337.69,198.60 340.90,196.90 340.98,196.85 343.51,195.21 343.60,195.15 346.18,193.11 346.25,193.05 347.86,191.55 348.66,190.71 348.76,190.60 348.84,190.48 348.91,190.36 348.98,190.23 349.03,190.10 349.08,189.96 349.11,189.83 349.14,189.70 349.16,189.56 349.16,189.42 349.16,189.28 349.14,189.14 349.12,188.99 349.08,188.86 349.04,188.72 348.98,188.59 348.92,188.46 348.84,188.34 348.77,188.22 348.67,188.11 348.58,188.01 346.53,186.11 346.42,186.02 346.30,185.94 346.18,185.86 346.05,185.80 345.92,185.75 345.78,185.71 345.65,185.67 345.50,185.65 345.37,185.64 345.22,185.63 345.09,185.64 344.94,185.66 344.80,185.69 344.67,185.72 344.53,185.77 344.41,185.83 344.28,185.89 344.16,185.97 344.05,186.05 343.94,186.14 343.88,186.20 342.28,187.78 340.61,189.17 338.44,190.69 335.74,192.24 332.83,193.56 329.61,194.73 325.07,195.93 319.04,196.91 311.55,197.38 302.66,197.06 294.14,195.94 285.22,193.93 278.98,191.89 274.31,189.87 271.35,188.24 269.69,187.11 267.97,185.72 266.65,184.43 265.64,183.24 264.55,181.69 263.60,180.02 262.24,176.97 259.07,168.89 259.01,168.77 257.66,166.24 257.60,166.13 256.21,164.06 256.14,163.97 254.79,162.30 254.72,162.22 253.19,160.63 253.11,160.56 251.09,158.82 251.00,158.76 248.72,157.13 248.63,157.07 244.90,154.91 244.79,154.86 238.83,152.15 238.75,152.12 233.29,150.14 232.70,149.93 231.80,149.54 220.23,144.45 220.10,144.40 215.48,142.92 215.37,142.89 211.97,142.15 211.85,142.13 208.71,141.77 208.59,141.76 205.60,141.70 205.48,141.71 201.76,141.99 201.63,142.01 192.84,143.61 191.81,143.79 190.79,143.88 190.23,143.90 184.09,144.49 183.97,144.51 179.46,145.38 179.35,145.41 176.03,146.40 175.92,146.44 173.36,147.48 173.25,147.53 170.82,148.80 170.73,148.86 168.74,150.16 168.66,150.22 166.76,151.72 166.68,151.79 164.79,153.57 164.71,153.66 162.64,156.04 162.57,156.13 160.43,159.13 160.36,159.24 152.69,172.80 151.21,174.85 150.07,176.15 149.17,177.02 148.20,177.80 147.17,178.49 146.04,179.09 144.78,179.61 142.83,180.22 137.62,181.28 111.70,186.00 111.57,186.04 96.42,190.54 96.31,190.58 75.08,199.10 74.98,199.15 46.71,213.83" class="curve"/>
</svg>