<?xml version="1.0" encoding="utf-8"?>
<!-- Generator: Grasshopper 1.0.0, Redback Plugin. SVG Version: 6.00 Build 0) Made by Andrew Butler at Cox Architecture -->
<!DOCTYPE svg PUBLIC "-//W3C//DTD SVG 1.1//EN" "http://www.w3.org/Graphics/SVG/1.1/DTD/svg11.dtd">
<svg version="1.1" xmlns="http://www.w3.org/2000/svg" xmlns:xlink="http://www.w3.org/1999/xlink" x="0px" y="0px"
width="420.0mm" height="297.0mm" viewBox="0 0 420.0 297.0" xml:space="preserve">
<style type="text/css">
.curve{
fill:None;
stroke:#000;
stroke-width:0.05px;
stroke-linecap:round;
}
.thick-hatch{
stroke-width:0.1px;
}
.bold-hatch{
stroke-width:0.2px;
}
.thin-hatch{
stroke-width:0.025px;
}
.thick-road{
stroke-width:0.8px;
}
</style>
<polyline points="209.21,190.90 209.43,154.18 209.49,143.99 209.68,112.95 209.83,88.98 209.99,62.33" class="curve thick-road"/>
<polyline points="210.28,190.91 210.50,154.22 210.56,143.99 210.75,112.93 210.90,89.03 211.06,62.34" class="curve thick-road"/>
<line x1="209.990800553" y1="62.3319520708" x2="209.988612089" y2="41.8333339412" class="curve thick-road"/>
<line x1="211.057447486" y1="62.3384402800" x2="211.055258887" y2="41.8385533266" class="curve thick-road"/>
<line x1="209.208751428" y1="190.899059961" x2="210.275398362" y2="190.905548170" class="curve thick-road"/>
<line x1="209.682896844" y1="112.950625621" x2="210.749698461" y2="112.931684232" class="curve thick-road"/>
<line x1="209.828689107" y1="88.9827071895" x2="210.895104911" y2="89.0271926303" class="curve thick-road"/>
<line x1="209.990800553" y1="62.3319520708" x2="211.057447486" y2="62.3384402800" class="curve thick-road"/>
<polyline points="161.69,67.69 161.67,67.95 161.43,69.06 161.33,69.56 161.27,69.80 161.25,69.93 161.02,70.91 160.95,71.21 160.39,73.47 160.31,73.70 160.21,73.94 159.39,76.56 159.08,77.58 159.03,77.76 158.95,77.99 158.84,78.35 158.55,79.24 158.49,79.42 158.25,80.13 158.21,80.25 158.14,80.42 158.03,80.72 157.57,81.75 157.00,83.07 156.80,83.79 156.69,84.28 156.69,84.55 156.68,85.01 156.71,85.42 156.70,85.95 156.70,86.08 156.71,86.28 156.80,87.45 156.79,87.71 156.73,88.68 156.70,88.87 156.64,89.05 156.56,89.22 156.22,89.83 156.13,89.99 155.87,90.43 155.78,90.60 155.27,91.47 155.16,91.97 155.10,92.68 155.08,93.00 155.10,93.41 155.11,93.68 155.10,93.94 155.17,94.56 155.16,94.82 155.13,95.01 154.98,95.56 154.47,96.70 152.88,99.18 152.78,99.34 152.50,99.64 152.21,99.93 151.89,100.28 151.16,101.01 150.65,101.62 150.20,102.19 150.19,102.19 149.02,103.62 148.84,103.82 148.50,104.36 148.39,104.52 148.26,104.74 148.08,105.08 148.08,105.07 148.05,105.13 146.55,108.11 146.14,108.89 146.06,109.06 145.89,109.33 145.75,109.55 144.92,110.84 144.85,110.95 144.75,111.18 144.68,111.42 144.64,111.60 144.60,111.72 144.53,111.89 144.35,112.29 144.20,112.64 143.20,115.00 142.34,117.08 141.95,117.93 141.85,118.16 141.81,118.35 141.41,120.39 141.37,120.58 141.34,120.77 141.00,122.64 140.77,124.21 140.67,124.78 140.53,125.59 140.47,125.90 140.39,126.27" class="curve thick-road"/>
<polyline points="133.65,182.99 133.66,183.04 133.68,183.08 133.68,183.12 133.69,183.16 133.70,183.20 133.71,183.25 133.73,183.30 133.76,183.41 133.78,183.50 133.83,183.68 133.87,183.83 133.90,183.98 133.93,184.11 133.96,184.22 133.97,184.29 133.99,184.35 134.00,184.45 134.01,184.52 134.02,184.54 134.02,184.55 134.02,184.56 134.03,184.65 134.04,184.73 134.04,184.76 134.04,184.82 134.05,184.94 134.06,185.03 134.06,185.07 134.06,185.11 134.07,185.24 134.09,185.43 134.11,185.51 134.12,185.58 134.15,185.69 134.15,185.70 134.16,185.72 134.16,185.74 134.17,185.76 134.18,185.79 134.20,185.86 134.24,185.94 134.26,186.00 134.30,186.09 134.33,186.15 134.36,186.23 134.39,186.31 134.42,186.40" class="curve thick-road"/>
<polyline points="134.42,186.40 134.69,186.60 134.96,186.80 135.16,186.96 135.29,187.04 135.44,187.14 136.37,187.81 136.46,187.88 136.64,188.01 137.02,188.31 137.23,188.46 137.26,188.49 137.32,188.53 137.44,188.61 137.98,189.01 138.37,189.29 138.49,189.38 138.61,189.47 138.67,189.51 138.73,189.55 138.73,189.55 139.24,189.92 139.39,190.03 139.54,190.14 139.64,190.20 139.91,190.39 140.52,190.74 140.87,190.95 140.96,191.00 141.21,191.17 141.27,191.21 141.33,191.25 141.35,191.29 141.65,191.50 141.79,191.57 141.94,191.67 142.18,191.84 142.21,191.86 142.40,191.98 142.55,192.09 142.61,192.13 142.64,192.15 142.76,192.23 142.95,192.36 143.25,192.56 143.31,192.61 143.37,192.65 143.56,192.77 143.77,192.92 144.19,193.29 144.22,193.32 144.38,193.41 144.55,193.50 144.58,193.52 145.65,194.24 145.71,194.28 145.74,194.30 145.80,194.34 145.86,194.39 145.92,194.43 146.14,194.57 146.35,194.72 146.87,195.07 147.02,195.18 147.13,195.30 147.18,195.34 147.41,195.47 147.53,195.55 147.60,195.58 147.79,195.69 148.15,195.88 148.25,195.94 148.51,196.08 148.60,196.13 148.70,196.18 148.85,196.23 149.03,196.27 149.94,196.76 150.19,196.92 150.22,196.95 150.58,197.13 150.65,197.16 150.72,197.20 150.82,197.24 151.06,197.34 151.27,197.42 151.34,197.44 151.93,197.68 152.19,197.75 152.39,197.84 152.49,197.89 152.75,198.04 152.81,198.07 152.88,198.11 153.01,198.18 153.43,198.41 153.52,198.47 153.62,198.52 153.65,198.54 153.85,198.65 154.04,198.75 154.07,198.77 154.10,198.79 154.23,198.87 154.35,198.95 155.77,199.82 155.80,199.84 155.90,199.89 156.84,200.32 156.95,200.36 157.08,200.43 157.28,200.52 157.35,200.55 157.49,200.61 157.75,200.74 158.22,200.97 158.89,201.28 158.99,201.33 160.24,201.89 160.92,202.20 161.83,202.61 162.53,202.96 162.63,203.01 162.76,203.07 162.82,203.11 162.86,203.12 163.13,203.23 163.28,203.28 164.06,203.63 164.73,204.08 165.06,204.33 165.23,204.47 165.35,204.57 165.66,204.91 165.77,205.02 165.85,205.09 165.91,205.13 165.95,205.14 165.99,205.15 165.99,205.15 166.03,205.15 166.20,205.15" class="curve thick-road"/>
<polyline points="243.25,205.84 243.66,205.82 243.90,205.80 244.11,205.79 244.48,205.76 244.72,205.75 244.97,205.73 246.12,205.67 246.40,205.64 246.49,205.64 246.98,205.63 247.31,205.61 247.35,205.61 248.46,205.55 248.71,205.54 249.44,205.49 251.41,205.40 251.78,205.38 252.07,205.37 252.44,205.35 252.48,205.35 252.73,205.34 253.46,205.27 253.95,205.23 254.61,205.19 254.98,205.17 256.33,205.09 256.58,205.08 256.70,205.07 256.78,205.07 257.19,205.04 257.65,205.02 258.10,204.99 258.18,204.98 258.26,204.98 258.47,204.97 261.38,204.84 261.55,204.84 262.04,204.80 262.41,204.77 263.10,204.72 263.76,204.66 263.88,204.65 264.74,204.60 264.99,204.58 265.27,204.56 269.91,204.30 270.11,204.29 270.24,204.28 271.38,204.20 271.55,204.19 271.59,204.18 271.71,204.16 272.70,203.85 274.91,203.17 275.19,203.10 275.51,203.03 276.51,202.81 276.75,202.75 277.46,202.49 277.85,202.33 280.44,201.18 280.87,201.00 281.11,200.90 282.74,200.18 283.36,199.91 283.71,199.76" class="curve thick-road"/>
<polyline points="283.71,199.76 283.71,199.75 283.72,199.74 283.72,199.74 283.72,199.73 283.73,199.72 283.74,199.69 283.75,199.68 283.75,199.68 283.77,199.64 283.78,199.62 283.81,199.57 283.83,199.51 283.84,199.48 283.85,199.46 283.85,199.46 283.85,199.46 283.85,199.45 283.85,199.45 283.86,199.44 283.86,199.44 283.86,199.44 283.87,199.42 283.89,199.33 283.90,199.29 283.90,199.28 283.90,199.27 283.92,199.22 283.92,199.21 283.93,199.20 283.93,199.18 283.93,199.18 283.93,199.18 283.95,199.13 283.95,199.11 283.98,199.05 283.98,199.03 283.99,199.02 283.99,199.01 284.00,198.99 284.02,198.94 284.04,198.90 284.04,198.88 284.05,198.85 284.07,198.83 284.07,198.82 284.08,198.81 284.11,198.74 284.11,198.74 284.15,198.67 284.15,198.66 284.16,198.65 284.19,198.60 284.20,198.57 284.21,198.56 284.22,198.55 284.22,198.54 284.23,198.54 284.23,198.53 284.23,198.52 284.23,198.52 284.25,198.50 284.36,198.31 284.37,198.29 284.37,198.29 284.37,198.28 284.38,198.26 284.38,198.26 284.38,198.26 284.39,198.24 284.42,198.18 284.43,198.14 284.44,198.12 284.44,198.11 284.46,198.07 284.46,198.06 284.47,198.05 284.47,198.05 284.47,198.03 284.47,198.03 284.48,198.03 284.49,197.99 284.51,197.93 284.51,197.91 284.52,197.87 284.52,197.85 284.53,197.84 284.53,197.83 284.53,197.83 284.54,197.81 284.55,197.76 284.55,197.74 284.56,197.70 284.57,197.68 284.57,197.67 284.60,197.59 284.61,197.54 284.61,197.53 284.63,197.46 284.63,197.46 284.63,197.45 284.63,197.44 284.64,197.43 284.64,197.42 284.64,197.40 284.64,197.40 284.65,197.39 284.65,197.37 284.65,197.37 284.66,197.33 284.67,197.32 284.67,197.31 284.67,197.30 284.68,197.27 284.69,197.22 284.70,197.21 284.70,197.21 284.70,197.20 284.72,197.13 284.72,197.13 284.74,197.06 284.74,197.06 284.76,196.97 284.76,196.97 284.77,196.95 284.77,196.93 284.78,196.88 284.79,196.86 284.80,196.84 284.81,196.81 284.83,196.72 284.84,196.69 284.86,196.60 284.86,196.59 284.87,196.58 284.87,196.58 284.87,196.58 284.88,196.52 284.89,196.51 284.89,196.50 284.89,196.50 284.89,196.50 284.89,196.49 284.92,196.39 284.92,196.38 284.95,196.28 284.95,196.28 284.95,196.27 284.95,196.27 284.96,196.26 284.96,196.26 284.96,196.25 284.97,196.22 284.98,196.18 284.99,196.14 284.99,196.13 285.00,196.12 285.00,196.11 285.00,196.10 285.00,196.10 285.00,196.10 285.02,196.05 285.02,196.04 285.02,196.03 285.02,196.01 285.05,195.91 285.05,195.90 285.05,195.89 285.05,195.89 285.06,195.88 285.07,195.83 285.07,195.82 285.07,195.82 285.08,195.81 285.08,195.81 285.08,195.80 285.08,195.79 285.08,195.79 285.09,195.77 285.12,195.66 285.12,195.63 285.14,195.59 285.14,195.58 285.15,195.55 285.15,195.55 285.15,195.54 285.15,195.54 285.15,195.54 285.16,195.53 285.16,195.52 285.16,195.52 285.20,195.36 285.20,195.33 285.21,195.33 285.21,195.30 285.22,195.27 285.23,195.25 285.23,195.25 285.23,195.24 285.23,195.24 285.23,195.23 285.24,195.21 285.24,195.21 285.24,195.21 285.24,195.20" class="curve thick-road"/>
<polyline points="285.24,195.20 285.39,195.08 285.47,195.01 285.59,194.91 285.62,194.88 285.67,194.85 285.80,194.74 286.10,194.50 286.17,194.43 286.29,194.33 286.57,194.08 286.65,194.02 286.76,193.92 287.38,193.40 287.48,193.32 287.75,193.08 287.98,192.89 288.06,192.82 288.54,192.44 288.65,192.32 288.73,192.27 288.82,192.19 288.86,192.17 289.09,192.07 289.68,191.57 289.99,191.34 290.15,191.21 290.22,191.12 290.28,191.05 290.34,190.92 290.38,190.89 290.52,190.76 290.72,190.59 290.96,190.40 291.00,190.36 291.14,190.24 291.28,190.13 291.96,189.55 292.25,189.30 293.28,188.43 293.33,188.39 293.38,188.34 293.80,188.00 293.90,187.92 293.94,187.89 294.03,187.82 294.27,187.59 294.33,187.52 294.47,187.41 294.76,187.18 294.99,186.99 295.05,186.94 295.41,186.64 296.01,186.13 296.16,186.01 296.23,185.95 296.25,185.93 296.32,185.87 296.47,185.75 296.66,185.58" class="curve thick-road"/>
<polyline points="296.66,185.58 296.86,185.10 296.87,184.98 296.87,184.92 296.81,184.56 296.53,183.08 296.41,182.55 295.85,180.19 295.81,180.01 295.67,179.36 295.40,178.12 295.38,178.06 295.27,177.47 295.15,176.94 294.93,175.93 294.75,175.04 294.22,172.62 294.17,172.44 293.73,170.19 293.69,170.02 293.58,169.48 293.60,168.77 293.60,166.56 293.61,166.20 293.61,165.30 293.61,164.88 293.61,164.47 293.62,162.73 293.62,162.49 293.62,162.38 293.63,161.54 293.65,160.28 293.64,159.69 293.64,159.09 293.66,158.31 293.66,157.95 293.67,156.46 293.68,155.80 293.69,155.56 293.69,154.85 293.69,154.55 293.70,154.31 293.70,153.77 293.71,153.00 293.72,152.58 293.71,151.92 293.74,150.01 293.76,149.05 293.75,148.75 293.80,145.88 293.79,144.99 293.79,144.69 293.79,144.39 293.80,143.44 293.80,142.72 293.81,142.36 293.82,141.76 293.82,141.41 293.82,141.17 293.83,139.91 293.84,139.19 293.86,137.88 293.86,137.28 293.86,136.92 293.84,136.33 293.85,136.09 293.85,135.85 293.87,134.36 293.90,132.38 293.91,131.73 293.92,130.77 293.93,130.11 293.93,129.99 293.94,129.52 293.95,129.22 293.95,128.80 293.91,127.96 293.87,127.07 293.87,126.95 293.90,125.99" class="curve thick-road"/>
<polyline points="293.90,125.99 293.81,125.80 293.79,125.75 293.73,125.60 293.67,125.45 293.65,125.40 293.62,125.30 293.58,125.20 293.56,125.15 293.23,124.31 292.79,123.17 292.68,122.87 292.63,122.72 292.60,122.61 292.56,122.51 292.53,122.41 292.49,122.31 292.45,122.16 292.38,121.96 292.31,121.75 292.29,121.70 292.17,121.35 292.14,121.25 292.10,121.15 291.77,120.19 291.70,119.99 291.69,119.94 291.65,119.84 291.63,119.79 291.37,119.03 291.23,118.63 291.21,118.57 291.18,118.47 290.99,117.92 290.98,117.86 290.94,117.77 290.83,117.46 290.72,117.16 290.70,117.11 290.66,117.01 290.63,116.91 290.61,116.86 290.44,116.36 290.40,116.26 290.39,116.21 290.23,115.75 289.94,114.89 289.87,114.69 289.83,114.59 289.75,114.34 289.73,114.29 289.70,114.19 289.68,114.14 289.49,113.58 289.46,113.48 289.16,112.62 288.97,112.06 288.96,112.01 288.90,111.86 288.85,111.71 288.84,111.66 288.75,111.41 288.69,111.26 288.66,111.16 288.59,110.95 288.57,110.90 288.06,109.44 288.05,109.39 288.00,109.24 287.66,108.23 287.58,108.03 287.59,108.02 287.57,107.97 287.49,107.77 287.48,107.72 287.44,107.62 287.44,107.62 287.42,107.57 287.37,107.42 287.26,107.12 286.84,105.85 286.79,105.70 286.75,105.60 286.63,105.25 286.58,105.10 286.53,104.95 286.46,104.74 286.16,103.89 286.06,103.58 286.03,103.48 286.01,103.43 285.97,103.33 285.92,103.24 285.88,103.14 285.80,103.00 285.60,102.62 285.27,102.07 285.22,101.98 285.17,101.88 285.13,101.84 284.69,101.05 284.68,101.05 284.13,100.08 284.05,99.94 283.93,99.76 283.91,99.71 283.88,99.67 283.83,99.57 283.77,99.48 283.75,99.44 283.37,98.79 283.21,98.51 283.11,98.32 282.98,98.09 282.95,98.05 282.92,98.00 282.86,97.91 282.75,97.73 282.73,97.68 282.64,97.54 282.42,97.18 282.00,96.43 281.95,96.34 281.87,96.20 281.82,96.11 281.78,96.06 281.68,95.88 281.66,95.83 281.55,95.65 281.47,95.51 281.15,94.95 281.12,94.91 280.96,94.63 280.69,94.17 280.48,93.80 280.43,93.70 280.38,93.61 280.33,93.52 280.29,93.47 280.23,93.38 279.99,92.97 279.99,92.97 279.96,92.92 279.93,92.88 279.91,92.83 279.85,92.74 279.83,92.69 279.78,92.60 279.54,92.18 279.52,92.13 279.46,91.98 279.40,91.83 279.13,91.20 279.11,91.15 278.95,90.81 278.93,90.76 278.93,90.76 278.88,90.67 278.84,90.57 278.79,90.47 278.79,90.47 278.77,90.43 278.69,90.23 278.36,89.45 278.31,89.35 278.23,89.16 278.03,88.72 278.01,88.67 277.92,88.54 277.83,88.40 277.80,88.36 277.74,88.27 277.65,88.13 277.60,88.04 277.40,87.78 277.32,87.64 277.19,87.47 277.11,87.33 276.58,86.58 276.17,85.95 276.14,85.90 275.99,85.67 275.49,84.79 275.40,84.66 275.32,84.52 275.25,84.38 275.22,84.33 275.16,84.24 275.03,83.95 275.01,83.90 274.98,83.86 274.83,83.52 274.74,83.32 274.72,83.27 274.68,83.18 274.65,83.13 274.56,82.94 274.36,82.50 273.99,81.68 273.76,81.20 273.74,81.15 273.70,81.06 273.54,80.72 273.08,79.76 273.03,79.66 272.74,79.03 272.66,78.84 272.43,78.36 272.23,77.93 272.16,77.78 272.16,77.78 272.14,77.73 272.12,77.69 272.05,77.54" class="curve thick-road"/>
<polyline points="103.65,156.70 103.76,156.81 103.82,156.87 104.33,157.37 105.57,158.50 105.70,158.60 105.90,158.73 106.01,158.85 106.45,159.31 107.11,159.95 107.67,160.53 107.78,160.64 108.11,160.99 108.39,161.28 108.41,161.31 108.47,161.37 108.58,161.48 108.67,161.57 109.17,162.08 109.29,162.19 109.34,162.25 109.59,162.51 109.68,162.59 109.85,162.76 109.93,162.85 110.10,163.02 110.40,163.34 110.49,163.42 110.65,163.54 111.39,164.03 111.62,164.19 111.70,164.22 111.85,164.28 112.05,164.36 112.13,164.39 112.24,164.44 112.69,164.60 113.82,165.06 113.94,165.11 114.02,165.14 114.54,165.33 114.63,165.35 115.89,165.79 116.02,165.83 116.18,165.89 116.23,165.89 116.60,166.01 116.63,166.03 116.91,166.14 117.07,166.21 117.35,166.36 117.54,166.52 117.74,166.71 118.43,167.43 119.02,167.91 119.28,168.10 119.88,168.57 120.27,168.91 120.67,169.30 120.86,169.51 121.21,169.95 121.52,170.39 121.75,170.79 121.79,170.86 122.24,171.92 122.34,172.18 122.41,172.33 122.45,172.41 122.56,172.59 122.72,172.83 122.84,173.00 123.09,173.25 123.38,173.52 123.50,173.63 124.13,174.00 124.63,174.28 125.19,174.67 125.55,174.93 126.37,175.63 127.19,176.44 127.19,176.44 127.22,176.47 127.36,176.62 127.47,176.73 127.49,176.76 127.49,176.76 127.72,177.00 127.91,177.19 127.99,177.28 128.13,177.43 128.16,177.46 128.16,177.46 128.82,178.15 128.93,178.27 129.01,178.36 129.10,178.45 129.18,178.53 129.21,178.56 129.37,178.74 129.48,178.85 130.09,179.49 130.14,179.55 130.14,179.55 130.56,179.99 130.65,180.06 130.77,180.17 131.10,180.52 131.31,180.76 131.59,181.05 132.07,181.59 132.20,181.69 132.38,181.90 132.77,182.30 132.88,182.42 132.90,182.45 132.97,182.50 133.06,182.52 133.10,182.53 133.21,182.59 133.24,182.62 133.36,182.72 133.50,182.86 133.65,182.99" class="curve thick-road"/>
<polyline points="140.39,126.27 140.32,126.58 139.95,127.04 139.43,127.62 138.82,127.69 138.55,127.72 138.54,128.15 138.51,128.35 137.72,129.23 137.56,129.55 137.43,129.76 136.92,130.91 136.45,132.03 136.39,132.20 136.06,132.98 135.72,133.46 135.38,133.87 134.99,134.25 134.44,134.73 133.57,135.42 132.97,135.79 132.06,136.24 131.78,136.41 131.34,136.68 131.11,136.88 130.43,137.70 130.27,137.88 129.64,138.88 129.25,139.47 129.00,139.87 128.83,140.12 128.62,140.48 128.22,141.20 128.14,141.36 127.89,141.84 127.45,142.68 127.31,142.95 126.83,143.84 126.28,144.82 126.05,145.17 125.79,145.49 125.63,145.67 125.13,146.25 124.90,146.53 124.39,147.11 124.28,147.25 123.55,148.11 122.77,149.01 121.49,150.49 121.20,150.80 121.04,150.97 120.89,151.15 120.05,152.15 119.93,152.29 119.77,152.47 118.13,154.35 117.90,154.62 117.67,154.89 117.49,155.12 116.63,155.97 115.49,157.12 115.25,157.38 115.00,157.71 114.88,157.92 114.75,158.19 114.67,158.35 114.58,158.50 114.47,158.71 114.32,158.97 114.22,159.12 114.01,159.33 112.46,160.77 112.25,160.99 111.99,161.24 111.90,161.32 110.58,162.56 109.42,163.62 108.67,164.33 107.88,165.07 107.56,165.35 107.40,165.53 107.33,165.70 107.29,166.10 107.26,166.52 107.23,166.92 107.14,167.95 107.13,168.30 107.10,168.64 107.00,170.29 106.97,170.93 106.96,171.13 106.85,172.21 106.74,174.01 106.73,174.14 106.70,174.26 106.65,174.66 106.62,174.79" class="curve thick-road"/>
<polyline points="137.66,123.72 137.30,123.53 137.18,123.47 137.03,123.40 136.94,123.17 136.79,122.71 136.74,122.54 136.70,122.48 136.48,121.91 136.12,121.21 135.93,120.94 135.87,120.87 135.65,120.59 135.44,120.34 135.20,120.03 134.93,119.70 134.93,119.70 134.75,119.48 134.73,119.45 134.56,119.25 134.52,119.20 134.44,119.10 134.26,118.91 134.09,118.72 133.85,118.46 133.56,118.15 133.50,118.08 133.41,117.98 133.30,117.86 133.26,117.82 133.04,117.58 132.60,117.10 132.36,116.84 132.12,116.58 131.97,116.41 131.82,116.25 131.42,115.82 131.25,115.63 131.19,115.56 131.03,115.39 130.97,115.32 130.90,115.25 130.59,114.92 130.35,114.66 130.27,114.56 130.22,114.51 130.03,114.30 129.98,114.25 129.88,114.17 129.60,113.95 129.43,113.81 129.30,113.71 129.23,113.65 128.78,113.28 128.73,113.24 127.51,112.56 127.34,112.45 127.21,112.36 126.97,112.19 126.79,112.06 126.34,111.74 126.18,111.63 125.91,111.45 125.85,111.41 125.77,111.36 125.74,111.34 125.66,111.28 124.99,110.83 124.55,110.50 124.23,110.23 124.02,110.07 123.85,109.93 123.70,109.81 123.12,109.30 122.50,108.78 121.61,108.03 121.51,107.95 120.60,107.19 120.37,107.00 120.27,106.92 119.51,106.28 119.36,106.15 119.06,105.90 118.87,105.74 118.77,105.66 118.69,105.59 117.90,104.93 117.31,104.44 117.01,104.19 116.76,103.98 116.67,103.90 116.07,103.40 115.97,103.32 114.86,102.39 114.76,102.30 114.54,102.12 114.42,102.01 114.37,101.97 114.24,101.87 114.11,101.78" class="curve thick-road"/>
<polyline points="272.05,77.54 272.10,77.47 272.13,77.43 272.19,77.35 272.23,77.30 272.24,77.28 272.53,76.92 272.94,76.38 272.99,76.32 273.02,76.27 273.05,76.24 273.06,76.22 273.24,75.99 273.25,75.97 273.27,75.95 273.28,75.93 273.30,75.90 273.31,75.89 273.31,75.89 273.61,75.51 273.67,75.43 273.73,75.35 273.78,75.29 274.00,75.02 274.03,74.98 274.08,74.92 274.19,74.79 274.21,74.77 274.50,74.41 274.57,74.33 274.63,74.26 274.66,74.22 274.72,74.14 274.78,74.06 274.80,74.04 274.82,74.00 274.87,73.94 275.06,73.65 275.10,73.57 275.12,73.52 275.13,73.48 275.13,73.45 275.15,73.27 275.16,73.26 275.16,73.23 275.24,73.11 275.30,73.02 275.38,72.88 275.44,72.79 275.45,72.78 275.61,72.66 275.81,72.51 275.94,72.42 276.00,72.38 276.16,72.27 276.22,72.24 276.24,72.23 276.31,72.19 276.59,72.04 276.62,72.01 276.93,71.83 276.95,71.81 277.11,71.68 277.22,71.58 277.31,71.51 277.37,71.45 277.39,71.42 277.45,71.37 277.45,71.36 277.69,71.02 277.75,70.94 277.79,70.88 277.82,70.84 277.83,70.83 277.84,70.82 277.87,70.80 277.89,70.77 277.98,70.70 278.09,70.61 278.10,70.60 278.25,70.47 278.28,70.45 278.29,70.44 278.30,70.43 278.31,70.41 278.49,70.24 278.50,70.23 278.58,70.17 278.60,70.14 278.76,69.98 278.78,69.96 278.88,69.85 278.94,69.78 278.98,69.74 279.00,69.71 279.01,69.70 279.01,69.70 279.08,69.62 279.23,69.43 279.32,69.31 279.39,69.22 279.39,69.21 279.41,69.20 279.65,68.91 279.68,68.87 279.72,68.81 279.73,68.80 279.79,68.72 279.88,68.61 279.91,68.58 279.93,68.55 279.98,68.48 280.02,68.43 280.04,68.40 280.09,68.34 280.10,68.32 280.14,68.28 280.15,68.27 280.19,68.23 280.21,68.20" class="curve thick-road"/>
<polyline points="161.69,67.56 161.68,67.54 161.65,67.50 161.64,67.49 161.63,67.48 161.55,67.35 161.50,67.28 161.32,67.02 161.27,66.96 161.24,66.91 161.14,66.77 161.01,66.59 161.00,66.57 160.98,66.54 160.95,66.50 160.74,66.20 160.62,66.02 160.55,65.93 160.51,65.87 160.48,65.81 160.47,65.79 160.19,65.10 160.18,65.08 160.17,65.05 160.15,65.00 160.13,64.95 160.11,64.92 160.10,64.89 160.07,64.80 160.06,64.79 160.02,64.70 159.95,64.54 159.91,64.43 159.88,64.38 159.87,64.34 159.64,63.79 159.63,63.76 159.60,63.69 159.58,63.65 159.57,63.62 159.47,63.39 159.21,62.78 159.08,62.43 159.06,62.38 158.90,62.00 158.83,61.84 158.82,61.81 158.80,61.77 158.79,61.74 158.78,61.71 158.66,61.43 158.65,61.40 158.62,61.36 158.60,61.31 158.59,61.28 158.56,61.20 158.51,61.08 158.45,60.95 158.44,60.92 158.42,60.87 158.40,60.83 158.39,60.80 158.35,60.71 158.35,60.69 158.33,60.65 158.31,60.62 158.29,60.59 158.18,60.45 158.14,60.41 158.11,60.38 158.07,60.33 158.05,60.30 158.02,60.26 157.74,59.93 157.70,59.89 157.63,59.80 157.61,59.78 157.57,59.73 157.52,59.66 157.49,59.63 157.42,59.55 157.00,59.05 156.90,58.93 156.80,58.82 156.78,58.79 156.75,58.75 156.68,58.66 156.60,58.58 156.42,58.35 156.40,58.34 156.38,58.31 156.21,58.11 156.05,57.92 155.95,57.80 155.91,57.75 155.86,57.68 155.84,57.65 155.62,57.32 155.41,57.02 155.39,56.99 155.33,56.91" class="curve thick-road"/>
<polyline points="272.05,77.54 271.54,77.49 271.04,77.44 270.97,77.44 270.85,77.42 270.59,77.40 269.44,77.35 269.06,77.32 268.62,77.28 267.09,77.14 266.59,77.10 266.02,77.04 265.54,76.90 263.97,76.44 262.36,75.86 261.84,75.61 261.08,75.28 260.96,75.23 260.44,74.99 260.20,74.90 259.73,74.73 259.13,74.52 258.28,74.31 256.42,73.96 254.70,73.86 253.32,73.91 252.19,74.04 250.79,74.20 250.39,74.24 250.12,74.29 249.45,74.37 246.10,74.81 245.70,74.85 244.05,74.99 243.65,75.03 243.40,75.02 242.62,75.01 239.21,74.67 238.58,74.59 238.33,74.54 237.97,74.45 237.60,74.38 236.99,74.22 236.26,74.04 235.16,73.76 234.98,73.70 230.47,72.06 230.29,71.99 228.74,71.45 226.84,70.75 226.19,70.51 225.83,70.39 225.60,70.27 225.08,70.01 225.02,69.98 224.45,69.70 222.24,68.68 222.01,68.57 221.60,68.38 221.08,68.11 219.01,67.06 218.78,66.94 218.44,66.77 217.75,66.42 215.45,65.25 214.18,64.62 213.84,64.43 213.50,64.23 211.76,62.89 211.65,62.81 211.33,62.54 211.06,62.34" class="curve thick-road"/>
<polyline points="193.76,64.13 193.95,64.32 194.79,65.26 194.84,65.30 195.30,65.78 195.36,65.84 195.42,65.91 195.51,66.00 195.57,66.09 195.61,66.17 195.66,66.28 195.72,66.42 195.77,66.57 195.80,66.72 195.84,66.91 195.85,67.08 195.85,67.11 195.85,67.43 195.81,67.74 195.80,67.88 195.77,67.97 195.70,68.30 195.63,68.52 195.56,68.75 195.42,69.15 195.35,69.27 195.31,69.37 195.10,69.82 195.06,69.88 195.04,69.96 194.99,70.10 194.95,70.23 194.93,70.39 194.94,70.56 194.94,70.69 194.96,70.79 194.98,70.92 195.04,71.09 195.07,71.14 195.12,71.25 195.20,71.37 195.27,71.47 195.36,71.56 195.46,71.66 195.56,71.74 195.67,71.81 195.82,71.89 195.96,71.94 196.05,71.95 196.13,71.97 196.26,72.00 196.36,72.00 196.44,72.01 196.57,72.01 196.67,72.01 196.77,72.01 196.95,72.04 197.11,72.08 197.41,72.13 197.56,72.18 197.67,72.21 197.70,72.22 197.78,72.24 198.13,72.37 198.73,72.62 198.83,72.66 199.12,72.79 199.32,72.90 199.50,73.00 199.77,73.18 200.00,73.34 200.09,73.43 200.20,73.64 200.26,73.78 200.31,73.89 200.35,73.97 200.54,74.37 200.58,74.45 200.69,74.70 200.98,75.29 201.21,75.63 201.27,75.70 201.50,75.93 201.86,76.16 202.24,76.34 202.45,76.42 202.72,76.49 202.98,76.56 203.63,76.78 204.29,76.98 204.32,77.00 204.44,77.03 204.51,77.06 204.65,77.10 204.76,77.14 204.79,77.15 204.98,77.21 205.24,77.29 205.42,77.35 205.48,77.38 205.57,77.43 205.59,77.45 205.63,77.50 205.74,77.71 205.85,77.92 205.87,77.97 206.30,78.79 206.83,79.82 206.88,79.93 207.01,80.20 207.05,80.28 207.22,80.59 207.45,81.04 207.58,81.28 207.62,81.36 208.01,82.13 208.06,82.23 208.13,82.36 208.18,82.47 208.24,82.61 208.28,82.72 208.36,83.02 208.37,83.05 208.47,83.41 208.60,83.89 208.61,83.96 208.82,84.77 208.86,84.99 208.93,85.23 208.95,85.39 209.03,85.69 209.07,85.84 209.27,86.77 209.29,86.86 209.30,86.93 209.55,87.93 209.64,88.26 209.66,88.32 209.68,88.41 209.73,88.62 209.74,88.65 209.78,88.80 209.83,88.98" class="curve thick-road"/>
<polyline points="259.24,243.12 259.00,242.80 258.97,242.65 259.04,241.15 259.10,239.95 259.12,239.65 259.13,239.50 259.20,238.31 259.21,238.16 259.26,237.41 259.30,236.81 259.30,236.81 259.35,236.06 259.35,235.91 259.38,235.16 259.39,235.01 259.39,234.86 259.47,233.52 259.51,233.07 259.53,232.62 259.54,232.32 259.59,231.57 259.58,231.57 259.61,230.97 259.62,230.82 259.64,230.52 259.64,230.37 259.65,230.22 259.68,229.62 259.70,229.17 259.77,227.98 259.76,227.98 259.79,227.53 259.80,226.93 259.81,226.78 259.82,226.48 259.83,226.33 259.84,226.03 259.87,225.58 259.94,224.68 259.98,224.08 260.03,223.19 260.05,222.89 260.08,222.29 260.08,222.29 260.11,221.84 260.15,221.24 260.16,220.94 260.20,220.34 260.22,220.04 260.22,219.89 260.28,218.85 260.35,217.65 260.36,217.35 260.38,217.05 260.43,216.30 260.44,216.00 260.45,215.85 260.57,213.76 260.57,213.76 260.58,213.61 260.58,213.61 260.60,213.16 260.61,213.01 260.65,212.26 260.66,212.11 260.67,211.96 260.75,210.31 260.80,209.41 260.80,209.41 260.80,209.41 260.81,209.26 260.81,209.26 260.80,208.96 260.81,208.66 260.82,208.51 260.87,207.76 260.94,206.57 260.96,206.27 260.98,205.97 261.02,205.22 261.08,204.32 261.10,204.02 261.10,203.87 261.14,203.12 261.16,202.83 261.21,201.78 261.22,201.48 261.23,201.18 261.23,201.18 261.31,199.38 261.46,196.53 261.49,196.24 261.51,195.94 261.53,195.64 261.54,195.34 261.57,194.89 261.61,193.99 261.72,191.89 261.74,191.59 261.75,191.44 261.76,191.29 261.80,190.55 261.81,190.40 261.84,189.80 261.87,189.05 261.87,189.05 261.88,188.90 261.90,188.60 261.95,187.70 261.96,187.40 262.00,186.65 262.10,184.71 262.10,184.71 262.15,184.11 262.20,183.36 262.22,183.06 262.35,180.51 262.40,179.17 262.50,177.67 262.52,177.37 262.53,177.07 262.59,175.87 262.67,174.22 262.71,173.48 262.72,173.18 262.74,172.88 262.80,171.53 262.81,171.38 262.82,171.23 262.88,170.33 262.97,168.68 262.98,168.53 263.01,167.94 263.04,167.49 263.49,158.65 263.52,158.20 263.64,156.26 263.65,156.11 263.70,155.36 263.71,155.21 263.72,155.06 263.74,154.76 263.78,153.86 263.86,152.51 263.87,152.36 263.91,151.62 263.92,151.47 263.93,151.32 263.93,151.17 264.04,149.37 264.07,148.92 264.07,148.77 264.13,147.27 264.14,146.97 264.16,146.52 264.19,145.77 264.21,145.33 264.21,145.02 264.27,143.98 264.31,143.23 264.34,142.63 264.36,142.33 264.37,142.18 264.87,134.10 264.95,132.60 264.97,132.30 265.00,131.70 265.00,131.70 265.02,131.40 265.10,129.91 265.12,129.76 265.12,129.76 265.15,129.46 265.11,129.31 265.11,129.16 265.11,129.16 265.43,127.98 265.52,127.53 265.74,126.05 265.78,125.75 265.85,125.45 265.93,125.16 265.96,125.01 266.04,124.42 266.07,124.27 266.09,124.12 266.19,123.53 266.22,123.38 266.71,120.56 266.73,120.41 266.94,118.77 267.01,118.48 267.06,118.03 267.57,114.76 267.57,114.76 267.59,114.61 267.62,114.31 267.67,113.87 267.69,113.42 267.75,112.52 267.77,112.37 267.81,112.22 267.84,111.93 267.87,111.78 267.89,111.63 268.10,110.29 268.15,110.00 268.36,109.11 268.46,108.37 268.48,108.22 268.49,108.22 268.73,106.73 268.91,105.69 268.93,105.55 268.95,105.40 269.10,104.51 269.18,104.06 269.43,102.58 269.56,101.84 269.78,100.50 269.81,99.90 269.85,99.60 269.85,99.60 269.91,99.01 269.91,99.01 270.00,98.41 270.09,97.97 270.30,96.78 270.38,96.19 270.42,96.04 270.51,95.44 270.80,93.66" class="curve thick-road"/>
<polyline points="270.80,93.66 270.80,93.56 270.80,93.50 270.79,93.45 270.79,93.40 270.79,93.39 270.79,93.32 270.79,93.26 270.79,93.24 270.79,93.21 270.79,93.19 270.78,93.14 270.78,93.13 270.78,92.88 270.77,92.83 270.77,92.62 270.77,92.59 270.76,92.41 270.76,92.39 270.75,91.97 270.75,91.87 270.74,91.78 270.74,91.74 270.74,91.66 270.73,91.48 270.73,91.29 270.72,91.17 270.72,91.11 270.72,91.04 270.70,90.64 270.72,89.97 270.72,89.94 270.76,89.51 270.77,89.44 270.77,89.41 270.77,89.38 270.78,89.27 270.79,89.14 270.80,89.09 270.80,89.01 270.81,88.86 270.82,88.77 270.87,88.14 270.89,87.88 270.89,87.83 270.92,87.43 270.93,87.31 270.94,87.17 270.95,87.06 270.96,86.86 270.96,86.83 270.98,86.78 271.02,86.67 271.04,86.63 271.06,86.56 271.27,85.98 271.28,85.95 271.37,85.68 271.39,85.62 271.40,85.55 271.39,85.49 271.37,85.27 271.37,85.24 271.37,85.22 271.37,85.06 271.37,84.98 271.37,84.90 271.39,84.50 271.39,84.46 271.39,84.41 271.40,84.17 271.40,84.16 271.40,84.11 271.39,84.01 271.39,83.96 271.38,83.93 271.38,83.85 271.37,83.78 271.37,83.76 271.37,83.73 271.36,83.68 271.36,83.67 271.36,83.63 271.35,83.52 271.34,83.37 271.34,83.34 271.33,83.26 271.33,83.24 271.33,83.21 271.33,83.15 271.33,83.10 271.33,83.03 271.33,82.95 271.32,82.74 271.32,82.71 271.31,82.53 271.31,82.48 271.31,82.33 271.30,82.25 271.29,82.12 271.29,82.07 271.28,81.89 271.27,81.76 271.26,81.63 271.25,81.62 271.25,81.58 271.24,81.55 271.23,81.39 271.23,81.35 271.23,81.32 271.22,81.27 271.20,81.16 271.20,81.11 271.20,81.08 271.21,81.06 271.42,80.17 271.43,80.14 271.44,80.10 271.56,79.58 271.57,79.55 271.58,79.52 271.67,79.13 271.67,79.10 271.70,79.01 271.72,78.91 271.73,78.86 271.75,78.78 271.77,78.69 271.79,78.62 271.81,78.53 271.82,78.48 271.84,78.42 271.95,77.97 271.96,77.92 271.97,77.89 272.00,77.73 272.01,77.68 272.03,77.62 272.05,77.54" class="curve thick-road"/>
<polyline points="210.90,89.03 210.95,89.08 211.01,89.15 211.06,89.21 211.12,89.25 211.18,89.28 212.56,89.31 213.16,89.32 213.58,89.33 213.70,89.33 213.82,89.33 214.43,89.32 214.61,89.31 215.03,89.33 215.51,89.35 215.69,89.36 215.87,89.38 216.35,89.43 216.41,89.43 218.07,89.70 218.79,89.84 218.96,89.88 219.02,89.89 219.74,90.01 219.80,90.03 220.51,90.15 220.63,90.17 220.75,90.20 221.16,90.26 221.40,90.30 222.12,90.42 223.49,90.64 223.72,90.68 224.14,90.76 224.32,90.80 224.50,90.83 224.56,90.83 224.62,90.84 224.91,90.89 225.69,90.99 225.81,91.00 225.99,91.03 226.65,91.08 227.37,91.13 228.38,91.22 228.50,91.23 228.62,91.24 229.16,91.28 229.28,91.29 229.34,91.29 229.94,91.32 230.96,91.38 231.14,91.39 232.40,91.51 232.52,91.52 233.24,91.59 233.41,91.62 233.71,91.68 233.83,91.70 234.25,91.75 234.31,91.76 234.49,91.78 234.49,91.78 234.73,91.81 235.08,91.85 235.50,91.91 235.62,91.92 235.74,91.94 235.74,91.94 235.80,91.94 237.35,92.14 238.07,92.23 238.25,92.25 238.43,92.28 238.55,92.29 240.63,92.57 240.75,92.58 242.18,92.77 242.96,92.87 243.02,92.88 243.20,92.91 243.32,92.92 243.50,92.95 243.73,92.98 244.15,93.03 245.23,93.18 245.35,93.19 245.47,93.21 245.88,93.26 246.06,93.28 246.12,93.29 246.60,93.34 246.60,93.34 246.84,93.37 246.96,93.38 247.14,93.40 247.32,93.42 247.67,93.47 248.15,93.52 248.33,93.54 248.45,93.56 248.45,93.56 248.57,93.57 250.00,93.73 250.18,93.75 250.24,93.76 250.30,93.77 250.90,93.83 251.02,93.85 251.08,93.85 251.74,93.93 252.27,93.99 252.69,94.04 252.81,94.05 253.17,94.09 253.29,94.11 253.35,94.11 254.07,94.19 254.54,94.25 254.60,94.25 254.72,94.27 254.90,94.29 255.62,94.36 255.98,94.40 256.04,94.41 257.12,94.47 257.30,94.48 258.38,94.53 258.44,94.53 259.04,94.54 259.58,94.56 259.82,94.55 260.01,94.55 260.43,94.53 260.49,94.53 260.73,94.50 261.04,94.48 261.16,94.48 261.28,94.46 261.28,94.45 261.70,94.41 261.83,94.39 262.37,94.33 263.59,94.19 263.89,94.14 265.05,94.03 265.66,93.96 265.78,93.96 266.87,93.87 266.99,93.86 267.23,93.85 267.65,93.84 267.77,93.84 268.50,93.84 268.56,93.84 268.92,93.83 269.16,93.82 269.89,93.82 270.01,93.81 270.49,93.75 270.80,93.66" class="curve thick-road"/>
<polyline points="310.62,113.09 310.59,113.09 310.56,113.09 310.53,113.09 310.51,113.09 310.49,113.09 310.12,113.41 309.96,113.55 309.85,113.65 309.81,113.68 309.78,113.71 309.63,113.85 309.58,113.90 309.47,113.99 309.34,114.10 309.29,114.14 309.24,114.17 309.10,114.27 309.09,114.29 308.59,114.61 308.37,114.74 308.31,114.77 308.30,114.78 308.08,114.92 308.06,114.93 307.84,115.07 307.81,115.09 307.77,115.11 307.65,115.19 307.58,115.24 307.36,115.38 306.95,115.64 306.88,115.68 306.76,115.76 306.70,115.79 306.65,115.83 306.63,115.84 306.61,115.85 306.52,115.91 306.30,116.07 306.26,116.09 306.21,116.13 306.03,116.27 305.83,116.42 305.54,116.64 305.51,116.67 305.47,116.69 305.32,116.81 305.29,116.84 305.27,116.85 305.11,116.98 304.83,117.21 304.78,117.25 304.42,117.51 304.39,117.54 304.19,117.69 304.13,117.72 304.04,117.78 304.01,117.80 303.88,117.88 303.87,117.90 303.81,117.93 303.81,117.93 303.75,117.98 303.64,118.05 303.52,118.14 303.49,118.16 303.45,118.19 303.45,118.19 303.43,118.20 302.98,118.51 302.77,118.66 302.72,118.69 302.67,118.73 302.64,118.76 302.03,119.17 301.99,119.20 301.57,119.49 301.35,119.64 301.33,119.65 301.28,119.69 301.24,119.71 301.19,119.75 301.12,119.80 301.00,119.88 300.68,120.10 300.65,120.12 300.61,120.15 300.49,120.23 300.44,120.27 300.42,120.28 300.29,120.38 300.29,120.38 300.22,120.43 300.18,120.45 300.13,120.49 300.08,120.53 299.98,120.60 299.84,120.70 299.79,120.73 299.75,120.76 299.75,120.76 299.72,120.78 299.31,121.08 299.25,121.11 299.24,121.13 299.22,121.14 299.05,121.26 299.01,121.29 299.00,121.30 298.81,121.43 298.65,121.54 298.53,121.63 298.50,121.65 298.39,121.73 298.36,121.75 298.34,121.77 298.14,121.91 298.00,122.01 297.98,122.03 297.95,122.05 297.90,122.09 297.69,122.24 297.59,122.31 297.57,122.32 297.28,122.56 297.23,122.60 296.93,122.84 296.92,122.86 296.76,122.99 296.61,123.12 296.55,123.18 296.50,123.22 296.40,123.32 296.38,123.34 296.32,123.40 296.25,123.48 296.22,123.51 296.19,123.54 296.19,123.54 296.09,123.66 296.07,123.69 295.94,123.84 295.65,124.16 295.58,124.24 295.31,124.54 295.17,124.70 295.14,124.73 294.87,125.01 294.84,125.05 294.78,125.10 294.67,125.21 294.64,125.23 294.45,125.40 294.44,125.42 294.35,125.51 294.29,125.57 294.10,125.74 294.07,125.77 293.95,125.90 293.90,125.99" class="curve thick-road"/>
<polyline points="166.20,205.15 166.20,205.17 166.20,205.19 166.20,205.21 166.21,205.23 166.21,205.25 166.47,205.49 166.59,205.60 166.66,205.67 166.69,205.69 166.71,205.71 166.83,205.81 166.86,205.84 166.94,205.92 167.03,206.01 167.06,206.04 167.09,206.07 167.18,206.17 167.19,206.18 167.46,206.52 167.57,206.67 167.60,206.70 167.61,206.72 167.72,206.86 167.73,206.88 167.84,207.02 167.86,207.05 167.88,207.07 167.95,207.16 167.99,207.21 168.11,207.35 168.33,207.63 168.37,207.68 168.43,207.76 168.46,207.80 168.49,207.84 168.50,207.85 168.51,207.86 168.56,207.92 168.69,208.07 168.71,208.10 168.74,208.13 168.86,208.26 168.98,208.39 169.16,208.58 169.19,208.61 169.21,208.63 169.30,208.73 169.32,208.75 169.34,208.76 169.44,208.87 169.63,209.06 169.66,209.09 169.88,209.33 169.90,209.35 170.03,209.49 170.06,209.53 170.10,209.59 170.12,209.61 170.19,209.70 170.20,209.71 170.23,209.74 170.23,209.74 170.27,209.79 170.33,209.86 170.40,209.94 170.42,209.97 170.44,209.99 170.44,209.99 170.45,210.00 170.72,210.31 170.84,210.45 170.87,210.48 170.90,210.52 170.92,210.54 171.27,210.95 171.29,210.98 171.53,211.26 171.66,211.41 171.67,211.43 171.70,211.46 171.72,211.48 171.75,211.52 171.79,211.57 171.86,211.65 172.04,211.86 172.06,211.89 172.08,211.91 172.15,211.99 172.18,212.03 172.19,212.04 172.28,212.13 172.28,212.13 172.32,212.18 172.34,212.20 172.37,212.23 172.40,212.27 172.46,212.34 172.54,212.43 172.57,212.47 172.59,212.49 172.59,212.49 172.61,212.51 172.86,212.79 172.89,212.83 172.90,212.84 172.91,212.85 173.01,212.97 173.03,212.99 173.04,213.00 173.15,213.13 173.25,213.23 173.32,213.32 173.34,213.34 173.40,213.41 173.42,213.43 173.43,213.44 173.55,213.58 173.64,213.67 173.65,213.69 173.67,213.71 173.70,213.74 173.82,213.88 173.88,213.95 173.89,213.96 174.09,214.16 174.12,214.19 174.32,214.39 174.33,214.40 174.44,214.51 174.54,214.60 174.59,214.64 174.63,214.67 174.71,214.74 174.72,214.75 174.77,214.79 174.83,214.84 174.86,214.86 174.88,214.88 174.89,214.87 174.97,214.94 175.00,214.96 175.12,215.04 175.37,215.22 175.44,215.27 175.68,215.44 175.81,215.54 175.83,215.56 176.05,215.73 176.08,215.75 176.13,215.79 176.21,215.86 176.23,215.88 176.37,216.00 176.38,216.01 176.45,216.07 176.50,216.11 176.64,216.24 176.66,216.26 176.77,216.33 176.84,216.37" class="curve thick-road"/>
<polyline points="176.84,216.37 176.84,216.41 176.84,216.46 176.84,216.51 176.85,216.55 176.86,216.59 177.47,217.16 177.73,217.40 177.91,217.57 177.96,217.62 178.02,217.67 178.29,217.91 178.37,217.98 178.55,218.15 178.75,218.36 178.83,218.43 178.90,218.51 179.10,218.72 179.12,218.75 179.75,219.54 180.01,219.88 180.07,219.97 180.10,220.00 180.36,220.34 180.38,220.37 180.65,220.71 180.69,220.77 180.74,220.82 180.89,221.02 180.98,221.13 181.25,221.47 181.77,222.12 181.86,222.23 182.01,222.43 182.08,222.52 182.14,222.60 182.17,222.63 182.19,222.66 182.30,222.80 182.61,223.15 182.65,223.20 182.72,223.29 183.00,223.57 183.29,223.88 183.71,224.33 183.76,224.38 183.81,224.43 184.03,224.67 184.08,224.72 184.10,224.74 184.36,225.00 184.79,225.43 184.86,225.51 185.37,226.07 185.42,226.12 185.71,226.44 185.77,226.52 185.88,226.67 185.93,226.72 186.09,226.91 186.11,226.94 186.19,227.02 186.18,227.02 186.28,227.13 186.42,227.29 186.58,227.48 186.63,227.54 186.68,227.59 186.68,227.59 186.70,227.62 187.31,228.32 187.59,228.65 187.66,228.73 187.73,228.82 187.78,228.87 188.59,229.83 188.64,229.88 189.20,230.54 189.50,230.89 189.52,230.92 189.59,231.00 189.64,231.06 189.71,231.14 189.80,231.25 189.96,231.44 190.38,231.93 190.43,231.99 190.47,232.04 190.64,232.23 190.71,232.31 190.73,232.34 190.92,232.56 190.92,232.56 191.02,232.66 191.07,232.72 191.14,232.80 191.21,232.88 191.35,233.04 191.54,233.26 191.61,233.34 191.66,233.39 191.66,233.39 191.70,233.45 192.28,234.09 192.35,234.17 192.37,234.20 192.39,234.23 192.63,234.49 192.68,234.55 192.70,234.58 192.96,234.87 193.18,235.11 193.34,235.30 193.39,235.36 193.53,235.52 193.58,235.57 193.60,235.60 193.89,235.92 194.08,236.13 194.10,236.16 194.15,236.22 194.22,236.30 194.51,236.62 194.65,236.78 194.67,236.81 195.13,237.26 195.21,237.34 195.66,237.80 195.69,237.82 195.95,238.06 196.19,238.29 196.29,238.38 196.37,238.45 196.57,238.62 196.60,238.64 196.71,238.72 196.86,238.83 196.91,238.88 196.97,238.92 196.98,238.92 197.18,239.07 197.24,239.11 197.51,239.30 198.11,239.73 198.26,239.83 198.82,240.24 199.11,240.45 199.17,240.50 199.68,240.90 199.75,240.94 199.85,241.03 200.04,241.20 200.10,241.25 200.42,241.54 200.44,241.56 200.61,241.70 200.72,241.79 201.04,242.08 201.10,242.13 201.34,242.29 201.51,242.38" class="curve thick-road"/>
<polyline points="201.51,242.38 201.51,242.40 201.51,242.43 201.51,242.45 201.51,242.47 201.52,242.49 201.82,242.76 201.94,242.88 202.03,242.97 202.06,242.99 202.09,243.02 202.22,243.13 202.26,243.17 202.35,243.25 202.45,243.35 202.48,243.39 202.52,243.43 202.61,243.53 202.63,243.54 202.93,243.93 203.06,244.10 203.09,244.14 203.10,244.16 203.23,244.32 203.24,244.34 203.37,244.50 203.40,244.53 203.42,244.56 203.49,244.66 203.54,244.71 203.67,244.88 203.92,245.19 203.97,245.25 204.04,245.35 204.07,245.39 204.10,245.43 204.12,245.44 204.13,245.46 204.18,245.52 204.33,245.70 204.35,245.72 204.39,245.76 204.52,245.90 204.67,246.06 204.87,246.27 204.89,246.30 204.92,246.33 205.03,246.44 205.05,246.47 205.06,246.48 205.19,246.60 205.40,246.81 205.43,246.85 205.68,247.12 205.71,247.15 205.85,247.31 205.88,247.35 205.93,247.42 205.96,247.45 206.04,247.54 206.05,247.55 206.08,247.59 206.08,247.59 206.13,247.64 206.20,247.72 206.28,247.82 206.30,247.84 206.32,247.87 206.32,247.87 206.33,247.88 206.63,248.23 206.77,248.39 206.80,248.43 206.84,248.47 206.86,248.50 207.26,248.97 207.28,248.99 207.56,249.31 207.70,249.49 207.71,249.50 207.75,249.54 207.77,249.57 207.81,249.61 207.85,249.66 207.93,249.76 208.14,250.00 208.16,250.02 208.18,250.05 208.26,250.14 208.30,250.18 208.31,250.19 208.40,250.30 208.40,250.30 208.45,250.35 208.47,250.38 208.51,250.42 208.54,250.46 208.61,250.54 208.70,250.64 208.74,250.68 208.76,250.71 208.76,250.71 208.78,250.74 209.06,251.05 209.10,251.09 209.11,251.10 209.12,251.12 209.24,251.25 209.26,251.28 209.27,251.29 209.40,251.43 209.50,251.55 209.58,251.64 209.61,251.67 209.68,251.75 209.70,251.78 209.71,251.79 209.85,251.95 209.95,252.05 209.96,252.06 209.98,252.09 210.02,252.13 210.16,252.29 210.23,252.37 210.24,252.38 210.46,252.60 210.50,252.64 210.72,252.86 210.73,252.88 210.86,253.00 210.98,253.10 211.03,253.15 211.07,253.19 211.16,253.27 211.18,253.28 211.24,253.32 211.31,253.37 211.33,253.40 211.36,253.42 211.36,253.41 211.46,253.49 211.49,253.51 211.63,253.60 211.92,253.81 211.99,253.86 212.26,254.06 212.41,254.16 212.44,254.19 212.69,254.38 212.72,254.40 212.77,254.45 212.86,254.53 212.89,254.55 213.05,254.70 213.06,254.71 213.14,254.77 213.20,254.82 213.35,254.96 213.38,254.98 213.50,255.07 213.58,255.11" class="curve thick-road"/>
<polyline points="189.23,253.13 189.25,253.13 189.28,253.13 189.30,253.13 189.32,253.12 189.34,253.12 189.60,252.86 189.72,252.74 189.80,252.66 189.82,252.64 189.85,252.61 189.96,252.49 189.99,252.46 190.08,252.38 190.17,252.29 190.21,252.26 190.25,252.23 190.35,252.14 190.36,252.13 190.73,251.86 190.89,251.75 190.93,251.72 190.94,251.71 191.10,251.60 191.12,251.59 191.28,251.47 191.30,251.45 191.33,251.43 191.42,251.37 191.48,251.33 191.63,251.21 191.94,250.99 191.99,250.95 192.08,250.88 192.13,250.86 192.17,250.83 192.18,250.82 192.19,250.81 192.26,250.76 192.42,250.63 192.45,250.61 192.49,250.58 192.62,250.46 192.77,250.33 192.98,250.15 193.00,250.13 193.03,250.10 193.14,250.01 193.16,249.99 193.17,249.97 193.30,249.86 193.50,249.68 193.54,249.64 193.80,249.42 193.82,249.40 193.97,249.28 194.01,249.25 194.08,249.20 194.11,249.18 194.20,249.11 194.21,249.10 194.25,249.07 194.25,249.07 194.30,249.03 194.38,248.97 194.47,248.90 194.49,248.88 194.52,248.86 194.52,248.86 194.53,248.85 194.86,248.58 195.01,248.46 195.05,248.43 195.09,248.40 195.12,248.38 195.57,248.03 195.59,248.01 195.90,247.76 196.07,247.63 196.08,247.62 196.12,247.59 196.15,247.57 196.19,247.54 196.24,247.50 196.33,247.43 196.56,247.25 196.58,247.23 196.61,247.21 196.70,247.14 196.74,247.11 196.75,247.10 196.85,247.01 196.85,247.01 196.90,246.97 196.93,246.95 196.97,246.92 197.00,246.89 197.08,246.83 197.18,246.75 197.22,246.72 197.24,246.70 197.25,246.70 197.27,246.68 197.57,246.43 197.61,246.40 197.62,246.39 197.64,246.38 197.76,246.27 197.79,246.25 197.80,246.24 197.94,246.13 198.06,246.04 198.14,245.97 198.17,245.94 198.25,245.88 198.27,245.86 198.28,245.85 198.43,245.73 198.54,245.64 198.55,245.63 198.57,245.61 198.61,245.58 198.76,245.46 198.84,245.40 198.85,245.39 199.07,245.19 199.10,245.15 199.32,244.95 199.33,244.94 199.45,244.83 199.55,244.73 199.60,244.68 199.63,244.64 199.71,244.56 199.72,244.54 199.76,244.49 199.81,244.43 199.84,244.40 199.86,244.38 199.86,244.38 199.93,244.29 199.95,244.26 200.04,244.14 200.24,243.88 200.29,243.81 200.49,243.56 200.59,243.43 200.61,243.41 200.80,243.18 200.82,243.15 200.87,243.11 200.95,243.02 200.97,243.00 201.11,242.86 201.12,242.85 201.19,242.77 201.23,242.73 201.37,242.58 201.39,242.56 201.47,242.46 201.51,242.38" class="curve thick-road"/>
<polyline points="201.51,242.38 201.58,242.38 201.66,242.38 201.74,242.39 201.80,242.38 201.86,242.36 202.77,241.46 203.17,241.07 203.44,240.80 203.52,240.72 203.60,240.64 203.98,240.23 204.10,240.11 204.38,239.84 204.70,239.54 204.83,239.43 204.95,239.32 205.29,239.04 205.34,239.00 206.59,238.08 207.14,237.70 207.28,237.60 207.33,237.57 207.87,237.18 207.92,237.15 208.46,236.76 208.55,236.69 208.64,236.63 208.96,236.40 209.14,236.27 209.67,235.87 210.71,235.11 210.89,234.98 211.20,234.76 211.34,234.66 211.48,234.56 211.52,234.53 211.57,234.50 211.79,234.33 212.36,233.88 212.44,233.81 212.57,233.71 213.03,233.31 213.53,232.87 214.25,232.25 214.33,232.18 214.41,232.11 214.79,231.78 214.87,231.70 214.91,231.67 215.32,231.29 216.02,230.65 216.14,230.54 217.03,229.79 217.12,229.72 217.63,229.29 217.76,229.19 217.99,229.04 218.08,228.97 218.38,228.73 218.43,228.69 218.56,228.59 218.56,228.59 218.73,228.45 218.99,228.24 219.30,228.00 219.38,227.93 219.47,227.86 219.47,227.86 219.52,227.83 220.64,226.93 221.17,226.51 221.30,226.41 221.43,226.31 221.52,226.24 223.05,225.04 223.13,224.97 224.18,224.15 224.75,223.70 224.80,223.67 224.93,223.57 225.02,223.50 225.15,223.40 225.32,223.26 225.63,223.02 226.41,222.40 226.50,222.34 226.59,222.27 226.89,222.02 227.02,221.92 227.07,221.88 227.41,221.60 227.41,221.60 227.58,221.46 227.67,221.39 227.80,221.29 227.93,221.18 228.19,220.98 228.53,220.70 228.66,220.59 228.75,220.52 228.75,220.52 228.83,220.45 229.87,219.61 230.00,219.50 230.04,219.47 230.08,219.43 230.51,219.08 230.60,219.01 230.64,218.98 231.12,218.59 231.50,218.28 231.81,218.04 231.89,217.97 232.15,217.75 232.24,217.68 232.28,217.65 232.79,217.23 233.14,216.95 233.18,216.91 233.27,216.84 233.40,216.73 233.91,216.31 234.17,216.10 234.21,216.07 234.94,215.39 235.07,215.28 235.80,214.60 235.84,214.56 236.24,214.17 236.60,213.82 236.75,213.66 236.87,213.54 237.13,213.25 237.16,213.20 237.30,213.03 237.48,212.81 237.56,212.73 237.63,212.64 237.62,212.64 237.87,212.33 237.93,212.23 238.25,211.83 238.94,210.94 239.11,210.71 239.77,209.87 240.12,209.43 240.20,209.35 240.85,208.57 240.91,208.48 241.07,208.32 241.33,208.03 241.41,207.95 241.88,207.48 241.92,207.44 242.14,207.19 242.30,207.03 242.76,206.55 242.83,206.46 243.11,206.10 243.25,205.84" class="curve thick-road"/>
<polyline points="209.99,62.33 209.97,62.32 209.96,62.31 209.94,62.29 209.92,62.28 209.90,62.28 209.53,62.34 209.37,62.37 209.26,62.39 209.23,62.39 209.19,62.40 209.03,62.43 208.98,62.44 208.87,62.46 208.74,62.48 208.69,62.48 208.64,62.49 208.51,62.50 208.50,62.50 208.04,62.51 207.84,62.51 207.79,62.51 207.78,62.51 207.58,62.51 207.56,62.51 207.37,62.51 207.33,62.51 207.30,62.51 207.19,62.52 207.12,62.52 206.92,62.52 206.55,62.53 206.48,62.53 206.37,62.53 206.32,62.53 206.27,62.53 206.25,62.53 206.23,62.53 206.15,62.54 205.94,62.55 205.91,62.55 205.86,62.55 205.68,62.57 205.49,62.59 205.21,62.62 205.18,62.63 205.14,62.63 205.00,62.64 204.97,62.65 204.95,62.65 204.79,62.67 204.51,62.71 204.46,62.71 204.12,62.74 204.09,62.75 203.89,62.76 203.84,62.77 203.76,62.76 203.73,62.77 203.62,62.77 203.60,62.77 203.55,62.78 203.55,62.78 203.48,62.78 203.39,62.79 203.27,62.79 203.24,62.80 203.21,62.80 203.21,62.80 203.19,62.80 202.77,62.82 202.57,62.84 202.52,62.84 202.47,62.84 202.44,62.84 201.87,62.87 201.84,62.88 201.44,62.90 201.23,62.91 201.22,62.91 201.17,62.91 201.13,62.91 201.08,62.92 201.02,62.92 200.90,62.92 200.61,62.94 200.58,62.94 200.55,62.94 200.43,62.95 200.38,62.95 200.37,62.96 200.24,62.97 200.24,62.96 200.17,62.97 200.14,62.97 200.09,62.98 200.04,62.98 199.94,62.99 199.81,62.99 199.76,63.00 199.73,63.00 199.73,63.00 199.70,63.00 199.31,63.03 199.26,63.03 199.24,63.04 199.22,63.04 199.06,63.05 199.03,63.05 199.01,63.05 198.83,63.06 198.69,63.08 198.57,63.08 198.54,63.09 198.44,63.09 198.41,63.09 198.39,63.10 198.20,63.11 198.07,63.12 198.05,63.12 198.02,63.12 197.97,63.13 197.77,63.14 197.68,63.15 197.66,63.15 197.37,63.19 197.32,63.20 197.03,63.24 197.01,63.24 196.85,63.27 196.71,63.29 196.64,63.30 196.59,63.31 196.48,63.34 196.47,63.34 196.40,63.36 196.32,63.38 196.29,63.39 196.26,63.40 196.26,63.40 196.15,63.43 196.12,63.45 195.97,63.49 195.65,63.59 195.57,63.62 195.27,63.70 195.11,63.75 195.08,63.76 194.79,63.84 194.76,63.85 194.70,63.86 194.59,63.88 194.55,63.89 194.36,63.93 194.34,63.93 194.25,63.95 194.18,63.96 193.99,64.00 193.96,64.01 193.83,64.05 193.75,64.09" class="curve thick-road"/>
<polyline points="193.75,64.09 193.72,64.07 193.68,64.04 193.65,64.01 193.61,63.99 193.58,63.98 192.85,64.11 192.53,64.16 192.31,64.20 192.24,64.21 192.18,64.22 191.86,64.29 191.77,64.31 191.54,64.34 191.29,64.37 191.19,64.39 191.09,64.40 190.84,64.42 190.80,64.42 189.90,64.44 189.51,64.44 189.41,64.44 189.38,64.44 188.99,64.44 188.96,64.44 188.57,64.45 188.50,64.45 188.44,64.45 188.21,64.45 188.08,64.45 187.70,64.47 186.95,64.48 186.82,64.48 186.59,64.48 186.50,64.48 186.40,64.48 186.37,64.49 186.34,64.49 186.17,64.49 185.75,64.52 185.69,64.52 185.59,64.53 185.24,64.56 184.86,64.61 184.31,64.66 184.25,64.67 184.18,64.68 183.89,64.71 183.83,64.71 183.80,64.72 183.48,64.76 182.93,64.83 182.84,64.84 182.16,64.90 182.10,64.91 181.71,64.94 181.62,64.95 181.45,64.94 181.39,64.95 181.16,64.96 181.13,64.96 181.03,64.97 181.03,64.97 180.91,64.98 180.71,64.99 180.49,65.00 180.42,65.00 180.36,65.01 180.36,65.01 180.33,65.01 179.49,65.06 179.10,65.08 179.00,65.09 178.91,65.09 178.84,65.10 177.71,65.16 177.65,65.16 176.88,65.20 176.46,65.23 176.42,65.23 176.33,65.23 176.26,65.24 176.17,65.24 176.04,65.25 175.81,65.26 175.23,65.29 175.17,65.29 175.10,65.30 174.88,65.31 174.78,65.32 174.75,65.32 174.49,65.34 174.49,65.34 174.36,65.35 174.30,65.35 174.20,65.36 174.10,65.37 173.91,65.38 173.65,65.40 173.56,65.40 173.49,65.41 173.49,65.41 173.43,65.41 172.65,65.47 172.56,65.48 172.53,65.48 172.49,65.48 172.17,65.50 172.11,65.51 172.07,65.51 171.72,65.54 171.43,65.56 171.21,65.57 171.14,65.58 170.95,65.59 170.88,65.60 170.85,65.60 170.47,65.63 170.21,65.65 170.18,65.65 170.11,65.65 170.01,65.66 169.63,65.69 169.44,65.71 169.40,65.71 168.83,65.79 168.73,65.80 168.16,65.87 168.12,65.88 167.81,65.93 167.52,65.98 167.39,66.01 167.30,66.02 167.08,66.08 167.04,66.09 166.92,66.12 166.76,66.16 166.70,66.18 166.63,66.20 166.63,66.20 166.41,66.27 166.35,66.29 166.07,66.38 165.44,66.57 165.29,66.62 164.69,66.80 164.37,66.89 164.31,66.91 163.74,67.06 163.68,67.08 163.55,67.11 163.33,67.16 163.27,67.17 162.89,67.24 162.85,67.24 162.66,67.29 162.54,67.31 162.16,67.39 162.09,67.40 161.84,67.48 161.69,67.56" class="curve thick-road"/>
<polyline points="209.21,190.90 209.20,190.77 209.19,190.63 209.18,190.49 209.15,190.38 209.11,190.28 207.37,188.84 206.62,188.21 206.09,187.77 205.94,187.64 205.78,187.52 205.00,186.92 204.77,186.74 204.25,186.28 203.66,185.76 203.45,185.57 203.23,185.36 202.67,184.81 202.60,184.74 200.76,182.69 199.99,181.79 199.80,181.56 199.74,181.49 198.96,180.60 198.90,180.52 198.12,179.63 197.98,179.48 197.86,179.33 197.39,178.82 197.13,178.52 196.34,177.65 194.83,175.96 194.56,175.67 194.11,175.15 193.92,174.92 193.73,174.70 193.66,174.62 193.59,174.55 193.26,174.19 192.37,173.27 192.24,173.13 192.03,172.92 191.24,172.18 190.38,171.37 189.18,170.22 189.03,170.09 188.89,169.95 188.24,169.35 188.10,169.22 188.03,169.15 187.30,168.50 186.06,167.38 185.84,167.18 184.36,165.74 184.22,165.60 183.38,164.78 183.18,164.56 182.87,164.18 182.73,164.04 182.25,163.55 182.18,163.47 181.98,163.26 181.98,163.26 181.71,162.98 181.30,162.56 180.82,162.06 180.68,161.92 180.54,161.78 180.54,161.78 180.48,161.71 178.70,159.88 177.88,159.03 177.67,158.81 177.47,158.60 177.33,158.46 174.96,155.97 174.82,155.83 173.19,154.13 172.31,153.20 172.24,153.13 172.04,152.91 171.90,152.77 171.70,152.56 171.43,152.28 170.95,151.78 169.73,150.50 169.60,150.36 169.46,150.22 168.98,149.72 168.77,149.51 168.70,149.44 168.15,148.88 168.15,148.88 167.87,148.60 167.74,148.46 167.53,148.25 167.32,148.04 166.91,147.62 166.36,147.06 166.15,146.85 166.01,146.71 166.02,146.71 165.88,146.57 164.21,144.91 164.01,144.69 163.94,144.63 163.87,144.56 163.18,143.86 163.04,143.72 162.97,143.65 162.21,142.88 161.59,142.25 161.11,141.76 160.97,141.62 160.55,141.20 160.41,141.06 160.34,140.99 159.51,140.16 158.96,139.60 158.89,139.53 158.75,139.39 158.54,139.19 157.71,138.35 157.29,137.94 157.22,137.86 155.90,136.69 155.68,136.49 154.37,135.31 154.29,135.25 153.53,134.63 152.86,134.05 152.55,133.81 152.32,133.63 151.76,133.22 151.67,133.17 151.34,132.95 150.93,132.67 150.77,132.55 150.61,132.44 150.59,132.45 150.01,132.07 149.83,131.97 149.07,131.49 147.38,130.43 146.95,130.17 145.36,129.14 144.52,128.60 144.36,128.48 142.88,127.47 142.71,127.37 142.40,127.13 141.85,126.71 141.69,126.59 140.78,125.84 140.70,125.78 140.22,125.43 139.91,125.19 138.98,124.46 138.82,124.34 138.14,123.92 137.66,123.72" class="curve thick-road"/>
<polyline points="209.21,190.90 209.15,190.90 209.10,190.89 209.04,190.88 208.99,190.89 208.95,190.90 208.24,191.53 207.93,191.80 207.71,192.00 207.65,192.05 207.59,192.11 207.29,192.39 207.20,192.48 206.98,192.67 206.73,192.88 206.63,192.96 206.54,193.03 206.27,193.23 206.24,193.25 205.27,193.89 204.85,194.15 204.74,194.21 204.71,194.24 204.29,194.51 204.25,194.52 203.84,194.79 203.77,194.84 203.70,194.88 203.45,195.04 203.32,195.13 202.90,195.41 202.11,195.93 201.97,196.02 201.72,196.17 201.62,196.24 201.51,196.30 201.48,196.33 201.45,196.35 201.27,196.47 200.84,196.78 200.77,196.82 200.67,196.90 200.31,197.18 199.92,197.48 199.37,197.91 199.31,197.96 199.24,198.01 198.95,198.24 198.89,198.29 198.85,198.32 198.54,198.58 198.00,199.03 197.90,199.11 197.21,199.63 197.14,199.68 196.75,199.97 196.65,200.04 196.47,200.15 196.40,200.20 196.17,200.37 196.13,200.39 196.03,200.46 196.03,200.46 195.90,200.56 195.70,200.70 195.46,200.87 195.39,200.91 195.33,200.96 195.33,200.96 195.29,200.99 194.42,201.61 194.02,201.90 193.92,201.97 193.81,202.04 193.75,202.09 192.57,202.92 192.50,202.96 191.69,203.53 191.25,203.84 191.21,203.86 191.11,203.93 191.05,203.98 190.95,204.05 190.81,204.15 190.57,204.31 189.97,204.74 189.90,204.79 189.83,204.84 189.60,205.00 189.50,205.08 189.46,205.10 189.20,205.30 189.20,205.29 189.06,205.39 189.00,205.44 188.90,205.51 188.80,205.59 188.60,205.73 188.33,205.92 188.23,206.00 188.16,206.04 188.16,206.04 188.10,206.09 187.30,206.68 187.20,206.75 187.17,206.78 187.13,206.80 186.80,207.04 186.73,207.09 186.70,207.11 186.33,207.38 186.03,207.60 185.80,207.77 185.73,207.82 185.53,207.96 185.47,208.01 185.43,208.04 185.04,208.33 184.77,208.53 184.74,208.55 184.67,208.60 184.57,208.67 184.17,208.97 183.97,209.11 183.94,209.14 183.37,209.61 183.27,209.69 182.70,210.16 182.67,210.19 182.36,210.46 182.08,210.71 181.96,210.82 181.87,210.91 181.67,211.11 181.64,211.14 181.53,211.27 181.39,211.42 181.33,211.48 181.27,211.54 181.28,211.55 181.08,211.76 181.03,211.83 180.78,212.12 180.23,212.75 180.10,212.92 179.57,213.51 179.30,213.83 179.24,213.89 178.73,214.43 178.67,214.50 178.55,214.61 178.34,214.81 178.28,214.87 177.92,215.20 177.89,215.23 177.71,215.41 177.59,215.52 177.23,215.86 177.17,215.92 176.95,216.18 176.84,216.37" class="curve thick-road"/>
<polyline points="210.28,190.91 210.30,190.95 210.31,191.00 210.33,191.04 210.36,191.08 210.38,191.11 211.16,191.41 211.50,191.54 211.74,191.63 211.80,191.65 211.87,191.68 212.22,191.80 212.32,191.83 212.55,191.93 212.82,192.04 212.92,192.08 213.02,192.13 213.28,192.25 213.31,192.27 214.20,192.76 214.58,192.99 214.67,193.05 214.70,193.06 215.08,193.28 215.11,193.30 215.49,193.52 215.55,193.55 215.62,193.59 215.84,193.72 215.96,193.79 216.35,194.00 217.07,194.41 217.20,194.48 217.42,194.61 217.51,194.67 217.61,194.72 217.64,194.74 217.67,194.75 217.83,194.84 218.25,195.06 218.32,195.09 218.41,195.14 218.77,195.30 219.17,195.48 219.73,195.74 219.79,195.77 219.86,195.80 220.16,195.93 220.22,195.96 220.26,195.98 220.59,196.12 221.16,196.36 221.26,196.40 221.94,196.73 222.01,196.76 222.40,196.95 222.50,197.00 222.65,197.10 222.71,197.13 222.94,197.25 222.97,197.26 223.07,197.31 223.07,197.31 223.20,197.38 223.39,197.48 223.62,197.59 223.68,197.63 223.75,197.66 223.75,197.66 223.78,197.68 224.62,198.10 225.01,198.30 225.10,198.35 225.20,198.40 225.26,198.44 226.39,199.02 226.45,199.05 227.22,199.46 227.64,199.67 227.67,199.69 227.77,199.74 227.84,199.78 227.93,199.83 228.06,199.89 228.29,200.01 228.86,200.31 228.93,200.34 228.99,200.38 229.22,200.49 229.32,200.54 229.35,200.56 229.61,200.69 229.61,200.69 229.74,200.75 229.80,200.78 229.90,200.83 230.00,200.88 230.19,200.98 230.45,201.11 230.55,201.16 230.61,201.19 230.61,201.19 230.68,201.22 231.46,201.61 231.55,201.66 231.59,201.67 231.62,201.69 231.94,201.85 232.01,201.88 232.04,201.90 232.40,202.08 232.69,202.22 232.91,202.34 232.98,202.37 233.17,202.46 233.24,202.50 233.27,202.51 233.66,202.70 233.92,202.83 233.95,202.85 234.02,202.88 234.12,202.93 234.51,203.12 234.70,203.22 234.73,203.23 235.33,203.49 235.43,203.53 236.03,203.78 236.07,203.79 236.41,203.92 236.71,204.04 236.85,204.09 236.95,204.13 237.19,204.20 237.23,204.21 237.37,204.25 237.55,204.30 237.62,204.32 237.69,204.34 237.69,204.33 237.94,204.40 238.02,204.41 238.34,204.49 239.06,204.66 239.24,204.70 239.91,204.87 240.27,204.95 240.34,204.98 240.98,205.15 241.05,205.17 241.19,205.22 241.43,205.30 241.50,205.32 241.91,205.47 241.94,205.48 242.15,205.55 242.29,205.60 242.70,205.74 242.77,205.76 243.05,205.83 243.25,205.84" class="curve thick-road"/>
<polyline points="293.90,125.99 293.76,125.99 293.61,125.97 293.46,125.95 293.34,125.96 293.22,125.99 291.39,127.60 290.59,128.30 290.03,128.79 289.87,128.93 289.72,129.07 288.95,129.80 288.71,130.02 288.14,130.50 287.49,131.04 287.24,131.24 286.99,131.43 286.31,131.93 286.22,131.99 283.73,133.61 282.64,134.28 282.36,134.44 282.27,134.50 281.19,135.18 281.10,135.23 280.02,135.91 279.84,136.03 279.66,136.14 279.04,136.55 278.68,136.77 277.61,137.48 275.56,138.80 275.20,139.03 274.57,139.42 274.29,139.59 274.03,139.76 273.94,139.82 273.85,139.88 273.41,140.17 272.28,140.96 272.11,141.08 271.84,141.26 270.93,141.98 269.92,142.76 268.49,143.85 268.33,143.98 268.16,144.11 267.41,144.70 267.24,144.83 267.16,144.90 266.34,145.56 264.94,146.70 264.69,146.90 262.91,148.22 262.74,148.35 261.72,149.11 261.46,149.29 261.00,149.56 260.82,149.68 260.22,150.11 260.13,150.17 259.87,150.35 259.87,150.35 259.52,150.59 259.00,150.96 258.39,151.38 258.22,151.50 258.05,151.63 258.04,151.63 257.96,151.69 255.71,153.27 254.67,154.00 254.40,154.18 254.14,154.37 253.97,154.49 250.92,156.60 250.74,156.72 248.65,158.17 247.52,158.95 247.43,159.01 247.17,159.19 246.99,159.31 246.73,159.50 246.38,159.74 245.77,160.16 244.21,161.25 244.03,161.37 243.86,161.49 243.25,161.92 242.99,162.10 242.91,162.16 242.22,162.66 242.22,162.66 241.87,162.90 241.70,163.03 241.44,163.21 241.19,163.40 240.67,163.77 239.98,164.26 239.72,164.44 239.55,164.57 239.55,164.57 239.38,164.69 237.32,166.18 237.06,166.37 236.97,166.43 236.89,166.49 236.03,167.11 235.85,167.23 235.77,167.29 234.82,167.97 234.05,168.53 233.44,168.96 233.27,169.09 232.76,169.46 232.59,169.58 232.50,169.64 231.47,170.39 230.79,170.89 230.70,170.95 230.53,171.07 230.27,171.26 229.24,172.01 228.73,172.38 228.64,172.44 227.17,173.65 226.92,173.85 225.44,175.05 225.37,175.13 224.57,175.83 223.85,176.45 223.53,176.74 223.30,176.96 222.77,177.48 222.70,177.56 222.41,177.88 222.04,178.27 221.89,178.42 221.75,178.58 221.76,178.59 221.25,179.15 221.12,179.32 220.48,180.05 219.06,181.68 218.71,182.09 217.35,183.61 216.63,184.42 216.48,184.57 215.16,185.97 215.02,186.14 214.71,186.43 214.17,186.94 214.01,187.09 213.06,187.94 212.99,188.01 212.53,188.46 212.22,188.75 211.29,189.62 211.14,189.77 210.57,190.42 210.28,190.91" class="curve thick-road"/>
<polyline points="209.68,112.95 209.60,112.90 209.52,112.85 209.44,112.79 209.36,112.76 209.28,112.75 207.71,113.15 207.02,113.32 206.54,113.44 206.41,113.48 206.27,113.52 205.59,113.72 205.39,113.78 204.91,113.89 204.35,114.01 204.15,114.06 203.94,114.10 203.38,114.19 203.31,114.20 201.34,114.41 200.49,114.47 200.28,114.49 200.21,114.50 199.36,114.57 199.29,114.57 198.44,114.66 198.30,114.67 198.16,114.68 197.67,114.73 197.39,114.76 196.54,114.86 194.92,115.02 194.64,115.05 194.14,115.09 193.93,115.11 193.72,115.13 193.65,115.14 193.58,115.15 193.23,115.19 192.32,115.31 192.18,115.34 191.97,115.37 191.21,115.51 190.38,115.67 189.20,115.89 189.06,115.92 188.92,115.94 188.30,116.07 188.16,116.09 188.09,116.11 187.40,116.26 186.23,116.51 186.02,116.55 184.56,116.80 184.42,116.83 183.58,116.97 183.37,117.00 183.02,117.02 182.88,117.04 182.39,117.11 182.32,117.12 182.11,117.15 182.11,117.14 181.83,117.19 181.41,117.25 180.92,117.31 180.78,117.34 180.64,117.36 180.64,117.36 180.57,117.37 178.75,117.63 177.91,117.75 177.70,117.78 177.49,117.80 177.35,117.83 174.90,118.16 174.76,118.18 173.08,118.41 172.17,118.53 172.10,118.54 171.89,118.57 171.75,118.59 171.54,118.62 171.26,118.65 170.77,118.72 169.51,118.89 169.37,118.91 169.23,118.93 168.74,119.00 168.53,119.04 168.46,119.05 167.91,119.13 167.91,119.13 167.63,119.17 167.49,119.20 167.28,119.23 167.07,119.26 166.65,119.32 166.09,119.41 165.88,119.44 165.74,119.46 165.74,119.46 165.60,119.48 163.93,119.75 163.72,119.78 163.65,119.79 163.58,119.80 162.88,119.91 162.74,119.93 162.67,119.94 161.90,120.06 161.28,120.16 160.79,120.23 160.65,120.25 160.23,120.32 160.09,120.34 160.02,120.35 159.18,120.48 158.63,120.57 158.56,120.58 158.42,120.60 158.21,120.64 157.37,120.77 156.95,120.83 156.88,120.85 155.64,121.12 155.43,121.16 154.19,121.43 154.13,121.45 153.44,121.63 152.82,121.78 152.55,121.86 152.35,121.92 151.87,122.07 151.81,122.09 151.54,122.19 151.20,122.32 151.07,122.36 150.93,122.41 150.93,122.42 150.47,122.60 150.33,122.66 149.73,122.90 148.40,123.44 148.07,123.58 146.80,124.07 146.13,124.33 145.99,124.38 144.78,124.81 144.65,124.87 144.38,124.95 143.90,125.09 143.77,125.13 142.95,125.35 142.88,125.37 142.47,125.50 142.20,125.58 141.38,125.81 141.25,125.86 140.72,126.07 140.39,126.27" class="curve thick-road"/>
<polyline points="293.90,125.99 293.87,125.97 293.85,125.94 293.83,125.91 293.81,125.89 293.78,125.88 293.20,125.82 292.94,125.79 292.76,125.78 292.71,125.77 292.66,125.77 292.40,125.75 292.33,125.75 292.15,125.73 291.95,125.70 291.87,125.69 291.79,125.68 291.59,125.64 291.57,125.64 290.87,125.47 290.57,125.38 290.50,125.36 290.47,125.36 290.17,125.28 290.15,125.27 289.85,125.19 289.80,125.18 289.75,125.17 289.57,125.13 289.48,125.10 289.18,125.03 288.60,124.89 288.50,124.86 288.33,124.82 288.25,124.79 288.18,124.77 288.15,124.77 288.13,124.76 288.00,124.74 287.68,124.67 287.63,124.66 287.55,124.64 287.27,124.60 286.97,124.55 286.54,124.48 286.49,124.47 286.44,124.46 286.21,124.43 286.16,124.42 286.14,124.42 285.88,124.38 285.45,124.32 285.37,124.31 284.85,124.22 284.80,124.21 284.49,124.16 284.42,124.14 284.29,124.10 284.24,124.09 284.07,124.06 284.04,124.05 283.97,124.04 283.97,124.04 283.87,124.01 283.72,123.98 283.54,123.95 283.49,123.94 283.44,123.93 283.44,123.93 283.42,123.92 282.76,123.79 282.46,123.73 282.39,123.71 282.31,123.69 282.26,123.68 281.38,123.50 281.33,123.48 280.73,123.36 280.41,123.29 280.38,123.28 280.31,123.26 280.26,123.25 280.18,123.24 280.08,123.22 279.90,123.18 279.45,123.08 279.40,123.07 279.35,123.06 279.18,123.03 279.10,123.01 279.08,123.01 278.88,122.97 278.88,122.97 278.77,122.95 278.72,122.94 278.65,122.92 278.57,122.91 278.42,122.88 278.22,122.84 278.15,122.82 278.10,122.81 278.10,122.81 278.05,122.80 277.44,122.69 277.37,122.67 277.34,122.67 277.32,122.66 277.07,122.61 277.01,122.60 276.99,122.60 276.71,122.54 276.49,122.50 276.31,122.47 276.26,122.46 276.11,122.43 276.06,122.42 276.03,122.41 275.73,122.36 275.53,122.32 275.51,122.31 275.46,122.30 275.38,122.29 275.08,122.23 274.93,122.20 274.90,122.20 274.45,122.14 274.37,122.13 273.91,122.07 273.89,122.06 273.63,122.04 273.40,122.02 273.30,122.01 273.22,122.00 273.04,122.00 273.02,122.00 272.91,122.00 272.78,122.00 272.73,122.00 272.68,122.00 272.68,122.00 272.50,122.01 272.44,122.01 272.21,122.02 271.69,122.04 271.56,122.05 271.06,122.06 270.80,122.07 270.75,122.06 270.28,122.06 270.23,122.07 270.13,122.06 269.95,122.05 269.90,122.05 269.59,122.02 269.57,122.02 269.41,122.01 269.31,122.01 269.00,121.99 268.95,121.98 268.74,121.99 268.61,122.02" class="curve thick-road"/>
<polyline points="268.61,122.02 268.56,121.96 268.51,121.89 268.46,121.83 268.41,121.78 268.35,121.75 267.01,121.62 266.43,121.56 266.02,121.52 265.90,121.51 265.78,121.51 265.20,121.47 265.02,121.46 264.61,121.41 264.15,121.35 263.97,121.33 263.80,121.30 263.34,121.22 263.28,121.20 261.68,120.81 261.00,120.62 260.83,120.57 260.77,120.56 260.09,120.39 260.03,120.37 259.35,120.19 259.24,120.16 259.12,120.13 258.72,120.03 258.49,119.98 257.81,119.81 256.50,119.49 256.27,119.43 255.87,119.32 255.70,119.27 255.53,119.23 255.47,119.22 255.41,119.21 255.13,119.14 254.38,118.98 254.27,118.96 254.09,118.92 253.46,118.82 252.76,118.72 251.78,118.55 251.67,118.54 251.55,118.52 251.03,118.44 250.91,118.42 250.86,118.41 250.27,118.33 249.29,118.20 249.11,118.18 247.90,117.96 247.79,117.94 247.09,117.82 246.92,117.78 246.64,117.70 246.53,117.67 246.12,117.59 246.07,117.58 245.89,117.54 245.89,117.54 245.66,117.49 245.32,117.42 244.92,117.34 244.80,117.32 244.69,117.29 244.69,117.29 244.63,117.28 243.14,116.97 242.45,116.83 242.28,116.79 242.10,116.76 241.99,116.73 239.98,116.30 239.87,116.28 238.49,115.99 237.74,115.83 237.69,115.81 237.51,115.78 237.40,115.75 237.23,115.72 237.00,115.67 236.60,115.58 235.56,115.36 235.45,115.34 235.33,115.31 234.93,115.23 234.76,115.20 234.70,115.19 234.24,115.10 234.24,115.10 234.01,115.05 233.90,115.03 233.72,114.99 233.55,114.96 233.21,114.89 232.75,114.80 232.58,114.77 232.46,114.74 232.46,114.74 232.34,114.72 230.96,114.46 230.79,114.42 230.73,114.41 230.68,114.40 230.10,114.29 229.99,114.26 229.93,114.25 229.30,114.13 228.78,114.03 228.38,113.95 228.26,113.93 227.92,113.86 227.80,113.84 227.74,113.83 227.05,113.70 226.59,113.61 226.53,113.60 226.42,113.57 226.25,113.54 225.56,113.41 225.21,113.34 225.15,113.33 224.11,113.20 223.93,113.17 222.89,113.03 222.83,113.03 222.24,112.98 221.72,112.92 221.48,112.90 221.31,112.89 220.90,112.88 220.84,112.88 220.60,112.88 220.30,112.88 220.18,112.88 220.07,112.88 220.06,112.89 219.65,112.90 219.53,112.91 218.99,112.93 217.80,112.97 217.50,112.99 216.37,113.02 215.77,113.03 215.65,113.03 214.59,113.03 214.47,113.04 214.23,113.02 213.82,113.00 213.70,112.99 213.00,112.93 212.94,112.93 212.59,112.91 212.36,112.90 211.65,112.85 211.53,112.85 211.06,112.87 210.75,112.93" class="curve thick-road"/>
</svg>