<?xml version="1.0" encoding="utf-8"?>
<!-- Generator: Grasshopper 1.0.0, Redback Plugin. SVG Version: 6.00 Build 0) Made by Andrew Butler at Cox Architecture -->
<!DOCTYPE svg PUBLIC "-//W3C//DTD SVG 1.1//EN" "http://www.w3.org/Graphics/SVG/1.1/DTD/svg11.dtd">
<svg version="1.1" xmlns="http://www.w3.org/2000/svg" xmlns:xlink="http://www.w3.org/1999/xlink" x="0px" y="0px"
width="420.0mm" height="297.0mm" viewBox="0 0 420.0 297.0" xml:space="preserve">
<style type="text/css">
.curve{
fill:None;
stroke:#000;
stroke-width:0.05px;
stroke-linecap:round;
}
.thick-hatch{
stroke-width:0.1px;
}
.bold-hatch{
stroke-width:0.2px;
}
.thin-hatch{
stroke-width:0.025px;
}
.thick-road{
stroke-width:0.8px;
}
</style>
<polygon points="102.27,256.23 102.27,262.90 126.21,262.90 126.21,256.23" />
<polygon points="150.15,256.23 150.15,262.90 174.09,262.90 174.09,256.23" />
<polygon points="198.03,256.23 198.03,262.90 221.97,262.90 221.97,256.23" />
<polygon points="245.91,256.23 245.91,262.90 269.85,262.90 269.85,256.23" />
<polygon points="293.79,256.23 293.79,262.90 317.73,262.90 317.73,256.23" />
<polygon points="102.27,256.23 95.60,256.23 95.60,232.29 102.27,232.29" />
<polygon points="102.27,208.35 95.60,208.35 95.60,184.41 102.27,184.41" />
<polygon points="102.27,160.47 95.60,160.47 95.60,136.53 102.27,136.53" />
<polygon points="102.27,112.59 95.60,112.59 95.60,88.65 102.27,88.65" />
<polygon points="102.27,64.71 95.60,64.71 95.60,40.77 102.27,40.77" />
<polygon points="102.27,34.10 102.27,40.77 126.21,40.77 126.21,34.10" />
<polygon points="150.15,34.10 150.15,40.77 174.09,40.77 174.09,34.10" />
<polygon points="198.03,34.10 198.03,40.77 221.97,40.77 221.97,34.10" />
<polygon points="245.91,34.10 245.91,40.77 269.85,40.77 269.85,34.10" />
<polygon points="293.79,34.10 293.79,40.77 317.73,40.77 317.73,34.10" />
<polygon points="324.40,256.23 317.73,256.23 317.73,232.29 324.40,232.29" />
<polygon points="324.40,208.35 317.73,208.35 317.73,184.41 324.40,184.41" />
<polygon points="324.40,160.47 317.73,160.47 317.73,136.53 324.40,136.53" />
<polygon points="324.40,112.59 317.73,112.59 317.73,88.65 324.40,88.65" />
<polygon points="324.40,64.71 317.73,64.71 317.73,40.77 324.40,40.77" />
</svg>