<?xml version="1.0" encoding="utf-8"?>
<!-- Generator: Grasshopper 1.0.0, Redback Plugin. SVG Version: 6.00 Build 0) Made by Andrew Butler at Cox Architecture -->
<!DOCTYPE svg PUBLIC "-//W3C//DTD SVG 1.1//EN" "http://www.w3.org/Graphics/SVG/1.1/DTD/svg11.dtd">
<svg version="1.1" xmlns="http://www.w3.org/2000/svg" xmlns:xlink="http://www.w3.org/1999/xlink" x="0px" y="0px"
width="420.0mm" height="297.0mm" viewBox="0 0 420.0 297.0" xml:space="preserve">
<style type="text/css">
.curve{
fill:None;
stroke:#000;
stroke-width:0.05px;
stroke-linecap:round;
}
.thick-hatch{
stroke-width:0.1px;
}
.bold-hatch{
stroke-width:0.2px;
}
.thin-hatch{
stroke-width:0.025px;
}
.thick-road{
stroke-width:0.8px;
}
</style>
<polygon points="316.67,148.50 316.66,147.43 316.65,146.37 316.62,145.30 316.58,144.24 316.53,143.17 316.48,142.11 316.41,141.05 316.33,139.98 316.24,138.92 316.13,137.86 316.02,136.80 315.90,135.74 315.77,134.69 315.63,133.63 315.47,132.58 315.31,131.52 315.13,130.47 314.95,129.42 314.75,128.38 314.55,127.33 314.33,126.29 314.10,125.25 313.86,124.21 313.62,123.17 313.36,122.14 313.09,121.11 312.81,120.08 312.52,119.05 312.22,118.03 311.91,117.01 311.59,115.99 311.26,114.98 310.92,113.97 310.57,112.97 310.21,111.96 309.84,110.96 309.46,109.97 309.07,108.98 308.67,107.99 308.26,107.00 307.85,106.03 307.42,105.05 306.98,104.08 306.53,103.11 306.07,102.15 305.60,101.19 305.13,100.24 304.64,99.29 304.14,98.35 303.64,97.41 303.12,96.48 302.60,95.55 302.06,94.63 301.52,93.71 300.97,92.80 300.41,91.89 299.84,90.99 299.26,90.10 298.67,89.21 298.07,88.33 297.47,87.45 296.86,86.58 296.23,85.72 295.60,84.86 294.96,84.01 294.31,83.16 293.66,82.32 292.99,81.49 292.32,80.66 291.64,79.85 290.95,79.03 290.25,78.23 289.54,77.43 288.83,76.64 288.11,75.86 287.38,75.08 286.64,74.31 285.89,73.55 285.14,72.79 284.38,72.05 283.61,71.31 282.84,70.58 282.06,69.85 281.27,69.14 280.47,68.43 279.67,67.73 278.86,67.04 278.04,66.35 277.22,65.68 276.39,65.01 275.55,64.35 274.71,63.70 273.86,63.06 273.00,62.42 272.14,61.80 271.27,61.18 270.39,60.58 269.51,59.98 268.62,59.39 267.73,58.81 266.83,58.23 265.93,57.67 265.02,57.12 264.10,56.57 263.18,56.04 262.25,55.51 261.32,54.99 260.39,54.48 259.44,53.98 258.50,53.50 257.55,53.02 256.59,52.55 255.63,52.09 254.66,51.63 253.69,51.19 252.72,50.76 251.74,50.34 250.76,49.93 249.77,49.53 248.78,49.13 247.79,48.75 246.79,48.38 245.79,48.02 244.78,47.66 243.77,47.32 242.76,46.99 241.74,46.67 240.72,46.35 239.70,46.05 238.68,45.76 237.65,45.48 236.62,45.21 235.59,44.95 234.55,44.70 233.51,44.46 232.47,44.23 231.43,44.01 230.38,43.80 229.34,43.60 228.29,43.41 227.24,43.24 226.19,43.07 225.13,42.91 224.08,42.77 223.02,42.63 221.96,42.51 220.90,42.39 219.84,42.29 218.78,42.20 217.72,42.11 216.66,42.04 215.59,41.98 214.53,41.93 213.46,41.89 212.40,41.86 211.33,41.84 210.27,41.83 209.20,41.84 208.14,41.85 207.07,41.87 206.01,41.91 204.94,41.95 203.88,42.01 202.81,42.08 201.75,42.15 200.69,42.24 199.63,42.34 198.57,42.45 197.51,42.57 196.45,42.70 195.40,42.84 194.34,42.99 193.29,43.15 192.24,43.32 191.19,43.51 190.14,43.70 189.09,43.90 188.05,44.12 187.01,44.34 185.97,44.58 184.93,44.82 183.90,45.08 182.86,45.34 181.84,45.62 180.81,45.91 179.79,46.20 178.77,46.51 177.75,46.83 176.73,47.15 175.72,47.49 174.72,47.84 173.71,48.20 172.71,48.56 171.72,48.94 170.72,49.33 169.73,49.73 168.75,50.13 167.77,50.55 166.79,50.98 165.82,51.41 164.85,51.86 163.89,52.31 162.93,52.78 161.98,53.25 161.03,53.74 160.09,54.23 159.15,54.74 158.21,55.25 157.28,55.77 156.36,56.30 155.44,56.84 154.53,57.39 153.62,57.95 152.72,58.52 151.82,59.10 150.93,59.68 150.05,60.28 149.17,60.88 148.30,61.49 147.43,62.11 146.57,62.74 145.72,63.38 144.87,64.02 144.03,64.68 143.20,65.34 142.37,66.01 141.55,66.69 140.74,67.38 139.93,68.08 139.13,68.78 138.34,69.49 137.55,70.21 136.77,70.94 136.00,71.68 135.24,72.42 134.48,73.17 133.73,73.93 132.99,74.69 132.26,75.47 131.53,76.25 130.81,77.03 130.10,77.83 129.40,78.63 128.71,79.44 128.02,80.25 127.35,81.08 126.68,81.91 126.01,82.74 125.36,83.58 124.72,84.43 124.08,85.29 123.46,86.15 122.84,87.02 122.23,87.89 121.63,88.77 121.03,89.66 120.45,90.55 119.88,91.44 119.31,92.35 118.75,93.26 118.21,94.17 117.67,95.09 117.14,96.01 116.62,96.94 116.11,97.88 115.61,98.82 115.12,99.77 114.63,100.72 114.16,101.67 113.70,102.63 113.25,103.60 112.80,104.56 112.37,105.54 111.94,106.51 111.53,107.50 111.12,108.48 110.73,109.47 110.35,110.46 109.97,111.46 109.61,112.46 109.25,113.47 108.91,114.48 108.57,115.49 108.25,116.50 107.93,117.52 107.63,118.54 107.33,119.57 107.05,120.59 106.78,121.62 106.51,122.65 106.26,123.69 106.02,124.73 105.78,125.77 105.56,126.81 105.35,127.85 105.15,128.90 104.96,129.95 104.78,131.00 104.61,132.05 104.45,133.10 104.30,134.16 104.16,135.22 104.04,136.27 103.92,137.33 103.81,138.39 103.72,139.45 103.63,140.52 103.56,141.58 103.49,142.64 103.44,143.71 103.40,144.77 103.37,145.84 103.35,146.90 103.33,147.97 103.33,149.03 103.35,150.10 103.37,151.16 103.40,152.23 103.44,153.29 103.49,154.36 103.56,155.42 103.63,156.48 103.72,157.55 103.81,158.61 103.92,159.67 104.04,160.73 104.16,161.78 104.30,162.84 104.45,163.90 104.61,164.95 104.78,166.00 104.96,167.05 105.15,168.10 105.35,169.15 105.56,170.19 105.78,171.23 106.02,172.27 106.26,173.31 106.51,174.35 106.78,175.38 107.05,176.41 107.33,177.43 107.63,178.46 107.93,179.48 108.25,180.50 108.57,181.51 108.91,182.52 109.25,183.53 109.61,184.54 109.97,185.54 110.35,186.54 110.73,187.53 111.12,188.52 111.53,189.50 111.94,190.49 112.37,191.46 112.80,192.44 113.25,193.40 113.70,194.37 114.16,195.33 114.63,196.28 115.12,197.23 115.61,198.18 116.11,199.12 116.62,200.06 117.14,200.99 117.67,201.91 118.21,202.83 118.75,203.74 119.31,204.65 119.88,205.56 120.45,206.45 121.03,207.34 121.63,208.23 122.23,209.11 122.84,209.98 123.46,210.85 124.08,211.71 124.72,212.57 125.36,213.42 126.01,214.26 126.68,215.09 127.35,215.92 128.02,216.75 128.71,217.56 129.40,218.37 130.10,219.17 130.81,219.97 131.53,220.75 132.26,221.53 132.99,222.31 133.73,223.07 134.48,223.83 135.24,224.58 136.00,225.32 136.77,226.06 137.55,226.79 138.34,227.51 139.13,228.22 139.93,228.92 140.74,229.62 141.55,230.31 142.37,230.99 143.20,231.66 144.03,232.32 144.87,232.98 145.72,233.62 146.57,234.26 147.43,234.89 148.30,235.51 149.17,236.12 150.05,236.72 150.93,237.32 151.82,237.90 152.72,238.48 153.62,239.05 154.53,239.61 155.44,240.16 156.36,240.70 157.28,241.23 158.21,241.75 159.15,242.26 160.09,242.77 161.03,243.26 161.98,243.75 162.93,244.22 163.89,244.69 164.85,245.14 165.82,245.59 166.79,246.02 167.77,246.45 168.75,246.87 169.73,247.27 170.72,247.67 171.72,248.06 172.71,248.44 173.71,248.80 174.72,249.16 175.72,249.51 176.73,249.85 177.75,250.17 178.77,250.49 179.79,250.80 180.81,251.09 181.84,251.38 182.86,251.66 183.90,251.92 184.93,252.18 185.97,252.42 187.01,252.66 188.05,252.88 189.09,253.10 190.14,253.30 191.19,253.49 192.24,253.68 193.29,253.85 194.34,254.01 195.40,254.16 196.45,254.30 197.51,254.43 198.57,254.55 199.63,254.66 200.69,254.76 201.75,254.85 202.81,254.92 203.88,254.99 204.94,255.05 206.01,255.09 207.07,255.13 208.14,255.15 209.20,255.16 210.27,255.17 211.33,255.16 212.40,255.14 213.46,255.11 214.53,255.07 215.59,255.02 216.66,254.96 217.72,254.89 218.78,254.80 219.84,254.71 220.90,254.61 221.96,254.49 223.02,254.37 224.08,254.23 225.13,254.09 226.19,253.93 227.24,253.76 228.29,253.59 229.34,253.40 230.38,253.20 231.43,252.99 232.47,252.77 233.51,252.54 234.55,252.30 235.59,252.05 236.62,251.79 237.65,251.52 238.68,251.24 239.70,250.95 240.72,250.65 241.74,250.33 242.76,250.01 243.77,249.68 244.78,249.34 245.79,248.98 246.79,248.62 247.79,248.25 248.78,247.87 249.77,247.47 250.76,247.07 251.74,246.66 252.72,246.24 253.69,245.81 254.66,245.37 255.63,244.91 256.59,244.45 257.55,243.98 258.50,243.50 259.44,243.02 260.39,242.52 261.32,242.01 262.25,241.49 263.18,240.96 264.10,240.43 265.02,239.88 265.93,239.33 266.83,238.77 267.73,238.19 268.62,237.61 269.51,237.02 270.39,236.42 271.27,235.82 272.14,235.20 273.00,234.58 273.86,233.94 274.71,233.30 275.55,232.65 276.39,231.99 277.22,231.32 278.04,230.65 278.86,229.96 279.67,229.27 280.47,228.57 281.27,227.86 282.06,227.15 282.84,226.42 283.61,225.69 284.38,224.95 285.14,224.21 285.89,223.45 286.64,222.69 287.38,221.92 288.11,221.14 288.83,220.36 289.54,219.57 290.25,218.77 290.95,217.97 291.64,217.15 292.32,216.34 292.99,215.51 293.66,214.68 294.31,213.84 294.96,212.99 295.60,212.14 296.23,211.28 296.86,210.42 297.47,209.55 298.07,208.67 298.67,207.79 299.26,206.90 299.84,206.01 300.41,205.11 300.97,204.20 301.52,203.29 302.06,202.37 302.60,201.45 303.12,200.52 303.64,199.59 304.14,198.65 304.64,197.71 305.13,196.76 305.60,195.81 306.07,194.85 306.53,193.89 306.98,192.92 307.42,191.95 307.85,190.97 308.26,190.00 308.67,189.01 309.07,188.02 309.46,187.03 309.84,186.04 310.21,185.04 310.57,184.03 310.92,183.03 311.26,182.02 311.59,181.01 311.91,179.99 312.22,178.97 312.52,177.95 312.81,176.92 313.09,175.89 313.36,174.86 313.62,173.83 313.86,172.79 314.10,171.75 314.33,170.71 314.55,169.67 314.75,168.62 314.95,167.58 315.13,166.53 315.31,165.48 315.47,164.42 315.63,163.37 315.77,162.31 315.90,161.26 316.02,160.20 316.13,159.14 316.24,158.08 316.33,157.02 316.41,155.95 316.48,154.89 316.53,153.83 316.58,152.76 316.62,151.70 316.65,150.63 316.66,149.57 316.67,148.50 420.00,148.50 420.00,297.00 0.00,297.00 0.00,-0.00 420.00,-0.00 420.00,148.50" />
</svg>