<?xml version="1.0" encoding="utf-8"?>
<!-- Generator: Grasshopper 1.0.0, Redback Plugin. SVG Version: 6.00 Build 0) Made by Andrew Butler at Cox Architecture -->
<!DOCTYPE svg PUBLIC "-//W3C//DTD SVG 1.1//EN" "http://www.w3.org/Graphics/SVG/1.1/DTD/svg11.dtd">
<svg version="1.1" xmlns="http://www.w3.org/2000/svg" xmlns:xlink="http://www.w3.org/1999/xlink" x="0px" y="0px"
width="420.0mm" height="297.0mm" viewBox="0 0 420.0 297.0" xml:space="preserve">
<style type="text/css">
text{
font-size: 1mm;
font-family: "IM FELL DW Pica SC";
text-anchor:middle;
}
</style>
<text  transform="matrix(1.0 0.0 0.0 1.0 98.9333333333 245.062962963)">9</text>
<text  transform="matrix(1.0 0.0 0.0 1.0 98.9333333333 221.122222222)">8</text>
<text  transform="matrix(1.0 0.0 0.0 1.0 98.9333333333 197.181481481)">7</text>
<text  transform="matrix(1.0 0.0 0.0 1.0 98.9333333333 173.240740741)">6</text>
<text  transform="matrix(1.0 0.0 0.0 1.0 98.9333333333 149.3)">5</text>
<text  transform="matrix(1.0 0.0 0.0 1.0 98.9333333333 125.359259259)">4</text>
<text  transform="matrix(1.0 0.0 0.0 1.0 98.9333333333 101.418518519)">3</text>
<text  transform="matrix(1.0 0.0 0.0 1.0 98.9333333333 77.4777777778)">2</text>
<text  transform="matrix(1.0 0.0 0.0 1.0 98.9333333333 53.5370370370)">1</text>
<text  transform="matrix(1.0 0.0 0.0 1.0 321.066666667 245.062962963)">9</text>
<text  transform="matrix(1.0 0.0 0.0 1.0 321.066666667 221.122222222)">8</text>
<text  transform="matrix(1.0 0.0 0.0 1.0 321.066666667 197.181481481)">7</text>
<text  transform="matrix(1.0 0.0 0.0 1.0 321.066666667 173.240740741)">6</text>
<text  transform="matrix(1.0 0.0 0.0 1.0 321.066666667 149.3)">5</text>
<text  transform="matrix(1.0 0.0 0.0 1.0 321.066666667 125.359259259)">4</text>
<text  transform="matrix(1.0 0.0 0.0 1.0 321.066666667 101.418518519)">3</text>
<text  transform="matrix(1.0 0.0 0.0 1.0 321.066666667 77.4777777778)">2</text>
<text  transform="matrix(1.0 0.0 0.0 1.0 321.066666667 53.5370370370)">1</text>
</svg>